<svg width="18" height="18" viewBox="0 0 18 18" fill="none" xmlns="http://www.w3.org/2000/svg">
<path d="M7.125 16.5H10.875M11.25 11.4948C13.0237 10.6522 14.25 8.8443 14.25 6.75C14.25 3.8505 11.8995 1.5 9 1.5C6.1005 1.5 3.75 3.8505 3.75 6.75C3.75 8.8443 4.97629 10.6522 6.75 11.4948V12C6.75 12.6989 6.75 13.0484 6.86418 13.324C7.01642 13.6916 7.30843 13.9836 7.67597 14.1358C7.95163 14.25 8.30109 14.25 9 14.25C9.69891 14.25 10.0484 14.25 10.324 14.1358C10.6916 13.9836 10.9836 13.6916 11.1358 13.324C11.25 13.0484 11.25 12.6989 11.25 12V11.4948Z" stroke="#181D27" stroke-width="1.2" stroke-linecap="round" stroke-linejoin="round"/>
</svg>
