<svg width="16" height="16" viewBox="0 0 16 16" fill="none" xmlns="http://www.w3.org/2000/svg">
<g clip-path="url(#clip0_120_24213)">
<path d="M8.66666 9.33333L6.66666 7.33333M10.0069 2.33333V1.33333M12.6331 3.37377L13.3402 2.66666M12.6331 8.66666L13.3402 9.37377M7.34023 3.37377L6.63313 2.66666M13.6736 5.99999H14.6736M4.08758 13.9124L10.2458 7.75424C10.5098 7.49023 10.6418 7.35822 10.6912 7.20601C10.7347 7.07211 10.7347 6.92788 10.6912 6.79398C10.6418 6.64176 10.5098 6.50976 10.2458 6.24575L9.75425 5.75424C9.49023 5.49023 9.35823 5.35823 9.20601 5.30877C9.07211 5.26526 8.92788 5.26526 8.79399 5.30877C8.64177 5.35823 8.50976 5.49023 8.24575 5.75424L2.08758 11.9124C1.82357 12.1764 1.69156 12.3084 1.6421 12.4606C1.5986 12.5945 1.5986 12.7388 1.6421 12.8727C1.69156 13.0249 1.82357 13.1569 2.08758 13.4209L2.57908 13.9124C2.8431 14.1764 2.9751 14.3084 3.12732 14.3579C3.26122 14.4014 3.40545 14.4014 3.53934 14.3579C3.69156 14.3084 3.82357 14.1764 4.08758 13.9124Z" stroke="#717680" stroke-width="1.25" stroke-linecap="round" stroke-linejoin="round"/>
</g>
<defs>
<clipPath id="clip0_120_24213">
<rect width="16" height="16" fill="white"/>
</clipPath>
</defs>
</svg>
