<svg width="82" height="58" viewBox="0 0 82 58" fill="none" xmlns="http://www.w3.org/2000/svg">
<g filter="url(#filter0_d_116_18871)">
<path d="M41.8 11C36.4136 11 31.6489 13.6616 28.7493 17.7415C27.8025 17.5182 26.815 17.4 25.8 17.4C18.7308 17.4 13 23.1308 13 30.2C13 37.2692 18.7308 43 25.8 43L57.8 43C63.9856 43 69 37.9856 69 31.8C69 25.6144 63.9856 20.6 57.8 20.6C57.3606 20.6 56.9272 20.6253 56.501 20.6745C54.0492 14.9839 48.3898 11 41.8 11Z" fill="#FAFAFA"/>
<path d="M41.7998 10.5C48.4655 10.5 54.2052 14.4534 56.8086 20.1406C57.1354 20.1132 57.4661 20.0996 57.7998 20.0996C64.2615 20.0996 69.4999 25.3382 69.5 31.7998C69.5 38.1607 64.4239 43.3361 58.1016 43.4961L57.7998 43.5H25.7998C18.4546 43.4999 12.5001 37.5454 12.5 30.2002C12.5 22.8549 18.4545 16.9005 25.7998 16.9004C26.738 16.9004 27.654 16.9976 28.5381 17.1826C31.5435 13.1292 36.3644 10.5001 41.7998 10.5Z" stroke="black" stroke-opacity="0.04"/>
<ellipse cx="25.8" cy="30.1999" rx="12.8" ry="12.8" fill="url(#paint0_linear_116_18871)"/>
<circle cx="41.7998" cy="27" r="16" fill="url(#paint1_linear_116_18871)"/>
<ellipse cx="57.8001" cy="31.8001" rx="11.2" ry="11.2" fill="url(#paint2_linear_116_18871)"/>
</g>
<defs>
<filter id="filter0_d_116_18871" x="0" y="0" width="82" height="58" filterUnits="userSpaceOnUse" color-interpolation-filters="sRGB">
<feFlood flood-opacity="0" result="BackgroundImageFix"/>
<feColorMatrix in="SourceAlpha" type="matrix" values="0 0 0 0 0 0 0 0 0 0 0 0 0 0 0 0 0 0 127 0" result="hardAlpha"/>
<feOffset dy="2"/>
<feGaussianBlur stdDeviation="6"/>
<feColorMatrix type="matrix" values="0 0 0 0 0.0392157 0 0 0 0 0.0496732 0 0 0 0 0.0705882 0 0 0 0.03 0"/>
<feBlend mode="normal" in2="BackgroundImageFix" result="effect1_dropShadow_116_18871"/>
<feBlend mode="normal" in="SourceGraphic" in2="effect1_dropShadow_116_18871" result="shape"/>
</filter>
<linearGradient id="paint0_linear_116_18871" x1="15.9714" y1="21.7428" x2="38.6" y2="42.9999" gradientUnits="userSpaceOnUse">
<stop stop-color="#E9EAEB"/>
<stop offset="0.350715" stop-color="#FAFAFA"/>
</linearGradient>
<linearGradient id="paint1_linear_116_18871" x1="29.5141" y1="16.4286" x2="57.7998" y2="43" gradientUnits="userSpaceOnUse">
<stop stop-color="#E9EAEB"/>
<stop offset="0.350715" stop-color="#FAFAFA"/>
</linearGradient>
<linearGradient id="paint2_linear_116_18871" x1="49.2001" y1="24.4001" x2="69.0001" y2="43.0001" gradientUnits="userSpaceOnUse">
<stop stop-color="#E9EAEB"/>
<stop offset="0.350715" stop-color="#FAFAFA"/>
</linearGradient>
</defs>
</svg>
