<svg width="32" height="32" viewBox="0 0 32 32" fill="none" xmlns="http://www.w3.org/2000/svg">
<g filter="url(#filter0_i_431_51738)">
<path d="M0 12.8C0 8.31958 0 6.07937 0.871948 4.36808C1.63893 2.86278 2.86278 1.63893 4.36808 0.871948C6.07937 0 8.31958 0 12.8 0H19.2C23.6804 0 25.9206 0 27.6319 0.871948C29.1372 1.63893 30.3611 2.86278 31.1281 4.36808C32 6.07937 32 8.31958 32 12.8V19.2C32 23.6804 32 25.9206 31.1281 27.6319C30.3611 29.1372 29.1372 30.3611 27.6319 31.1281C25.9206 32 23.6804 32 19.2 32H12.8C8.31958 32 6.07937 32 4.36808 31.1281C2.86278 30.3611 1.63893 29.1372 0.871948 27.6319C0 25.9206 0 23.6804 0 19.2V12.8Z" fill="url(#paint0_linear_431_51738)"/>
<path d="M12.7998 0.0996094H19.2002C21.442 0.0996094 23.1173 0.100404 24.4463 0.208984C25.7741 0.317475 26.7477 0.533352 27.5869 0.960938C29.0732 1.7183 30.2817 2.92681 31.0391 4.41309C31.4666 5.25227 31.6825 6.22592 31.791 7.55371C31.8996 8.88267 31.9004 10.558 31.9004 12.7998V19.2002C31.9004 21.442 31.8996 23.1173 31.791 24.4463C31.6825 25.7741 31.4666 26.7477 31.0391 27.5869C30.2817 29.0732 29.0732 30.2817 27.5869 31.0391C26.7477 31.4666 25.7741 31.6825 24.4463 31.791C23.1173 31.8996 21.442 31.9004 19.2002 31.9004H12.7998C10.558 31.9004 8.88267 31.8996 7.55371 31.791C6.22592 31.6825 5.25227 31.4666 4.41309 31.0391C2.92681 30.2817 1.7183 29.0732 0.960938 27.5869C0.533352 26.7477 0.317475 25.7741 0.208984 24.4463C0.100404 23.1173 0.0996094 21.442 0.0996094 19.2002V12.7998C0.0996094 10.558 0.100404 8.88267 0.208984 7.55371C0.317475 6.22592 0.533352 5.25227 0.960938 4.41309C1.7183 2.92681 2.92681 1.7183 4.41309 0.960938C5.25227 0.533352 6.22592 0.317475 7.55371 0.208984C8.88267 0.100404 10.558 0.0996094 12.7998 0.0996094Z" stroke="#0A0D12" stroke-opacity="0.1" stroke-width="0.2"/>
<path d="M15.9982 11.1366C15.7314 11.3201 15.4774 11.5264 15.2363 11.7556L14.0473 12.888C13.5042 12.6108 12.9021 12.473 12.3023 12.473C11.3537 12.473 10.4058 12.8171 9.68307 13.5054C8.98437 14.1725 8.59933 15.0568 8.59933 15.9994H6C6 14.3954 6.65481 12.888 7.84622 11.7556C10.064 9.64349 13.537 9.43713 16.0006 11.1366H15.9982Z" fill="url(#paint1_linear_431_51738)"/>
<path d="M20.3671 16.8082L17.9498 19.1101L16.7607 20.2419C16.5196 20.4717 16.2657 20.6781 15.9982 20.8616C14.9016 21.6184 13.6008 21.998 12.3023 21.998C10.6884 21.998 9.07449 21.4121 7.84622 20.2419C6.65481 19.1078 6 17.6005 6 15.9971H8.59933C8.59933 16.9391 8.98437 17.8257 9.68307 18.4905C10.916 19.6646 12.8102 19.8355 14.238 19.0038C14.4809 18.862 14.7109 18.6911 14.9233 18.4905L16.2306 17.2461L18.5279 15.0585H18.5297C19.0376 14.5726 19.8615 14.5726 20.3671 15.0568C20.8751 15.5403 20.8751 16.324 20.3671 16.8059V16.8082Z" fill="url(#paint2_linear_431_51738)"/>
<path d="M25.9994 15.999H23.4001C23.4001 15.0564 23.015 14.1726 22.3163 13.505C21.5937 12.8173 20.6457 12.4732 19.6971 12.4732C19.0248 12.4732 18.353 12.6464 17.7614 12.9922C17.5185 13.134 17.2885 13.3049 17.0785 13.505L15.7689 14.7523L13.4697 16.9416C13.2158 17.1834 12.8828 17.3046 12.5498 17.3046C12.2169 17.3046 11.8839 17.1834 11.6299 16.9416C11.122 16.458 11.122 15.6737 11.6299 15.1918L14.0479 12.8899L15.2369 11.7581C15.4774 11.5283 15.7314 11.322 15.9988 11.1385C18.4624 9.43904 21.9331 9.64539 24.1514 11.7581C25.3423 12.8922 25.9971 14.3996 25.9971 16.0013L25.9994 15.999Z" fill="url(#paint3_linear_431_51738)"/>
<path d="M26 15.999C26 17.6024 25.3452 19.1098 24.1538 20.2445C22.9255 21.414 21.3116 21.9999 19.6977 21.9999C18.3992 21.9999 17.0984 21.6204 16.0012 20.8635C16.2686 20.68 16.5226 20.4737 16.7631 20.2445L17.9522 19.1121C18.4952 19.3893 19.0956 19.5271 19.6977 19.5271C20.6457 19.5271 21.5937 19.183 22.3164 18.4947C23.0151 17.8276 23.4007 16.9439 23.4007 16.0013H26V15.999Z" fill="url(#paint4_linear_431_51738)"/>
</g>
<defs>
<filter id="filter0_i_431_51738" x="0" y="-0.5" width="32" height="32.5" filterUnits="userSpaceOnUse" color-interpolation-filters="sRGB">
<feFlood flood-opacity="0" result="BackgroundImageFix"/>
<feBlend mode="normal" in="SourceGraphic" in2="BackgroundImageFix" result="shape"/>
<feColorMatrix in="SourceAlpha" type="matrix" values="0 0 0 0 0 0 0 0 0 0 0 0 0 0 0 0 0 0 127 0" result="hardAlpha"/>
<feOffset dy="-0.5"/>
<feGaussianBlur stdDeviation="0.25"/>
<feComposite in2="hardAlpha" operator="arithmetic" k2="-1" k3="1"/>
<feColorMatrix type="matrix" values="0 0 0 0 0.0392157 0 0 0 0 0.0509804 0 0 0 0 0.0705882 0 0 0 0.1 0"/>
<feBlend mode="normal" in2="shape" result="effect1_innerShadow_431_51738"/>
</filter>
<linearGradient id="paint0_linear_431_51738" x1="0" y1="0" x2="32" y2="32" gradientUnits="userSpaceOnUse">
<stop stop-color="#F5F7FA"/>
<stop offset="1" stop-color="#C3CFE2"/>
</linearGradient>
<linearGradient id="paint1_linear_431_51738" x1="6" y1="12.9848" x2="16.0001" y2="13.0677" gradientUnits="userSpaceOnUse">
<stop stop-color="#34A6ED"/>
<stop offset="1" stop-color="#1047D2"/>
</linearGradient>
<linearGradient id="paint2_linear_431_51738" x1="6" y1="18.3277" x2="20.747" y2="18.4759" gradientUnits="userSpaceOnUse">
<stop stop-color="#34A6ED"/>
<stop offset="1" stop-color="#54E3DF"/>
</linearGradient>
<linearGradient id="paint3_linear_431_51738" x1="11.249" y1="13.6351" x2="25.9983" y2="13.7833" gradientUnits="userSpaceOnUse">
<stop stop-color="#54E3DF"/>
<stop offset="1" stop-color="#34A6ED"/>
</linearGradient>
<linearGradient id="paint4_linear_431_51738" x1="16.0012" y1="18.9845" x2="25.9996" y2="19.0674" gradientUnits="userSpaceOnUse">
<stop stop-color="#1047D2"/>
<stop offset="1" stop-color="#34A6ED"/>
</linearGradient>
</defs>
</svg>
