<svg width="38" height="38" viewBox="0 0 38 38" fill="none" xmlns="http://www.w3.org/2000/svg">
<g filter="url(#filter0_dddi_431_51738)">
<path d="M3 14.8C3 10.3196 3 8.07937 3.87195 6.36808C4.63893 4.86278 5.86278 3.63893 7.36808 2.87195C9.07937 2 11.3196 2 15.8 2H22.2C26.6804 2 28.9206 2 30.6319 2.87195C32.1372 3.63893 33.3611 4.86278 34.1281 6.36808C35 8.07937 35 10.3196 35 14.8V21.2C35 25.6804 35 27.9206 34.1281 29.6319C33.3611 31.1372 32.1372 32.3611 30.6319 33.1281C28.9206 34 26.6804 34 22.2 34H15.8C11.3196 34 9.07937 34 7.36808 33.1281C5.86278 32.3611 4.63893 31.1372 3.87195 29.6319C3 27.9206 3 25.6804 3 21.2V14.8Z" fill="url(#paint0_linear_431_51738)"/>
<path d="M15.7998 2.09961H22.2002C24.442 2.09961 26.1173 2.1004 27.4463 2.20898C28.7741 2.31747 29.7477 2.53335 30.5869 2.96094C32.0732 3.7183 33.2817 4.92681 34.0391 6.41309C34.4666 7.25227 34.6825 8.22592 34.791 9.55371C34.8996 10.8827 34.9004 12.558 34.9004 14.7998V21.2002C34.9004 23.442 34.8996 25.1173 34.791 26.4463C34.6825 27.7741 34.4666 28.7477 34.0391 29.5869C33.2817 31.0732 32.0732 32.2817 30.5869 33.0391C29.7477 33.4666 28.7741 33.6825 27.4463 33.791C26.1173 33.8996 24.442 33.9004 22.2002 33.9004H15.7998C13.558 33.9004 11.8827 33.8996 10.5537 33.791C9.22592 33.6825 8.25227 33.4666 7.41309 33.0391C5.92681 32.2817 4.7183 31.0732 3.96094 29.5869C3.53335 28.7477 3.31747 27.7741 3.20898 26.4463C3.1004 25.1173 3.09961 23.442 3.09961 21.2002V14.7998C3.09961 12.558 3.1004 10.8827 3.20898 9.55371C3.31747 8.22592 3.53335 7.25227 3.96094 6.41309C4.7183 4.92681 5.92681 3.7183 7.41309 2.96094C8.25227 2.53335 9.22592 2.31747 10.5537 2.20898C11.8827 2.1004 13.558 2.09961 15.7998 2.09961Z" stroke="#0A0D12" stroke-opacity="0.1" stroke-width="0.2"/>
<path d="M18.9982 13.1366C18.7314 13.3201 18.4774 13.5264 18.2363 13.7556L17.0473 14.888C16.5042 14.6108 15.9021 14.473 15.3023 14.473C14.3537 14.473 13.4058 14.8171 12.6831 15.5054C11.9844 16.1725 11.5993 17.0568 11.5993 17.9994H9C9 16.3954 9.65481 14.888 10.8462 13.7556C13.064 11.6435 16.537 11.4371 19.0006 13.1366H18.9982Z" fill="url(#paint1_linear_431_51738)"/>
<path d="M23.3671 18.8082L20.9498 21.1101L19.7607 22.2419C19.5196 22.4717 19.2657 22.6781 18.9982 22.8616C17.9016 23.6184 16.6008 23.998 15.3023 23.998C13.6884 23.998 12.0745 23.4121 10.8462 22.2419C9.65481 21.1078 9 19.6005 9 17.9971H11.5993C11.5993 18.9391 11.9844 19.8257 12.6831 20.4905C13.916 21.6646 15.8102 21.8355 17.238 21.0038C17.4809 20.862 17.7109 20.6911 17.9233 20.4905L19.2306 19.2461L21.5279 17.0585H21.5297C22.0376 16.5726 22.8615 16.5726 23.3671 17.0568C23.8751 17.5403 23.8751 18.324 23.3671 18.8059V18.8082Z" fill="url(#paint2_linear_431_51738)"/>
<path d="M28.9994 17.999H26.4001C26.4001 17.0564 26.015 16.1726 25.3163 15.505C24.5937 14.8173 23.6457 14.4732 22.6971 14.4732C22.0248 14.4732 21.353 14.6464 20.7614 14.9922C20.5185 15.134 20.2885 15.3049 20.0785 15.505L18.7689 16.7523L16.4697 18.9416C16.2158 19.1834 15.8828 19.3046 15.5498 19.3046C15.2169 19.3046 14.8839 19.1834 14.6299 18.9416C14.122 18.458 14.122 17.6737 14.6299 17.1918L17.0479 14.8899L18.2369 13.7581C18.4774 13.5283 18.7314 13.322 18.9988 13.1385C21.4624 11.439 24.9331 11.6454 27.1514 13.7581C28.3423 14.8922 28.9971 16.3996 28.9971 18.0013L28.9994 17.999Z" fill="url(#paint3_linear_431_51738)"/>
<path d="M29 17.999C29 19.6024 28.3452 21.1098 27.1538 22.2445C25.9255 23.414 24.3116 23.9999 22.6977 23.9999C21.3992 23.9999 20.0984 23.6204 19.0012 22.8635C19.2686 22.68 19.5226 22.4737 19.7631 22.2445L20.9522 21.1121C21.4952 21.3893 22.0956 21.5271 22.6977 21.5271C23.6457 21.5271 24.5937 21.183 25.3164 20.4947C26.0151 19.8276 26.4007 18.9439 26.4007 18.0013H29V17.999Z" fill="url(#paint4_linear_431_51738)"/>
</g>
<defs>
<filter id="filter0_dddi_431_51738" x="0" y="0" width="38" height="38" filterUnits="userSpaceOnUse" color-interpolation-filters="sRGB">
<feFlood flood-opacity="0" result="BackgroundImageFix"/>
<feColorMatrix in="SourceAlpha" type="matrix" values="0 0 0 0 0 0 0 0 0 0 0 0 0 0 0 0 0 0 127 0" result="hardAlpha"/>
<feOffset dy="1"/>
<feGaussianBlur stdDeviation="1"/>
<feColorMatrix type="matrix" values="0 0 0 0 0.0392157 0 0 0 0 0.0509804 0 0 0 0 0.0705882 0 0 0 0.06 0"/>
<feBlend mode="normal" in2="BackgroundImageFix" result="effect1_dropShadow_431_51738"/>
<feColorMatrix in="SourceAlpha" type="matrix" values="0 0 0 0 0 0 0 0 0 0 0 0 0 0 0 0 0 0 127 0" result="hardAlpha"/>
<feOffset dy="1"/>
<feGaussianBlur stdDeviation="1.5"/>
<feColorMatrix type="matrix" values="0 0 0 0 0.0392157 0 0 0 0 0.0509804 0 0 0 0 0.0705882 0 0 0 0.1 0"/>
<feBlend mode="normal" in2="effect1_dropShadow_431_51738" result="effect2_dropShadow_431_51738"/>
<feColorMatrix in="SourceAlpha" type="matrix" values="0 0 0 0 0 0 0 0 0 0 0 0 0 0 0 0 0 0 127 0" result="hardAlpha"/>
<feMorphology radius="0.5" operator="erode" in="SourceAlpha" result="effect3_dropShadow_431_51738"/>
<feOffset dy="1"/>
<feGaussianBlur stdDeviation="0.5"/>
<feComposite in2="hardAlpha" operator="out"/>
<feColorMatrix type="matrix" values="0 0 0 0 0.0392157 0 0 0 0 0.0509804 0 0 0 0 0.0705882 0 0 0 0.13 0"/>
<feBlend mode="normal" in2="effect2_dropShadow_431_51738" result="effect3_dropShadow_431_51738"/>
<feBlend mode="normal" in="SourceGraphic" in2="effect3_dropShadow_431_51738" result="shape"/>
<feColorMatrix in="SourceAlpha" type="matrix" values="0 0 0 0 0 0 0 0 0 0 0 0 0 0 0 0 0 0 127 0" result="hardAlpha"/>
<feOffset dy="-0.5"/>
<feGaussianBlur stdDeviation="0.25"/>
<feComposite in2="hardAlpha" operator="arithmetic" k2="-1" k3="1"/>
<feColorMatrix type="matrix" values="0 0 0 0 0.0392157 0 0 0 0 0.0509804 0 0 0 0 0.0705882 0 0 0 0.1 0"/>
<feBlend mode="normal" in2="shape" result="effect4_innerShadow_431_51738"/>
</filter>
<linearGradient id="paint0_linear_431_51738" x1="3" y1="2" x2="35" y2="34" gradientUnits="userSpaceOnUse">
<stop stop-color="#F5F7FA"/>
<stop offset="1" stop-color="#C3CFE2"/>
</linearGradient>
<linearGradient id="paint1_linear_431_51738" x1="9" y1="14.9848" x2="19.0001" y2="15.0677" gradientUnits="userSpaceOnUse">
<stop stop-color="#34A6ED"/>
<stop offset="1" stop-color="#1047D2"/>
</linearGradient>
<linearGradient id="paint2_linear_431_51738" x1="9" y1="20.3277" x2="23.747" y2="20.4759" gradientUnits="userSpaceOnUse">
<stop stop-color="#34A6ED"/>
<stop offset="1" stop-color="#54E3DF"/>
</linearGradient>
<linearGradient id="paint3_linear_431_51738" x1="14.249" y1="15.6351" x2="28.9983" y2="15.7833" gradientUnits="userSpaceOnUse">
<stop stop-color="#54E3DF"/>
<stop offset="1" stop-color="#34A6ED"/>
</linearGradient>
<linearGradient id="paint4_linear_431_51738" x1="19.0012" y1="20.9845" x2="28.9996" y2="21.0674" gradientUnits="userSpaceOnUse">
<stop stop-color="#1047D2"/>
<stop offset="1" stop-color="#34A6ED"/>
</linearGradient>
</defs>
</svg>
