<svg preserveAspectRatio="none" width="100%" height="100%" overflow="visible" style="display: block;" viewBox="0 0 13.5 13.5" fill="none" xmlns="http://www.w3.org/2000/svg">
<path id="Icon" d="M12.75 4.75001L12.75 0.750007M12.75 0.750007H8.74999M12.75 0.750007L6.75 6.75M5.41667 0.750001H3.95C2.8299 0.750001 2.26984 0.750001 1.84202 0.967988C1.4657 1.15973 1.15973 1.4657 0.967988 1.84202C0.750001 2.26984 0.750001 2.8299 0.750001 3.95V9.55C0.750001 10.6701 0.750001 11.2302 0.967988 11.658C1.15973 12.0343 1.4657 12.3403 1.84202 12.532C2.26984 12.75 2.8299 12.75 3.95 12.75H9.55C10.6701 12.75 11.2302 12.75 11.658 12.532C12.0343 12.3403 12.3403 12.0343 12.532 11.658C12.75 11.2302 12.75 10.6701 12.75 9.55V8.08333" stroke="var(--stroke-0, #A4A7AE)" stroke-width="1.5" stroke-linecap="round" stroke-linejoin="round"/>
</svg>
