<svg preserveAspectRatio="none" width="100%" height="100%" overflow="visible" style="display: block;" viewBox="0 0 17.3763 16.6439" fill="none" xmlns="http://www.w3.org/2000/svg">
<path id="Icon" d="M8.09037 1.51973C8.28244 1.13062 8.37847 0.936057 8.50885 0.873896C8.62228 0.819812 8.75406 0.819812 8.86749 0.873896C8.99787 0.936057 9.0939 1.13062 9.28598 1.51973L11.1082 5.21137C11.1649 5.32625 11.1933 5.38368 11.2347 5.42828C11.2714 5.46777 11.3154 5.49976 11.3643 5.52249C11.4195 5.54815 11.4828 5.55742 11.6096 5.57595L15.6857 6.17172C16.1149 6.23446 16.3295 6.26583 16.4288 6.37066C16.5152 6.46188 16.5559 6.58721 16.5394 6.71178C16.5205 6.85495 16.3651 7.00628 16.0544 7.30895L13.106 10.1806C13.0141 10.2702 12.9682 10.3149 12.9385 10.3682C12.9123 10.4153 12.8954 10.4671 12.8889 10.5207C12.8816 10.5812 12.8924 10.6445 12.9141 10.7709L13.6098 14.8271C13.6832 15.2549 13.7199 15.4688 13.6509 15.5957C13.5909 15.7062 13.4843 15.7836 13.3607 15.8065C13.2187 15.8329 13.0266 15.7318 12.6424 15.5298L8.99847 13.6135C8.88493 13.5538 8.82817 13.5239 8.76836 13.5122C8.7154 13.5018 8.66094 13.5018 8.60798 13.5122C8.54818 13.5239 8.49141 13.5538 8.37787 13.6135L4.73393 15.5298C4.34975 15.7318 4.15767 15.8329 4.01563 15.8065C3.89206 15.7836 3.78543 15.7062 3.72544 15.5957C3.65649 15.4688 3.69318 15.2549 3.76655 14.8271L4.46223 10.7709C4.48392 10.6445 4.49476 10.5812 4.48742 10.5207C4.48093 10.4671 4.46408 10.4153 4.43783 10.3682C4.40818 10.3149 4.36222 10.2702 4.27031 10.1806L1.32196 7.30895C1.01121 7.00628 0.855836 6.85495 0.836929 6.71178C0.820479 6.58721 0.861119 6.46188 0.947533 6.37066C1.04685 6.26583 1.26147 6.23446 1.69069 6.17172L5.76675 5.57595C5.89351 5.55742 5.95689 5.54815 6.01209 5.52249C6.06096 5.49976 6.10496 5.46777 6.14164 5.42828C6.18308 5.38368 6.21143 5.32625 6.26814 5.21137L8.09037 1.51973Z" stroke="var(--stroke-0, #A4A7AE)" stroke-width="1.66667" stroke-linecap="round" stroke-linejoin="round"/>
</svg>
