<svg width="398" height="389" viewBox="0 0 398 389" fill="none" xmlns="http://www.w3.org/2000/svg">
<g style="mix-blend-mode:luminosity" filter="url(#filter0_d_10334_21609)">
<path d="M337.267 239.954C349.46 227.472 350.641 207.928 340.841 194.063C350.641 180.169 349.46 160.654 337.296 148.172C330.753 141.455 322.078 137.794 312.854 137.766H312.825C308.214 137.794 303.746 138.717 299.596 140.446C295.474 142.234 291.669 144.828 288.383 148.172C281.639 155.09 278.267 164.17 278.267 173.25C278.267 180.572 280.457 187.894 284.809 194.063V194.092C280.428 200.26 278.238 207.582 278.238 214.904C278.238 223.984 281.639 233.065 288.355 239.983C294.897 246.67 303.573 250.36 312.825 250.36C322.078 250.36 330.725 246.67 337.267 239.954ZM298.443 229.634C294.494 225.57 292.505 220.237 292.505 214.904C292.505 211.503 293.283 208.13 294.897 205.074L308.156 218.652H308.185C310.952 221.534 315.477 221.534 318.273 218.652C321.04 215.827 321.04 211.186 318.244 208.332V208.303L305.648 195.36L298.472 188.009C297.319 186.828 296.339 185.53 295.503 184.147C290.718 176.104 291.698 165.467 298.472 158.52C302.305 154.571 307.407 152.409 312.825 152.409C318.244 152.409 323.346 154.571 327.208 158.52C331.157 162.585 333.146 167.918 333.146 173.25C333.146 176.623 332.367 180.025 330.753 183.08L317.495 169.474C314.699 166.62 310.174 166.62 307.407 169.474C305.994 170.916 305.303 172.789 305.303 174.663C305.303 176.537 305.994 178.41 307.407 179.823L320.002 192.766L327.208 200.145C328.361 201.327 329.341 202.624 330.148 203.979C332.166 207.323 333.146 211.099 333.146 214.904C333.146 220.237 331.157 225.57 327.208 229.634C323.346 233.583 318.273 235.745 312.825 235.745C307.378 235.745 302.305 233.583 298.443 229.634Z" fill="url(#paint0_linear_10334_21609)"/>
<path d="M228.24 337.01C245.146 341.328 262.663 332.579 269.77 317.16C286.703 318.7 303.013 307.919 307.741 291.144C310.286 282.12 309.118 272.776 304.532 264.774L304.517 264.749C302.186 260.769 299.154 257.361 295.581 254.632C291.972 251.956 287.823 249.958 283.284 248.784C273.92 246.402 264.371 248.022 256.507 252.562C250.166 256.223 244.92 261.781 241.754 268.635L241.729 268.649C234.196 267.939 226.76 269.703 220.419 273.364C212.556 277.904 206.393 285.39 203.759 294.665C201.239 303.675 202.381 313.033 207.007 321.046C211.634 329.058 219.152 334.702 228.24 337.01ZM217.765 298.227C219.311 292.775 222.935 288.386 227.553 285.72C230.499 284.019 233.809 283.007 237.262 282.877L232.133 301.148L232.148 301.173C231.035 305.01 233.297 308.929 237.192 309.909C241.022 310.893 245.041 308.573 246.114 304.724L246.139 304.71L251.05 287.33L253.828 277.44C254.275 275.85 254.908 274.353 255.689 272.937C260.261 264.772 269.963 260.303 279.366 262.695C284.703 264.04 289.126 267.378 291.835 272.07C294.545 276.763 295.223 282.262 293.734 287.582C292.189 293.034 288.565 297.422 283.947 300.089C281.026 301.775 277.691 302.802 274.238 302.932L279.391 284.647C280.465 280.799 278.202 276.88 274.347 275.91C272.393 275.408 270.424 275.745 268.802 276.682C267.179 277.619 265.902 279.155 265.385 281.084L260.474 298.464L257.686 308.394C257.239 309.984 256.606 311.481 255.836 312.857C253.949 316.276 251.169 319.013 247.873 320.916C243.255 323.582 237.642 324.526 232.148 323.139C226.797 321.768 222.388 318.456 219.664 313.738C216.94 309.021 216.276 303.547 217.765 298.227Z" fill="url(#paint1_linear_10334_21609)"/>
<path d="M89.6743 291.119C94.3877 307.918 110.722 318.714 127.63 317.159C134.763 332.593 152.254 341.328 169.146 337.035C178.234 334.727 185.742 329.044 190.379 321.07L190.393 321.045C192.674 317.037 194.109 312.707 194.686 308.248C195.199 303.785 194.855 299.193 193.602 294.675C190.983 285.375 184.805 277.914 176.942 273.374C170.601 269.713 163.165 267.949 155.646 268.634L155.621 268.62C152.469 261.741 147.224 256.183 140.883 252.522C133.019 247.982 123.455 246.388 114.106 248.745C105.043 251.067 97.5094 256.736 92.8832 264.748C88.2571 272.761 87.1291 282.094 89.6743 291.119ZM118.024 262.655C123.518 261.268 129.131 262.212 133.749 264.878C136.695 266.579 139.227 268.939 141.066 271.865L122.678 276.559L122.664 276.584C118.784 277.539 116.521 281.458 117.62 285.32C118.683 289.129 122.702 291.45 126.572 290.455L126.596 290.47L144.103 286.033L154.058 283.493C155.658 283.085 157.271 282.885 158.887 282.853C168.244 282.731 176.966 288.898 179.596 298.237C181.099 303.532 180.421 309.031 177.711 313.724C175.002 318.416 170.579 321.754 165.227 323.124C159.733 324.511 154.12 323.567 149.502 320.901C146.581 319.215 144.025 316.84 142.185 313.914L160.598 309.235C164.467 308.241 166.73 304.322 165.642 300.498C165.1 298.555 163.823 297.019 162.2 296.082C160.578 295.145 158.609 294.807 156.68 295.324L139.173 299.761L129.179 302.311C127.579 302.719 125.966 302.919 124.389 302.941C120.484 303.016 116.724 301.977 113.429 300.074C108.811 297.408 105.187 293.019 103.641 287.567C102.152 282.248 102.816 276.773 105.54 272.056C108.264 267.338 112.673 264.026 118.024 262.655Z" fill="url(#paint2_linear_10334_21609)"/>
<path d="M60.133 148.171C47.9409 160.653 46.7591 180.197 56.559 194.062C46.7591 207.956 47.9409 227.471 60.1042 239.953C66.647 246.67 75.3228 250.331 84.5462 250.359L84.575 250.359C89.1867 250.331 93.6543 249.408 97.8048 247.679C101.926 245.891 105.731 243.297 109.017 239.953C115.762 233.035 119.134 223.955 119.134 214.875C119.134 207.553 116.943 200.231 112.591 194.062L112.591 194.033C116.972 187.865 119.163 180.543 119.163 173.221C119.163 164.141 115.762 155.06 109.046 148.142C102.503 141.455 93.8272 137.765 84.575 137.765C75.3228 137.765 66.6759 141.455 60.133 148.171ZM98.9577 158.491C102.906 162.555 104.895 167.888 104.895 173.221C104.895 176.622 104.117 179.995 102.503 183.051L89.2443 169.473L89.2155 169.473C86.4485 166.591 81.9233 166.591 79.1274 169.473C76.3604 172.298 76.3604 176.939 79.1563 179.793L79.1563 179.822L91.7519 192.765L98.9289 200.116C100.082 201.297 101.062 202.595 101.898 203.978C106.682 212.021 105.702 222.658 98.9289 229.605C95.0954 233.554 89.9937 235.716 84.575 235.716C79.1563 235.716 74.0546 233.554 70.1923 229.605C66.2435 225.54 64.2547 220.207 64.2547 214.875C64.2547 211.502 65.0329 208.1 66.647 205.045L79.9057 218.651C82.7015 221.505 87.2267 221.505 89.9937 218.651C91.4061 217.209 92.0978 215.336 92.0978 213.462C92.0978 211.588 91.4061 209.715 89.9937 208.302L77.398 195.359L70.1923 187.98C69.0394 186.798 68.0594 185.501 67.2523 184.146C65.2347 180.802 64.2547 177.026 64.2547 173.221C64.2547 167.888 66.2435 162.555 70.1923 158.491C74.0546 154.542 79.1274 152.38 84.575 152.38C90.0226 152.38 95.0954 154.542 98.9577 158.491Z" fill="url(#paint3_linear_10334_21609)"/>
<path d="M169.16 51.1149C152.254 46.797 134.738 55.5456 127.63 70.9652C110.697 69.4253 94.3876 80.2064 89.6598 96.981C87.1146 106.005 88.2821 115.349 92.8688 123.351L92.8832 123.376C95.214 127.356 98.2466 130.764 101.82 133.493C105.428 136.169 109.577 138.167 114.116 139.341C123.48 141.723 133.03 140.103 140.893 135.563C147.234 131.902 152.48 126.344 155.646 119.49L155.671 119.476C163.204 120.186 170.64 118.422 176.981 114.761C184.845 110.221 191.008 102.735 193.641 93.4602C196.161 84.4501 195.019 75.0918 190.393 67.0792C185.767 59.0665 178.248 53.4229 169.16 51.1149ZM179.635 89.8979C178.09 95.3499 174.466 99.7386 169.847 102.405C166.901 104.106 163.592 105.118 160.138 105.248L165.267 86.9773L165.253 86.9523C166.366 83.1147 164.103 79.1957 160.209 78.2158C156.379 77.2319 152.359 79.5524 151.286 83.4006L151.261 83.415L146.35 100.795L143.573 110.685C143.125 112.275 142.492 113.772 141.712 115.188C137.139 123.353 127.437 127.822 118.034 125.43C112.697 124.085 108.274 120.747 105.565 116.055C102.856 111.362 102.177 105.863 103.666 100.543C105.212 95.0913 108.835 90.7025 113.454 88.0361C116.375 86.3498 119.71 85.323 123.163 85.1931L118.009 103.478C116.935 107.326 119.198 111.245 123.053 112.215C125.007 112.717 126.976 112.38 128.599 111.443C130.221 110.506 131.498 108.97 132.015 107.041L136.926 89.661L139.714 79.7308C140.161 78.1414 140.795 76.6442 141.564 75.2678C143.451 71.8486 146.232 69.1118 149.527 67.2093C154.145 64.5429 159.758 63.5988 165.252 64.9863C170.604 66.3566 175.012 69.6688 177.736 74.3866C180.46 79.1043 181.124 84.5785 179.635 89.8979Z" fill="url(#paint4_linear_10334_21609)"/>
<path d="M307.726 97.0063C303.013 80.2068 286.678 69.4113 269.77 70.9656C262.638 55.5316 245.146 46.7974 228.255 51.0903C219.167 53.3983 211.658 59.0813 207.022 67.0546L207.007 67.0795C204.727 71.0878 203.292 75.4181 202.714 79.8773C202.201 84.3404 202.546 88.9325 203.798 93.45C206.418 102.75 212.595 110.211 220.459 114.751C226.8 118.412 234.236 120.176 241.754 119.491L241.779 119.505C244.931 126.384 250.177 131.942 256.517 135.603C264.381 140.143 273.945 141.737 283.295 139.38C292.358 137.058 299.891 131.389 304.517 123.377C309.143 115.364 310.271 106.031 307.726 97.0063ZM279.377 125.47C273.882 126.857 268.27 125.913 263.651 123.247C260.705 121.546 258.174 119.186 256.335 116.26L274.722 111.566L274.736 111.541C278.616 110.586 280.879 106.667 279.78 102.805C278.717 98.996 274.698 96.6755 270.829 97.6698L270.804 97.6554L253.297 102.092L243.343 104.632C241.743 105.04 240.13 105.24 238.513 105.272C229.156 105.394 220.434 99.2273 217.805 89.8878C216.301 84.5933 216.98 79.0941 219.689 74.4014C222.399 69.7086 226.822 66.3714 232.173 65.0011C237.667 63.6136 243.28 64.5577 247.898 67.2241C250.819 68.9104 253.376 71.2851 255.215 74.2107L236.803 78.8901C232.933 79.8845 230.671 83.8034 231.759 87.6266C232.301 89.5704 233.577 91.1063 235.2 92.0432C236.823 92.98 238.791 93.3178 240.721 92.8009L258.227 88.3642L268.221 85.8135C269.821 85.406 271.434 85.2059 273.011 85.1844C276.916 85.109 280.676 86.1484 283.971 88.0509C288.59 90.7173 292.214 95.1061 293.759 100.558C295.248 105.877 294.584 111.352 291.86 116.069C289.137 120.787 284.728 124.099 279.377 125.47Z" fill="url(#paint5_linear_10334_21609)"/>
</g>
<defs>
<filter id="filter0_d_10334_21609" x="-33.3333" y="-33.3333" width="464.067" height="454.792" filterUnits="userSpaceOnUse" color-interpolation-filters="sRGB">
<feFlood flood-opacity="0" result="BackgroundImageFix"/>
<feColorMatrix in="SourceAlpha" type="matrix" values="0 0 0 0 0 0 0 0 0 0 0 0 0 0 0 0 0 0 127 0" result="hardAlpha"/>
<feOffset/>
<feGaussianBlur stdDeviation="25"/>
<feColorMatrix type="matrix" values="0 0 0 0 0.701961 0 0 0 0 0.678431 0 0 0 0 0.65098 0 0 0 0.25 0"/>
<feBlend mode="normal" in2="BackgroundImageFix" result="effect1_dropShadow_10334_21609"/>
<feBlend mode="normal" in="SourceGraphic" in2="effect1_dropShadow_10334_21609" result="shape"/>
</filter>
<linearGradient id="paint0_linear_10334_21609" x1="347.4" y1="137.766" x2="246.97" y2="199.457" gradientUnits="userSpaceOnUse">
<stop stop-color="#414651"/>
<stop offset="1" stop-color="#B6B9C1"/>
</linearGradient>
<linearGradient id="paint1_linear_10334_21609" x1="321.805" y1="294.691" x2="218.163" y2="238.561" gradientUnits="userSpaceOnUse">
<stop stop-color="#414651"/>
<stop offset="1" stop-color="#B6B9C1"/>
</linearGradient>
<linearGradient id="paint2_linear_10334_21609" x1="173.105" y1="350.988" x2="169.895" y2="233.167" gradientUnits="userSpaceOnUse">
<stop stop-color="#414651"/>
<stop offset="1" stop-color="#B6B9C1"/>
</linearGradient>
<linearGradient id="paint3_linear_10334_21609" x1="50" y1="250.359" x2="150.431" y2="188.668" gradientUnits="userSpaceOnUse">
<stop stop-color="#414651"/>
<stop offset="1" stop-color="#B6B9C1"/>
</linearGradient>
<linearGradient id="paint4_linear_10334_21609" x1="75.5957" y1="93.4336" x2="179.237" y2="149.564" gradientUnits="userSpaceOnUse">
<stop stop-color="#414651"/>
<stop offset="1" stop-color="#B6B9C1"/>
</linearGradient>
<linearGradient id="paint5_linear_10334_21609" x1="224.295" y1="37.1367" x2="227.505" y2="154.958" gradientUnits="userSpaceOnUse">
<stop stop-color="#414651"/>
<stop offset="1" stop-color="#B6B9C1"/>
</linearGradient>
</defs>
</svg>
