<svg xmlns="http://www.w3.org/2000/svg" viewBox="0 0 1600 900" width="1600" height="900">
  <defs>
    <symbol id="logo" viewBox="0 0 51 47" preserveAspectRatio="none"><path d="M45.0607 19.9922C45.0607 23.1979 43.7819 26.2116 41.455 28.4802C39.0561 30.8185 35.9041 31.9899 32.7521 31.9899C30.2161 31.9899 27.6756 31.231 25.5327 29.7179C26.055 29.351 26.551 28.9385 27.0207 28.4802L29.343 26.2162C30.4036 26.7705 31.5761 27.0459 32.7521 27.0459C34.6036 27.0459 36.455 26.3579 37.8664 24.9819C39.231 23.6482 39.9841 21.8813 39.9841 19.9968H45.0607V19.9922Z" fill="currentColor"/><path d="M45.0595 19.99H39.9829C39.9829 18.1054 39.2309 16.3385 37.8663 15.0037C36.4549 13.6288 34.6035 12.9408 32.7509 12.9408C31.4378 12.9408 30.1258 13.2871 28.9703 13.9785C28.496 14.262 28.0469 14.6037 27.6366 15.0037L25.0789 17.4974L20.5886 21.8745C20.0926 22.358 19.4423 22.6003 18.792 22.6003C18.1418 22.6003 17.4915 22.358 16.9955 21.8745C16.0035 20.9077 16.0035 19.3397 16.9955 18.3763L21.7178 13.774L24.04 11.5111C24.5098 11.0517 25.0058 10.6391 25.528 10.2723C30.3395 6.87455 37.1177 7.28712 41.4503 11.5111C43.776 13.7785 45.0549 16.7923 45.0549 19.9945L45.0595 19.99Z" fill="currentColor"/><path d="M34.0594 21.6101L29.3383 26.2124L27.016 28.4752C26.5451 28.9347 26.0491 29.3472 25.5269 29.7141C23.3851 31.2272 20.8446 31.9861 18.3086 31.9861C15.1566 31.9861 12.0046 30.8147 9.60571 28.4752C7.27886 26.2078 6 23.1941 6 19.9884H11.0766C11.0766 21.8718 11.8286 23.6444 13.1931 24.9735C15.6011 27.321 19.3006 27.6627 22.0891 25.9998C22.5634 25.7164 23.0126 25.3747 23.4274 24.9735L25.9806 22.4855L30.4674 18.1118H30.4709C31.4629 17.1404 33.072 17.1404 34.0594 18.1084C35.0514 19.0752 35.0514 20.6421 34.0594 21.6055V21.6101Z" fill="currentColor"/><path d="M25.5269 10.2724C25.0057 10.6392 24.5097 11.0518 24.0389 11.5101L21.7166 13.7741C20.656 13.2198 19.48 12.9444 18.3086 12.9444C16.456 12.9444 14.6046 13.6324 13.1931 15.0084C11.8286 16.3421 11.0766 18.1101 11.0766 19.9946H6C6 16.7878 7.27886 13.7741 9.60571 11.5101C13.9371 7.28722 20.72 6.87465 25.5314 10.2724H25.5269Z" fill="currentColor"/></symbol>
  </defs>
  <rect width="1600" height="900" fill="#F1EFE8"/>
  <g color="rgb(60, 56, 50)" opacity="0.1">
    <use href="#logo" width="16.52" height="16.52" transform="translate(810.00 450.00) rotate(90.00) translate(-8.26 -8.26)"/>
    <use href="#logo" width="16.81" height="16.81" transform="translate(798.74 465.38) rotate(184.67) translate(-8.40 -8.40)"/>
    <use href="#logo" width="17.00" height="17.00" transform="translate(782.43 457.43) rotate(247.07) translate(-8.50 -8.50)"/>
    <use href="#logo" width="17.16" height="17.16" transform="translate(780.52 439.59) rotate(298.13) translate(-8.58 -8.58)"/>
    <use href="#logo" width="17.29" height="17.29" transform="translate(792.62 426.39) rotate(342.64) translate(-8.65 -8.65)"/>
    <use href="#logo" width="17.42" height="17.42" transform="translate(810.47 424.96) rotate(382.69) translate(-8.71 -8.71)"/>
    <use href="#logo" width="17.54" height="17.54" transform="translate(825.29 435.08) rotate(419.46) translate(-8.77 -8.77)"/>
    <use href="#logo" width="17.64" height="17.64" transform="translate(831.39 452.02) rotate(453.67) translate(-8.82 -8.82)"/>
    <use href="#logo" width="17.75" height="17.75" transform="translate(827.10 469.56) rotate(485.82) translate(-8.87 -8.87)"/>
    <use href="#logo" width="17.85" height="17.85" transform="translate(814.22 482.30) rotate(516.25) translate(-8.92 -8.92)"/>
    <use href="#logo" width="17.94" height="17.94" transform="translate(796.63 486.94) rotate(545.22) translate(-8.97 -8.97)"/>
    <use href="#logo" width="18.03" height="18.03" transform="translate(778.90 482.58) rotate(572.93) translate(-9.01 -9.01)"/>
    <use href="#logo" width="18.12" height="18.12" transform="translate(765.10 470.52) rotate(599.55) translate(-9.06 -9.06)"/>
    <use href="#logo" width="18.20" height="18.20" transform="translate(758.05 453.53) rotate(625.19) translate(-9.10 -9.10)"/>
    <use href="#logo" width="18.28" height="18.28" transform="translate(758.96 435.10) rotate(649.96) translate(-9.14 -9.14)"/>
    <use href="#logo" width="18.36" height="18.36" transform="translate(767.47 418.64) rotate(673.95) translate(-9.18 -9.18)"/>
    <use href="#logo" width="18.44" height="18.44" transform="translate(781.94 406.97) rotate(697.24) translate(-9.22 -9.22)"/>
    <use href="#logo" width="18.52" height="18.52" transform="translate(799.90 401.88) rotate(719.88) translate(-9.26 -9.26)"/>
    <use href="#logo" width="18.59" height="18.59" transform="translate(818.50 404.05) rotate(741.93) translate(-9.30 -9.30)"/>
    <use href="#logo" width="18.66" height="18.66" transform="translate(835.01 413.02) rotate(763.43) translate(-9.33 -9.33)"/>
    <use href="#logo" width="18.73" height="18.73" transform="translate(847.16 427.43) rotate(784.43) translate(-9.37 -9.37)"/>
    <use href="#logo" width="18.80" height="18.80" transform="translate(853.41 445.29) rotate(804.96) translate(-9.40 -9.40)"/>
    <use href="#logo" width="18.87" height="18.87" transform="translate(853.05 464.26) rotate(825.05) translate(-9.44 -9.44)"/>
    <use href="#logo" width="18.94" height="18.94" transform="translate(846.20 482.04) rotate(844.74) translate(-9.47 -9.47)"/>
    <use href="#logo" width="19.01" height="19.01" transform="translate(833.76 496.53) rotate(864.04) translate(-9.50 -9.50)"/>
    <use href="#logo" width="19.07" height="19.07" transform="translate(817.19 506.17) rotate(882.98) translate(-9.54 -9.54)"/>
    <use href="#logo" width="19.14" height="19.14" transform="translate(798.34 509.95) rotate(901.58) translate(-9.57 -9.57)"/>
    <use href="#logo" width="19.20" height="19.20" transform="translate(779.21 507.55) rotate(919.86) translate(-9.60 -9.60)"/>
    <use href="#logo" width="19.26" height="19.26" transform="translate(761.73 499.27) rotate(937.84) translate(-9.63 -9.63)"/>
    <use href="#logo" width="19.32" height="19.32" transform="translate(747.59 485.97) rotate(955.53) translate(-9.66 -9.66)"/>
    <use href="#logo" width="19.39" height="19.39" transform="translate(738.11 468.98) rotate(972.95) translate(-9.69 -9.69)"/>
    <use href="#logo" width="19.45" height="19.45" transform="translate(734.11 449.88) rotate(990.11) translate(-9.72 -9.72)"/>
    <use href="#logo" width="19.51" height="19.51" transform="translate(735.90 430.38) rotate(1007.02) translate(-9.75 -9.75)"/>
    <use href="#logo" width="19.56" height="19.56" transform="translate(743.28 412.19) rotate(1023.69) translate(-9.78 -9.78)"/>
    <use href="#logo" width="19.62" height="19.62" transform="translate(755.59 396.82) rotate(1040.13) translate(-9.81 -9.81)"/>
    <use href="#logo" width="19.68" height="19.68" transform="translate(771.78 385.52) rotate(1056.36) translate(-9.84 -9.84)"/>
    <use href="#logo" width="19.74" height="19.74" transform="translate(790.52 379.15) rotate(1072.38) translate(-9.87 -9.87)"/>
    <use href="#logo" width="19.79" height="19.79" transform="translate(810.35 378.18) rotate(1088.20) translate(-9.90 -9.90)"/>
    <use href="#logo" width="19.85" height="19.85" transform="translate(829.76 382.64) rotate(1103.83) translate(-9.93 -9.93)"/>
    <use href="#logo" width="19.91" height="19.91" transform="translate(847.29 392.17) rotate(1119.28) translate(-9.95 -9.95)"/>
    <use href="#logo" width="19.96" height="19.96" transform="translate(861.71 406.06) rotate(1134.55) translate(-9.98 -9.98)"/>
    <use href="#logo" width="20.02" height="20.02" transform="translate(872.01 423.28) rotate(1149.64) translate(-10.01 -10.01)"/>
    <use href="#logo" width="20.07" height="20.07" transform="translate(877.50 442.64) rotate(1164.57) translate(-10.04 -10.04)"/>
    <use href="#logo" width="20.12" height="20.12" transform="translate(877.83 462.81) rotate(1179.35) translate(-10.06 -10.06)"/>
    <use href="#logo" width="20.18" height="20.18" transform="translate(873.01 482.45) rotate(1193.97) translate(-10.09 -10.09)"/>
    <use href="#logo" width="20.23" height="20.23" transform="translate(863.38 500.30) rotate(1208.44) translate(-10.12 -10.12)"/>
    <use href="#logo" width="20.28" height="20.28" transform="translate(849.57 515.22) rotate(1222.76) translate(-10.14 -10.14)"/>
    <use href="#logo" width="20.34" height="20.34" transform="translate(832.46 526.30) rotate(1236.95) translate(-10.17 -10.17)"/>
    <use href="#logo" width="20.39" height="20.39" transform="translate(813.12 532.87) rotate(1251.00) translate(-10.19 -10.19)"/>
    <use href="#logo" width="20.44" height="20.44" transform="translate(792.71 534.58) rotate(1264.93) translate(-10.22 -10.22)"/>
    <use href="#logo" width="20.49" height="20.49" transform="translate(772.44 531.33) rotate(1278.72) translate(-10.25 -10.25)"/>
    <use href="#logo" width="20.54" height="20.54" transform="translate(753.48 523.33) rotate(1292.39) translate(-10.27 -10.27)"/>
    <use href="#logo" width="20.59" height="20.59" transform="translate(736.89 511.06) rotate(1305.94) translate(-10.30 -10.30)"/>
    <use href="#logo" width="20.64" height="20.64" transform="translate(723.61 495.21) rotate(1319.38) translate(-10.32 -10.32)"/>
    <use href="#logo" width="20.69" height="20.69" transform="translate(714.33 476.68) rotate(1332.70) translate(-10.35 -10.35)"/>
    <use href="#logo" width="20.74" height="20.74" transform="translate(709.55 456.46) rotate(1345.92) translate(-10.37 -10.37)"/>
    <use href="#logo" width="20.79" height="20.79" transform="translate(709.51 435.63) rotate(1359.02) translate(-10.40 -10.40)"/>
    <use href="#logo" width="20.84" height="20.84" transform="translate(714.20 415.29) rotate(1372.03) translate(-10.42 -10.42)"/>
    <use href="#logo" width="20.89" height="20.89" transform="translate(723.35 396.47) rotate(1384.93) translate(-10.44 -10.44)"/>
    <use href="#logo" width="20.94" height="20.94" transform="translate(736.49 380.13) rotate(1397.73) translate(-10.47 -10.47)"/>
    <use href="#logo" width="20.99" height="20.99" transform="translate(752.95 367.07) rotate(1410.43) translate(-10.49 -10.49)"/>
    <use href="#logo" width="21.03" height="21.03" transform="translate(771.93 357.92) rotate(1423.04) translate(-10.52 -10.52)"/>
    <use href="#logo" width="21.08" height="21.08" transform="translate(792.48 353.11) rotate(1435.56) translate(-10.54 -10.54)"/>
    <use href="#logo" width="21.13" height="21.13" transform="translate(813.64 352.87) rotate(1447.99) translate(-10.56 -10.56)"/>
    <use href="#logo" width="21.18" height="21.18" transform="translate(834.40 357.18) rotate(1460.34) translate(-10.59 -10.59)"/>
    <use href="#logo" width="21.22" height="21.22" transform="translate(853.81 365.84) rotate(1472.59) translate(-10.61 -10.61)"/>
    <use href="#logo" width="21.27" height="21.27" transform="translate(870.98 378.44) rotate(1484.77) translate(-10.64 -10.64)"/>
    <use href="#logo" width="21.32" height="21.32" transform="translate(885.14 394.41) rotate(1496.86) translate(-10.66 -10.66)"/>
    <use href="#logo" width="21.36" height="21.36" transform="translate(895.68 413.02) rotate(1508.87) translate(-10.68 -10.68)"/>
    <use href="#logo" width="21.41" height="21.41" transform="translate(902.13 433.47) rotate(1520.80) translate(-10.71 -10.71)"/>
    <use href="#logo" width="21.46" height="21.46" transform="translate(904.23 454.84) rotate(1532.66) translate(-10.73 -10.73)"/>
    <use href="#logo" width="21.50" height="21.50" transform="translate(901.89 476.24) rotate(1544.44) translate(-10.75 -10.75)"/>
    <use href="#logo" width="21.55" height="21.55" transform="translate(895.23 496.76) rotate(1556.15) translate(-10.77 -10.77)"/>
    <use href="#logo" width="21.59" height="21.59" transform="translate(884.53 515.54) rotate(1567.79) translate(-10.80 -10.80)"/>
    <use href="#logo" width="21.64" height="21.64" transform="translate(870.24 531.82) rotate(1579.36) translate(-10.82 -10.82)"/>
    <use href="#logo" width="21.68" height="21.68" transform="translate(852.94 544.93) rotate(1590.85) translate(-10.84 -10.84)"/>
    <use href="#logo" width="21.73" height="21.73" transform="translate(833.34 554.36) rotate(1602.28) translate(-10.86 -10.86)"/>
    <use href="#logo" width="21.77" height="21.77" transform="translate(812.21 559.73) rotate(1613.65) translate(-10.89 -10.89)"/>
    <use href="#logo" width="21.82" height="21.82" transform="translate(790.40 560.85) rotate(1624.95) translate(-10.91 -10.91)"/>
    <use href="#logo" width="21.86" height="21.86" transform="translate(768.75 557.67) rotate(1636.18) translate(-10.93 -10.93)"/>
    <use href="#logo" width="21.91" height="21.91" transform="translate(748.09 550.33) rotate(1647.36) translate(-10.95 -10.95)"/>
    <use href="#logo" width="21.95" height="21.95" transform="translate(729.20 539.11) rotate(1658.47) translate(-10.98 -10.98)"/>
    <use href="#logo" width="22.00" height="22.00" transform="translate(712.79 524.43) rotate(1669.52) translate(-11.00 -11.00)"/>
    <use href="#logo" width="22.04" height="22.04" transform="translate(699.47 506.85) rotate(1680.51) translate(-11.02 -11.02)"/>
    <use href="#logo" width="22.08" height="22.08" transform="translate(689.72 487.02) rotate(1691.44) translate(-11.04 -11.04)"/>
    <use href="#logo" width="22.13" height="22.13" transform="translate(683.89 465.66) rotate(1702.32) translate(-11.06 -11.06)"/>
    <use href="#logo" width="22.17" height="22.17" transform="translate(682.18 443.53) rotate(1713.14) translate(-11.09 -11.09)"/>
    <use href="#logo" width="22.21" height="22.21" transform="translate(684.66 421.44) rotate(1723.91) translate(-11.11 -11.11)"/>
    <use href="#logo" width="22.26" height="22.26" transform="translate(691.23 400.16) rotate(1734.62) translate(-11.13 -11.13)"/>
    <use href="#logo" width="22.30" height="22.30" transform="translate(701.65 380.42) rotate(1745.28) translate(-11.15 -11.15)"/>
    <use href="#logo" width="22.34" height="22.34" transform="translate(715.56 362.92) rotate(1755.88) translate(-11.17 -11.17)"/>
    <use href="#logo" width="22.39" height="22.39" transform="translate(732.49 348.25) rotate(1766.44) translate(-11.19 -11.19)"/>
    <use href="#logo" width="22.43" height="22.43" transform="translate(751.85 336.89) rotate(1776.94) translate(-11.21 -11.21)"/>
    <use href="#logo" width="22.47" height="22.47" transform="translate(772.99 329.24) rotate(1787.39) translate(-11.24 -11.24)"/>
    <use href="#logo" width="22.51" height="22.51" transform="translate(795.21 325.54) rotate(1797.80) translate(-11.26 -11.26)"/>
    <use href="#logo" width="22.56" height="22.56" transform="translate(817.78 325.90) rotate(1808.15) translate(-11.28 -11.28)"/>
    <use href="#logo" width="22.60" height="22.60" transform="translate(839.96 330.32) rotate(1818.46) translate(-11.30 -11.30)"/>
    <use href="#logo" width="22.64" height="22.64" transform="translate(861.03 338.65) rotate(1828.72) translate(-11.32 -11.32)"/>
    <use href="#logo" width="22.68" height="22.68" transform="translate(880.31 350.61) rotate(1838.94) translate(-11.34 -11.34)"/>
    <use href="#logo" width="22.72" height="22.72" transform="translate(897.21 365.83) rotate(1849.11) translate(-11.36 -11.36)"/>
    <use href="#logo" width="22.77" height="22.77" transform="translate(911.18 383.82) rotate(1859.24) translate(-11.38 -11.38)"/>
    <use href="#logo" width="22.81" height="22.81" transform="translate(921.79 404.03) rotate(1869.32) translate(-11.40 -11.40)"/>
    <use href="#logo" width="22.85" height="22.85" transform="translate(928.72 425.81) rotate(1879.36) translate(-11.42 -11.42)"/>
    <use href="#logo" width="22.89" height="22.89" transform="translate(931.76 448.51) rotate(1889.35) translate(-11.45 -11.45)"/>
    <use href="#logo" width="22.93" height="22.93" transform="translate(930.81 471.44) rotate(1899.31) translate(-11.47 -11.47)"/>
    <use href="#logo" width="22.97" height="22.97" transform="translate(925.91 493.89) rotate(1909.22) translate(-11.49 -11.49)"/>
    <use href="#logo" width="23.01" height="23.01" transform="translate(917.21 515.21) rotate(1919.09) translate(-11.51 -11.51)"/>
    <use href="#logo" width="23.06" height="23.06" transform="translate(904.97 534.76) rotate(1928.92) translate(-11.53 -11.53)"/>
    <use href="#logo" width="23.10" height="23.10" transform="translate(889.54 551.97) rotate(1938.71) translate(-11.55 -11.55)"/>
    <use href="#logo" width="23.14" height="23.14" transform="translate(871.39 566.33) rotate(1948.46) translate(-11.57 -11.57)"/>
    <use href="#logo" width="23.18" height="23.18" transform="translate(851.03 577.43) rotate(1958.18) translate(-11.59 -11.59)"/>
    <use href="#logo" width="23.22" height="23.22" transform="translate(829.05 584.95) rotate(1967.85) translate(-11.61 -11.61)"/>
    <use href="#logo" width="23.26" height="23.26" transform="translate(806.08 588.69) rotate(1977.49) translate(-11.63 -11.63)"/>
    <use href="#logo" width="23.30" height="23.30" transform="translate(782.77 588.53) rotate(1987.09) translate(-11.65 -11.65)"/>
    <use href="#logo" width="23.34" height="23.34" transform="translate(759.78 584.48) rotate(1996.65) translate(-11.67 -11.67)"/>
    <use href="#logo" width="23.38" height="23.38" transform="translate(737.73 576.66) rotate(2006.18) translate(-11.69 -11.69)"/>
    <use href="#logo" width="23.42" height="23.42" transform="translate(717.25 565.29) rotate(2015.67) translate(-11.71 -11.71)"/>
    <use href="#logo" width="23.46" height="23.46" transform="translate(698.89 550.67) rotate(2025.13) translate(-11.73 -11.73)"/>
    <use href="#logo" width="23.50" height="23.50" transform="translate(683.15 533.20) rotate(2034.55) translate(-11.75 -11.75)"/>
    <use href="#logo" width="23.54" height="23.54" transform="translate(670.45 513.37) rotate(2043.93) translate(-11.77 -11.77)"/>
    <use href="#logo" width="23.58" height="23.58" transform="translate(661.14 491.69) rotate(2053.29) translate(-11.79 -11.79)"/>
    <use href="#logo" width="23.62" height="23.62" transform="translate(655.47 468.75) rotate(2062.61) translate(-11.81 -11.81)"/>
    <use href="#logo" width="23.66" height="23.66" transform="translate(653.58 445.16) rotate(2071.89) translate(-11.83 -11.83)"/>
    <use href="#logo" width="23.70" height="23.70" transform="translate(655.51 421.53) rotate(2081.15) translate(-11.85 -11.85)"/>
    <use href="#logo" width="23.74" height="23.74" transform="translate(661.23 398.48) rotate(2090.37) translate(-11.87 -11.87)"/>
    <use href="#logo" width="23.78" height="23.78" transform="translate(670.58 376.61) rotate(2099.56) translate(-11.89 -11.89)"/>
    <use href="#logo" width="23.82" height="23.82" transform="translate(683.32 356.47) rotate(2108.72) translate(-11.91 -11.91)"/>
    <use href="#logo" width="23.86" height="23.86" transform="translate(699.13 338.59) rotate(2117.84) translate(-11.93 -11.93)"/>
    <use href="#logo" width="23.90" height="23.90" transform="translate(717.60 323.41) rotate(2126.94) translate(-11.95 -11.95)"/>
    <use href="#logo" width="23.94" height="23.94" transform="translate(738.27 311.32) rotate(2136.00) translate(-11.97 -11.97)"/>
    <use href="#logo" width="23.98" height="23.98" transform="translate(760.62 302.62) rotate(2145.04) translate(-11.99 -11.99)"/>
    <use href="#logo" width="24.02" height="24.02" transform="translate(784.09 297.53) rotate(2154.04) translate(-12.01 -12.01)"/>
    <use href="#logo" width="24.06" height="24.06" transform="translate(808.12 296.17) rotate(2163.02) translate(-12.03 -12.03)"/>
    <use href="#logo" width="24.09" height="24.09" transform="translate(832.10 298.57) rotate(2171.97) translate(-12.05 -12.05)"/>
    <use href="#logo" width="24.13" height="24.13" transform="translate(855.45 304.68) rotate(2180.89) translate(-12.07 -12.07)"/>
    <use href="#logo" width="24.17" height="24.17" transform="translate(877.61 314.35) rotate(2189.78) translate(-12.09 -12.09)"/>
    <use href="#logo" width="24.21" height="24.21" transform="translate(898.05 327.34) rotate(2198.64) translate(-12.11 -12.11)"/>
    <use href="#logo" width="24.25" height="24.25" transform="translate(916.27 343.36) rotate(2207.47) translate(-12.13 -12.13)"/>
    <use href="#logo" width="24.29" height="24.29" transform="translate(931.84 362.00) rotate(2216.28) translate(-12.14 -12.14)"/>
    <use href="#logo" width="24.33" height="24.33" transform="translate(944.40 382.85) rotate(2225.06) translate(-12.16 -12.16)"/>
    <use href="#logo" width="24.37" height="24.37" transform="translate(953.65 405.40) rotate(2233.81) translate(-12.18 -12.18)"/>
    <use href="#logo" width="24.41" height="24.41" transform="translate(959.37 429.13) rotate(2242.54) translate(-12.20 -12.20)"/>
    <use href="#logo" width="24.44" height="24.44" transform="translate(961.43 453.49) rotate(2251.24) translate(-12.22 -12.22)"/>
    <use href="#logo" width="24.48" height="24.48" transform="translate(959.78 477.92) rotate(2259.91) translate(-12.24 -12.24)"/>
    <use href="#logo" width="24.52" height="24.52" transform="translate(954.47 501.86) rotate(2268.56) translate(-12.26 -12.26)"/>
    <use href="#logo" width="24.56" height="24.56" transform="translate(945.60 524.77) rotate(2277.18) translate(-12.28 -12.28)"/>
    <use href="#logo" width="24.60" height="24.60" transform="translate(933.38 546.12) rotate(2285.78) translate(-12.30 -12.30)"/>
    <use href="#logo" width="24.64" height="24.64" transform="translate(918.09 565.44) rotate(2294.35) translate(-12.32 -12.32)"/>
    <use href="#logo" width="24.67" height="24.67" transform="translate(900.06 582.29) rotate(2302.90) translate(-12.34 -12.34)"/>
    <use href="#logo" width="24.71" height="24.71" transform="translate(879.69 596.30) rotate(2311.42) translate(-12.36 -12.36)"/>
    <use href="#logo" width="24.75" height="24.75" transform="translate(857.45 607.16) rotate(2319.92) translate(-12.38 -12.38)"/>
    <use href="#logo" width="24.79" height="24.79" transform="translate(833.81 614.62) rotate(2328.40) translate(-12.39 -12.39)"/>
    <use href="#logo" width="24.83" height="24.83" transform="translate(809.28 618.53) rotate(2336.85) translate(-12.41 -12.41)"/>
    <use href="#logo" width="24.86" height="24.86" transform="translate(784.42 618.79) rotate(2345.27) translate(-12.43 -12.43)"/>
    <use href="#logo" width="24.90" height="24.90" transform="translate(759.74 615.41) rotate(2353.68) translate(-12.45 -12.45)"/>
    <use href="#logo" width="24.94" height="24.94" transform="translate(735.79 608.45) rotate(2362.06) translate(-12.47 -12.47)"/>
    <use href="#logo" width="24.98" height="24.98" transform="translate(713.07 598.05) rotate(2370.42) translate(-12.49 -12.49)"/>
    <use href="#logo" width="25.02" height="25.02" transform="translate(692.08 584.45) rotate(2378.75) translate(-12.51 -12.51)"/>
    <use href="#logo" width="25.05" height="25.05" transform="translate(673.24 567.93) rotate(2387.07) translate(-12.53 -12.53)"/>
    <use href="#logo" width="25.09" height="25.09" transform="translate(656.97 548.82) rotate(2395.36) translate(-12.55 -12.55)"/>
    <use href="#logo" width="25.13" height="25.13" transform="translate(643.59 527.55) rotate(2403.63) translate(-12.56 -12.56)"/>
    <use href="#logo" width="25.17" height="25.17" transform="translate(633.40 504.53) rotate(2411.88) translate(-12.58 -12.58)"/>
    <use href="#logo" width="25.20" height="25.20" transform="translate(626.61 480.26) rotate(2420.10) translate(-12.60 -12.60)"/>
    <use href="#logo" width="25.24" height="25.24" transform="translate(623.35 455.22) rotate(2428.31) translate(-12.62 -12.62)"/>
    <use href="#logo" width="25.28" height="25.28" transform="translate(623.69 429.94) rotate(2436.49) translate(-12.64 -12.64)"/>
    <use href="#logo" width="25.32" height="25.32" transform="translate(627.63 404.93) rotate(2444.65) translate(-12.66 -12.66)"/>
    <use href="#logo" width="25.35" height="25.35" transform="translate(635.09 380.70) rotate(2452.79) translate(-12.68 -12.68)"/>
    <use href="#logo" width="25.39" height="25.39" transform="translate(645.92 357.73) rotate(2460.91) translate(-12.70 -12.70)"/>
    <use href="#logo" width="25.43" height="25.43" transform="translate(659.90 336.49) rotate(2469.02) translate(-12.71 -12.71)"/>
    <use href="#logo" width="25.47" height="25.47" transform="translate(676.77 317.40) rotate(2477.10) translate(-12.73 -12.73)"/>
    <use href="#logo" width="25.50" height="25.50" transform="translate(696.17 300.85) rotate(2485.16) translate(-12.75 -12.75)"/>
    <use href="#logo" width="25.54" height="25.54" transform="translate(717.73 287.15) rotate(2493.20) translate(-12.77 -12.77)"/>
    <use href="#logo" width="25.58" height="25.58" transform="translate(741.03 276.59) rotate(2501.22) translate(-12.79 -12.79)"/>
    <use href="#logo" width="25.62" height="25.62" transform="translate(765.61 269.38) rotate(2509.22) translate(-12.81 -12.81)"/>
    <use href="#logo" width="25.65" height="25.65" transform="translate(790.99 265.64) rotate(2517.20) translate(-12.83 -12.83)"/>
    <use href="#logo" width="25.69" height="25.69" transform="translate(816.68 265.46) rotate(2525.16) translate(-12.84 -12.84)"/>
    <use href="#logo" width="25.73" height="25.73" transform="translate(842.18 268.85) rotate(2533.11) translate(-12.86 -12.86)"/>
    <use href="#logo" width="25.76" height="25.76" transform="translate(867.01 275.74) rotate(2541.03) translate(-12.88 -12.88)"/>
    <use href="#logo" width="25.80" height="25.80" transform="translate(890.69 285.99) rotate(2548.94) translate(-12.90 -12.90)"/>
    <use href="#logo" width="25.84" height="25.84" transform="translate(912.76 299.42) rotate(2556.83) translate(-12.92 -12.92)"/>
    <use href="#logo" width="25.87" height="25.87" transform="translate(932.81 315.78) rotate(2564.70) translate(-12.94 -12.94)"/>
    <use href="#logo" width="25.91" height="25.91" transform="translate(950.46 334.75) rotate(2572.55) translate(-12.96 -12.96)"/>
    <use href="#logo" width="25.95" height="25.95" transform="translate(965.38 355.98) rotate(2580.38) translate(-12.97 -12.97)"/>
    <use href="#logo" width="25.99" height="25.99" transform="translate(977.28 379.08) rotate(2588.20) translate(-12.99 -12.99)"/>
    <use href="#logo" width="26.02" height="26.02" transform="translate(985.94 403.62) rotate(2595.99) translate(-13.01 -13.01)"/>
    <use href="#logo" width="26.06" height="26.06" transform="translate(991.21 429.14) rotate(2603.77) translate(-13.03 -13.03)"/>
    <use href="#logo" width="26.10" height="26.10" transform="translate(992.98 455.17) rotate(2611.54) translate(-13.05 -13.05)"/>
    <use href="#logo" width="26.13" height="26.13" transform="translate(991.21 481.25) rotate(2619.28) translate(-13.07 -13.07)"/>
    <use href="#logo" width="26.17" height="26.17" transform="translate(985.94 506.88) rotate(2627.01) translate(-13.08 -13.08)"/>
    <use href="#logo" width="26.21" height="26.21" transform="translate(977.27 531.61) rotate(2634.72) translate(-13.10 -13.10)"/>
    <use href="#logo" width="26.24" height="26.24" transform="translate(965.34 554.98) rotate(2642.41) translate(-13.12 -13.12)"/>
    <use href="#logo" width="26.28" height="26.28" transform="translate(950.37 576.58) rotate(2650.09) translate(-13.14 -13.14)"/>
    <use href="#logo" width="26.32" height="26.32" transform="translate(932.62 596.01) rotate(2657.75) translate(-13.16 -13.16)"/>
    <use href="#logo" width="26.35" height="26.35" transform="translate(912.42 612.93) rotate(2665.39) translate(-13.18 -13.18)"/>
    <use href="#logo" width="26.39" height="26.39" transform="translate(890.12 627.03) rotate(2673.02) translate(-13.19 -13.19)"/>
    <use href="#logo" width="26.42" height="26.42" transform="translate(866.10 638.06) rotate(2680.63) translate(-13.21 -13.21)"/>
    <use href="#logo" width="26.46" height="26.46" transform="translate(840.81 645.83) rotate(2688.23) translate(-13.23 -13.23)"/>
    <use href="#logo" width="26.50" height="26.50" transform="translate(814.68 650.20) rotate(2695.81) translate(-13.25 -13.25)"/>
    <use href="#logo" width="26.53" height="26.53" transform="translate(788.16 651.08) rotate(2703.37) translate(-13.27 -13.27)"/>
    <use href="#logo" width="26.57" height="26.57" transform="translate(761.72 648.47) rotate(2710.92) translate(-13.29 -13.29)"/>
    <use href="#logo" width="26.61" height="26.61" transform="translate(735.81 642.40) rotate(2718.45) translate(-13.30 -13.30)"/>
    <use href="#logo" width="26.64" height="26.64" transform="translate(710.89 632.97) rotate(2725.97) translate(-13.32 -13.32)"/>
    <use href="#logo" width="26.68" height="26.68" transform="translate(687.39 620.35) rotate(2733.47) translate(-13.34 -13.34)"/>
    <use href="#logo" width="26.72" height="26.72" transform="translate(665.70 604.76) rotate(2740.95) translate(-13.36 -13.36)"/>
    <use href="#logo" width="26.75" height="26.75" transform="translate(646.20 586.44) rotate(2748.42) translate(-13.38 -13.38)"/>
    <use href="#logo" width="26.79" height="26.79" transform="translate(629.23 565.72) rotate(2755.88) translate(-13.39 -13.39)"/>
    <use href="#logo" width="26.82" height="26.82" transform="translate(615.06 542.95) rotate(2763.32) translate(-13.41 -13.41)"/>
    <use href="#logo" width="26.86" height="26.86" transform="translate(603.95 518.49) rotate(2770.74) translate(-13.43 -13.43)"/>
    <use href="#logo" width="26.90" height="26.90" transform="translate(596.07 492.78) rotate(2778.15) translate(-13.45 -13.45)"/>
    <use href="#logo" width="26.93" height="26.93" transform="translate(591.58 466.22) rotate(2785.55) translate(-13.47 -13.47)"/>
    <use href="#logo" width="26.97" height="26.97" transform="translate(590.53 439.28) rotate(2792.93) translate(-13.48 -13.48)"/>
    <use href="#logo" width="27.00" height="27.00" transform="translate(592.95 412.38) rotate(2800.30) translate(-13.50 -13.50)"/>
    <use href="#logo" width="27.04" height="27.04" transform="translate(598.81 385.99) rotate(2807.65) translate(-13.52 -13.52)"/>
    <use href="#logo" width="27.08" height="27.08" transform="translate(608.01 360.52) rotate(2814.99) translate(-13.54 -13.54)"/>
    <use href="#logo" width="27.11" height="27.11" transform="translate(620.40 336.41) rotate(2822.31) translate(-13.56 -13.56)"/>
    <use href="#logo" width="27.15" height="27.15" transform="translate(635.79 314.04) rotate(2829.62) translate(-13.57 -13.57)"/>
    <use href="#logo" width="27.18" height="27.18" transform="translate(653.91 293.79) rotate(2836.92) translate(-13.59 -13.59)"/>
    <use href="#logo" width="27.22" height="27.22" transform="translate(674.49 275.97) rotate(2844.20) translate(-13.61 -13.61)"/>
    <use href="#logo" width="27.26" height="27.26" transform="translate(697.19 260.89) rotate(2851.47) translate(-13.63 -13.63)"/>
    <use href="#logo" width="27.29" height="27.29" transform="translate(721.65 248.78) rotate(2858.73) translate(-13.65 -13.65)"/>
    <use href="#logo" width="27.33" height="27.33" transform="translate(747.47 239.84) rotate(2865.97) translate(-13.66 -13.66)"/>
    <use href="#logo" width="27.36" height="27.36" transform="translate(774.25 234.22) rotate(2873.20) translate(-13.68 -13.68)"/>
    <use href="#logo" width="27.40" height="27.40" transform="translate(801.56 232.01) rotate(2880.41) translate(-13.70 -13.70)"/>
    <use href="#logo" width="27.44" height="27.44" transform="translate(828.97 233.24) rotate(2887.61) translate(-13.72 -13.72)"/>
    <use href="#logo" width="27.47" height="27.47" transform="translate(856.04 237.91) rotate(2894.80) translate(-13.74 -13.74)"/>
    <use href="#logo" width="27.51" height="27.51" transform="translate(882.34 245.94) rotate(2901.98) translate(-13.75 -13.75)"/>
    <use href="#logo" width="27.54" height="27.54" transform="translate(907.48 257.20) rotate(2909.14) translate(-13.77 -13.77)"/>
    <use href="#logo" width="27.58" height="27.58" transform="translate(931.04 271.52) rotate(2916.29) translate(-13.79 -13.79)"/>
    <use href="#logo" width="27.61" height="27.61" transform="translate(952.67 288.69) rotate(2923.42) translate(-13.81 -13.81)"/>
    <use href="#logo" width="27.65" height="27.65" transform="translate(972.02 308.43) rotate(2930.55) translate(-13.83 -13.83)"/>
    <use href="#logo" width="27.69" height="27.69" transform="translate(988.80 330.45) rotate(2937.66) translate(-13.84 -13.84)"/>
    <use href="#logo" width="27.72" height="27.72" transform="translate(1002.75 354.41) rotate(2944.76) translate(-13.86 -13.86)"/>
    <use href="#logo" width="27.76" height="27.76" transform="translate(1013.64 379.94) rotate(2951.84) translate(-13.88 -13.88)"/>
    <use href="#logo" width="27.79" height="27.79" transform="translate(1021.31 406.65) rotate(2958.92) translate(-13.90 -13.90)"/>
    <use href="#logo" width="27.83" height="27.83" transform="translate(1025.64 434.13) rotate(2965.98) translate(-13.91 -13.91)"/>
    <use href="#logo" width="27.86" height="27.86" transform="translate(1026.56 461.98) rotate(2973.03) translate(-13.93 -13.93)"/>
    <use href="#logo" width="27.90" height="27.90" transform="translate(1024.06 489.76) rotate(2980.06) translate(-13.95 -13.95)"/>
    <use href="#logo" width="27.94" height="27.94" transform="translate(1018.16 517.07) rotate(2987.09) translate(-13.97 -13.97)"/>
    <use href="#logo" width="27.97" height="27.97" transform="translate(1008.96 543.48) rotate(2994.10) translate(-13.99 -13.99)"/>
    <use href="#logo" width="28.01" height="28.01" transform="translate(996.59 568.60) rotate(3001.10) translate(-14.00 -14.00)"/>
    <use href="#logo" width="28.04" height="28.04" transform="translate(981.24 592.06) rotate(3008.09) translate(-14.02 -14.02)"/>
    <use href="#logo" width="28.08" height="28.08" transform="translate(963.12 613.51) rotate(3015.07) translate(-14.04 -14.04)"/>
    <use href="#logo" width="28.11" height="28.11" transform="translate(942.50 632.62) rotate(3022.03) translate(-14.06 -14.06)"/>
    <use href="#logo" width="28.15" height="28.15" transform="translate(919.69 649.11) rotate(3028.99) translate(-14.07 -14.07)"/>
    <use href="#logo" width="28.18" height="28.18" transform="translate(895.03 662.74) rotate(3035.93) translate(-14.09 -14.09)"/>
    <use href="#logo" width="28.22" height="28.22" transform="translate(868.86 673.30) rotate(3042.86) translate(-14.11 -14.11)"/>
    <use href="#logo" width="28.26" height="28.26" transform="translate(841.58 680.63) rotate(3049.78) translate(-14.13 -14.13)"/>
    <use href="#logo" width="28.29" height="28.29" transform="translate(813.58 684.64) rotate(3056.69) translate(-14.15 -14.15)"/>
    <use href="#logo" width="28.33" height="28.33" transform="translate(785.26 685.24) rotate(3063.59) translate(-14.16 -14.16)"/>
    <use href="#logo" width="28.36" height="28.36" transform="translate(757.04 682.45) rotate(3070.47) translate(-14.18 -14.18)"/>
    <use href="#logo" width="28.40" height="28.40" transform="translate(729.33 676.28) rotate(3077.35) translate(-14.20 -14.20)"/>
    <use href="#logo" width="28.43" height="28.43" transform="translate(702.51 666.83) rotate(3084.21) translate(-14.22 -14.22)"/>
    <use href="#logo" width="28.47" height="28.47" transform="translate(676.99 654.23) rotate(3091.06) translate(-14.23 -14.23)"/>
    <use href="#logo" width="28.50" height="28.50" transform="translate(653.12 638.66) rotate(3097.90) translate(-14.25 -14.25)"/>
    <use href="#logo" width="28.54" height="28.54" transform="translate(631.25 620.33) rotate(3104.73) translate(-14.27 -14.27)"/>
    <use href="#logo" width="28.57" height="28.57" transform="translate(611.69 599.51) rotate(3111.55) translate(-14.29 -14.29)"/>
    <use href="#logo" width="28.61" height="28.61" transform="translate(594.72 576.48) rotate(3118.36) translate(-14.30 -14.30)"/>
    <use href="#logo" width="28.64" height="28.64" transform="translate(580.58 551.57) rotate(3125.16) translate(-14.32 -14.32)"/>
    <use href="#logo" width="28.68" height="28.68" transform="translate(569.47 525.14) rotate(3131.95) translate(-14.34 -14.34)"/>
    <use href="#logo" width="28.71" height="28.71" transform="translate(561.55 497.54) rotate(3138.72) translate(-14.36 -14.36)"/>
    <use href="#logo" width="28.75" height="28.75" transform="translate(556.94 469.17) rotate(3145.49) translate(-14.38 -14.38)"/>
    <use href="#logo" width="28.79" height="28.79" transform="translate(555.70 440.41) rotate(3152.25) translate(-14.39 -14.39)"/>
    <use href="#logo" width="28.82" height="28.82" transform="translate(557.85 411.68) rotate(3158.99) translate(-14.41 -14.41)"/>
    <use href="#logo" width="28.86" height="28.86" transform="translate(563.37 383.36) rotate(3165.73) translate(-14.43 -14.43)"/>
    <use href="#logo" width="28.89" height="28.89" transform="translate(572.18 355.85) rotate(3172.45) translate(-14.45 -14.45)"/>
    <use href="#logo" width="28.93" height="28.93" transform="translate(584.16 329.52) rotate(3179.17) translate(-14.46 -14.46)"/>
    <use href="#logo" width="28.96" height="28.96" transform="translate(599.16 304.75) rotate(3185.87) translate(-14.48 -14.48)"/>
    <use href="#logo" width="29.00" height="29.00" transform="translate(616.96 281.87) rotate(3192.57) translate(-14.50 -14.50)"/>
    <use href="#logo" width="29.03" height="29.03" transform="translate(637.34 261.20) rotate(3199.25) translate(-14.52 -14.52)"/>
    <use href="#logo" width="29.07" height="29.07" transform="translate(660.01 243.02) rotate(3205.93) translate(-14.53 -14.53)"/>
    <use href="#logo" width="29.10" height="29.10" transform="translate(684.67 227.57) rotate(3212.59) translate(-14.55 -14.55)"/>
    <use href="#logo" width="29.14" height="29.14" transform="translate(710.99 215.07) rotate(3219.25) translate(-14.57 -14.57)"/>
    <use href="#logo" width="29.17" height="29.17" transform="translate(738.61 205.70) rotate(3225.89) translate(-14.59 -14.59)"/>
    <use href="#logo" width="29.21" height="29.21" transform="translate(767.16 199.57) rotate(3232.53) translate(-14.60 -14.60)"/>
    <use href="#logo" width="29.24" height="29.24" transform="translate(796.27 196.79) rotate(3239.16) translate(-14.62 -14.62)"/>
    <use href="#logo" width="29.28" height="29.28" transform="translate(825.53 197.37) rotate(3245.77) translate(-14.64 -14.64)"/>
    <use href="#logo" width="29.31" height="29.31" transform="translate(854.57 201.33) rotate(3252.38) translate(-14.66 -14.66)"/>
    <use href="#logo" width="29.35" height="29.35" transform="translate(883.00 208.62) rotate(3258.98) translate(-14.67 -14.67)"/>
    <use href="#logo" width="29.38" height="29.38" transform="translate(910.43 219.13) rotate(3265.56) translate(-14.69 -14.69)"/>
    <use href="#logo" width="29.42" height="29.42" transform="translate(936.51 232.73) rotate(3272.14) translate(-14.71 -14.71)"/>
    <use href="#logo" width="29.45" height="29.45" transform="translate(960.89 249.25) rotate(3278.71) translate(-14.73 -14.73)"/>
    <use href="#logo" width="29.49" height="29.49" transform="translate(983.25 268.47) rotate(3285.27) translate(-14.74 -14.74)"/>
    <use href="#logo" width="29.52" height="29.52" transform="translate(1003.29 290.14) rotate(3291.82) translate(-14.76 -14.76)"/>
    <use href="#logo" width="29.56" height="29.56" transform="translate(1020.75 313.99) rotate(3298.36) translate(-14.78 -14.78)"/>
    <use href="#logo" width="29.59" height="29.59" transform="translate(1035.39 339.70) rotate(3304.89) translate(-14.80 -14.80)"/>
    <use href="#logo" width="29.63" height="29.63" transform="translate(1047.03 366.94) rotate(3311.42) translate(-14.81 -14.81)"/>
    <use href="#logo" width="29.66" height="29.66" transform="translate(1055.52 395.36) rotate(3317.93) translate(-14.83 -14.83)"/>
    <use href="#logo" width="29.70" height="29.70" transform="translate(1060.73 424.59) rotate(3324.43) translate(-14.85 -14.85)"/>
    <use href="#logo" width="29.73" height="29.73" transform="translate(1062.60 454.26) rotate(3330.93) translate(-14.87 -14.87)"/>
    <use href="#logo" width="29.77" height="29.77" transform="translate(1061.10 483.99) rotate(3337.42) translate(-14.88 -14.88)"/>
    <use href="#logo" width="29.80" height="29.80" transform="translate(1056.25 513.39) rotate(3343.89) translate(-14.90 -14.90)"/>
    <use href="#logo" width="29.84" height="29.84" transform="translate(1048.10 542.09) rotate(3350.36) translate(-14.92 -14.92)"/>
    <use href="#logo" width="29.87" height="29.87" transform="translate(1036.76 569.72) rotate(3356.82) translate(-14.94 -14.94)"/>
    <use href="#logo" width="29.91" height="29.91" transform="translate(1022.37 595.94) rotate(3363.28) translate(-14.95 -14.95)"/>
    <use href="#logo" width="29.94" height="29.94" transform="translate(1005.10 620.39) rotate(3369.72) translate(-14.97 -14.97)"/>
    <use href="#logo" width="29.98" height="29.98" transform="translate(985.18 642.79) rotate(3376.15) translate(-14.99 -14.99)"/>
    <use href="#logo" width="30.01" height="30.01" transform="translate(962.85 662.83) rotate(3382.58) translate(-15.01 -15.01)"/>
    <use href="#logo" width="30.05" height="30.05" transform="translate(938.38 680.27) rotate(3389.00) translate(-15.02 -15.02)"/>
    <use href="#logo" width="30.08" height="30.08" transform="translate(912.10 694.89) rotate(3395.40) translate(-15.04 -15.04)"/>
    <use href="#logo" width="30.12" height="30.12" transform="translate(884.31 706.49) rotate(3401.80) translate(-15.06 -15.06)"/>
    <use href="#logo" width="30.15" height="30.15" transform="translate(855.37 714.94) rotate(3408.20) translate(-15.08 -15.08)"/>
    <use href="#logo" width="30.19" height="30.19" transform="translate(825.63 720.12) rotate(3414.58) translate(-15.09 -15.09)"/>
    <use href="#logo" width="30.22" height="30.22" transform="translate(795.47 721.96) rotate(3420.95) translate(-15.11 -15.11)"/>
    <use href="#logo" width="30.26" height="30.26" transform="translate(765.26 720.44) rotate(3427.32) translate(-15.13 -15.13)"/>
    <use href="#logo" width="30.29" height="30.29" transform="translate(735.36 715.58) rotate(3433.68) translate(-15.15 -15.15)"/>
    <use href="#logo" width="30.33" height="30.33" transform="translate(706.15 707.43) rotate(3440.03) translate(-15.16 -15.16)"/>
    <use href="#logo" width="30.36" height="30.36" transform="translate(677.99 696.09) rotate(3446.37) translate(-15.18 -15.18)"/>
    <use href="#logo" width="30.40" height="30.40" transform="translate(651.23 681.69) rotate(3452.71) translate(-15.20 -15.20)"/>
    <use href="#logo" width="30.43" height="30.43" transform="translate(626.19 664.40) rotate(3459.03) translate(-15.22 -15.22)"/>
    <use href="#logo" width="30.47" height="30.47" transform="translate(603.18 644.44) rotate(3465.35) translate(-15.23 -15.23)"/>
    <use href="#logo" width="30.50" height="30.50" transform="translate(582.48 622.05) rotate(3471.66) translate(-15.25 -15.25)"/>
    <use href="#logo" width="30.54" height="30.54" transform="translate(564.34 597.49) rotate(3477.96) translate(-15.27 -15.27)"/>
    <use href="#logo" width="30.57" height="30.57" transform="translate(548.99 571.05) rotate(3484.25) translate(-15.29 -15.29)"/>
    <use href="#logo" width="30.61" height="30.61" transform="translate(536.62 543.06) rotate(3490.54) translate(-15.30 -15.30)"/>
    <use href="#logo" width="30.64" height="30.64" transform="translate(527.37 513.86) rotate(3496.82) translate(-15.32 -15.32)"/>
    <use href="#logo" width="30.68" height="30.68" transform="translate(521.36 483.78) rotate(3503.09) translate(-15.34 -15.34)"/>
    <use href="#logo" width="30.71" height="30.71" transform="translate(518.67 453.19) rotate(3509.35) translate(-15.36 -15.36)"/>
    <use href="#logo" width="30.75" height="30.75" transform="translate(519.34 422.46) rotate(3515.61) translate(-15.37 -15.37)"/>
    <use href="#logo" width="30.78" height="30.78" transform="translate(523.35 391.94) rotate(3521.85) translate(-15.39 -15.39)"/>
    <use href="#logo" width="30.82" height="30.82" transform="translate(530.66 362.01) rotate(3528.09) translate(-15.41 -15.41)"/>
    <use href="#logo" width="30.85" height="30.85" transform="translate(541.20 333.02) rotate(3534.32) translate(-15.43 -15.43)"/>
    <use href="#logo" width="30.89" height="30.89" transform="translate(554.83 305.31) rotate(3540.55) translate(-15.44 -15.44)"/>
    <use href="#logo" width="30.92" height="30.92" transform="translate(571.41 279.22) rotate(3546.76) translate(-15.46 -15.46)"/>
    <use href="#logo" width="30.96" height="30.96" transform="translate(590.73 255.04) rotate(3552.97) translate(-15.48 -15.48)"/>
    <use href="#logo" width="30.99" height="30.99" transform="translate(612.58 233.07) rotate(3559.17) translate(-15.50 -15.50)"/>
    <use href="#logo" width="31.03" height="31.03" transform="translate(636.70 213.57) rotate(3565.37) translate(-15.51 -15.51)"/>
    <use href="#logo" width="31.06" height="31.06" transform="translate(662.81 196.76) rotate(3571.55) translate(-15.53 -15.53)"/>
    <use href="#logo" width="31.10" height="31.10" transform="translate(690.62 182.85) rotate(3577.73) translate(-15.55 -15.55)"/>
    <use href="#logo" width="31.13" height="31.13" transform="translate(719.79 172.00) rotate(3583.91) translate(-15.57 -15.57)"/>
    <use href="#logo" width="31.17" height="31.17" transform="translate(749.99 164.33) rotate(3590.07) translate(-15.58 -15.58)"/>
    <use href="#logo" width="31.20" height="31.20" transform="translate(780.88 159.95) rotate(3596.23) translate(-15.60 -15.60)"/>
    <use href="#logo" width="31.24" height="31.24" transform="translate(812.09 158.91) rotate(3602.38) translate(-15.62 -15.62)"/>
    <use href="#logo" width="31.27" height="31.27" transform="translate(843.26 161.21) rotate(3608.52) translate(-15.64 -15.64)"/>
    <use href="#logo" width="31.31" height="31.31" transform="translate(874.05 166.85) rotate(3614.66) translate(-15.65 -15.65)"/>
    <use href="#logo" width="31.34" height="31.34" transform="translate(904.09 175.75) rotate(3620.78) translate(-15.67 -15.67)"/>
    <use href="#logo" width="31.37" height="31.37" transform="translate(933.05 187.82) rotate(3626.91) translate(-15.69 -15.69)"/>
    <use href="#logo" width="31.41" height="31.41" transform="translate(960.58 202.92) rotate(3633.02) translate(-15.70 -15.70)"/>
    <use href="#logo" width="31.44" height="31.44" transform="translate(986.37 220.89) rotate(3639.13) translate(-15.72 -15.72)"/>
    <use href="#logo" width="31.48" height="31.48" transform="translate(1010.14 241.53) rotate(3645.23) translate(-15.74 -15.74)"/>
    <use href="#logo" width="31.51" height="31.51" transform="translate(1031.60 264.59) rotate(3651.32) translate(-15.76 -15.76)"/>
    <use href="#logo" width="31.55" height="31.55" transform="translate(1050.51 289.84) rotate(3657.41) translate(-15.77 -15.77)"/>
    <use href="#logo" width="31.58" height="31.58" transform="translate(1066.66 316.97) rotate(3663.49) translate(-15.79 -15.79)"/>
    <use href="#logo" width="31.62" height="31.62" transform="translate(1079.86 345.69) rotate(3669.56) translate(-15.81 -15.81)"/>
    <use href="#logo" width="31.65" height="31.65" transform="translate(1089.96 375.68) rotate(3675.63) translate(-15.83 -15.83)"/>
    <use href="#logo" width="31.69" height="31.69" transform="translate(1096.85 406.61) rotate(3681.68) translate(-15.84 -15.84)"/>
    <use href="#logo" width="31.72" height="31.72" transform="translate(1100.43 438.12) rotate(3687.74) translate(-15.86 -15.86)"/>
    <use href="#logo" width="31.76" height="31.76" transform="translate(1100.68 469.87) rotate(3693.78) translate(-15.88 -15.88)"/>
    <use href="#logo" width="31.79" height="31.79" transform="translate(1097.57 501.51) rotate(3699.82) translate(-15.90 -15.90)"/>
    <use href="#logo" width="31.83" height="31.83" transform="translate(1091.16 532.67) rotate(3705.85) translate(-15.91 -15.91)"/>
    <use href="#logo" width="31.86" height="31.86" transform="translate(1081.49 563.02) rotate(3711.88) translate(-15.93 -15.93)"/>
    <use href="#logo" width="31.90" height="31.90" transform="translate(1068.67 592.23) rotate(3717.90) translate(-15.95 -15.95)"/>
    <use href="#logo" width="31.93" height="31.93" transform="translate(1052.85 619.95) rotate(3723.91) translate(-15.97 -15.97)"/>
    <use href="#logo" width="31.97" height="31.97" transform="translate(1034.20 645.90) rotate(3729.91) translate(-15.98 -15.98)"/>
    <use href="#logo" width="32.00" height="32.00" transform="translate(1012.90 669.78) rotate(3735.91) translate(-16.00 -16.00)"/>
    <use href="#logo" width="32.04" height="32.04" transform="translate(989.21 691.33) rotate(3741.90) translate(-16.02 -16.02)"/>
    <use href="#logo" width="32.07" height="32.07" transform="translate(963.36 710.31) rotate(3747.89) translate(-16.04 -16.04)"/>
    <use href="#logo" width="32.11" height="32.11" transform="translate(935.65 726.51) rotate(3753.87) translate(-16.05 -16.05)"/>
    <use href="#logo" width="32.14" height="32.14" transform="translate(906.37 739.75) rotate(3759.84) translate(-16.07 -16.07)"/>
    <use href="#logo" width="32.18" height="32.18" transform="translate(875.84 749.88) rotate(3765.81) translate(-16.09 -16.09)"/>
    <use href="#logo" width="32.21" height="32.21" transform="translate(844.39 756.79) rotate(3771.77) translate(-16.11 -16.11)"/>
    <use href="#logo" width="32.25" height="32.25" transform="translate(812.36 760.41) rotate(3777.72) translate(-16.12 -16.12)"/>
    <use href="#logo" width="32.28" height="32.28" transform="translate(780.09 760.68) rotate(3783.67) translate(-16.14 -16.14)"/>
    <use href="#logo" width="32.32" height="32.32" transform="translate(747.92 757.61) rotate(3789.61) translate(-16.16 -16.16)"/>
    <use href="#logo" width="32.35" height="32.35" transform="translate(716.22 751.22) rotate(3795.54) translate(-16.18 -16.18)"/>
    <use href="#logo" width="32.38" height="32.38" transform="translate(685.31 741.57) rotate(3801.47) translate(-16.19 -16.19)"/>
    <use href="#logo" width="32.42" height="32.42" transform="translate(655.54 728.78) rotate(3807.39) translate(-16.21 -16.21)"/>
    <use href="#logo" width="32.45" height="32.45" transform="translate(627.21 712.96) rotate(3813.31) translate(-16.23 -16.23)"/>
    <use href="#logo" width="32.49" height="32.49" transform="translate(600.63 694.29) rotate(3819.22) translate(-16.24 -16.24)"/>
    <use href="#logo" width="32.52" height="32.52" transform="translate(576.09 672.95) rotate(3825.12) translate(-16.26 -16.26)"/>
    <use href="#logo" width="32.56" height="32.56" transform="translate(553.85 649.19) rotate(3831.02) translate(-16.28 -16.28)"/>
    <use href="#logo" width="32.59" height="32.59" transform="translate(534.14 623.23) rotate(3836.91) translate(-16.30 -16.30)"/>
    <use href="#logo" width="32.63" height="32.63" transform="translate(517.19 595.36) rotate(3842.80) translate(-16.31 -16.31)"/>
    <use href="#logo" width="32.66" height="32.66" transform="translate(503.17 565.87) rotate(3848.68) translate(-16.33 -16.33)"/>
    <use href="#logo" width="32.70" height="32.70" transform="translate(492.23 535.07) rotate(3854.55) translate(-16.35 -16.35)"/>
    <use href="#logo" width="32.73" height="32.73" transform="translate(484.49 503.27) rotate(3860.42) translate(-16.37 -16.37)"/>
    <use href="#logo" width="32.77" height="32.77" transform="translate(480.03 470.81) rotate(3866.28) translate(-16.38 -16.38)"/>
    <use href="#logo" width="32.80" height="32.80" transform="translate(478.91 438.04) rotate(3872.13) translate(-16.40 -16.40)"/>
    <use href="#logo" width="32.84" height="32.84" transform="translate(481.14 405.29) rotate(3877.98) translate(-16.42 -16.42)"/>
    <use href="#logo" width="32.87" height="32.87" transform="translate(486.70 372.90) rotate(3883.83) translate(-16.44 -16.44)"/>
    <use href="#logo" width="32.91" height="32.91" transform="translate(495.54 341.21) rotate(3889.66) translate(-16.45 -16.45)"/>
    <use href="#logo" width="32.94" height="32.94" transform="translate(507.57 310.55) rotate(3895.50) translate(-16.47 -16.47)"/>
    <use href="#logo" width="32.98" height="32.98" transform="translate(522.67 281.24) rotate(3901.32) translate(-16.49 -16.49)"/>
    <use href="#logo" width="33.01" height="33.01" transform="translate(540.68 253.58) rotate(3907.14) translate(-16.51 -16.51)"/>
    <use href="#logo" width="33.05" height="33.05" transform="translate(561.42 227.87) rotate(3912.96) translate(-16.52 -16.52)"/>
    <use href="#logo" width="33.08" height="33.08" transform="translate(584.69 204.36) rotate(3918.76) translate(-16.54 -16.54)"/>
    <use href="#logo" width="33.12" height="33.12" transform="translate(610.24 183.31) rotate(3924.57) translate(-16.56 -16.56)"/>
    <use href="#logo" width="33.15" height="33.15" transform="translate(637.82 164.93) rotate(3930.36) translate(-16.58 -16.58)"/>
    <use href="#logo" width="33.19" height="33.19" transform="translate(667.14 149.41) rotate(3936.16) translate(-16.59 -16.59)"/>
    <use href="#logo" width="33.22" height="33.22" transform="translate(697.92 136.91) rotate(3941.94) translate(-16.61 -16.61)"/>
    <use href="#logo" width="33.26" height="33.26" transform="translate(729.82 127.57) rotate(3947.72) translate(-16.63 -16.63)"/>
    <use href="#logo" width="33.29" height="33.29" transform="translate(762.55 121.49) rotate(3953.50) translate(-16.65 -16.65)"/>
    <use href="#logo" width="33.33" height="33.33" transform="translate(795.75 118.72) rotate(3959.26) translate(-16.66 -16.66)"/>
    <use href="#logo" width="33.36" height="33.36" transform="translate(829.09 119.30) rotate(3965.03) translate(-16.68 -16.68)"/>
    <use href="#logo" width="33.40" height="33.40" transform="translate(862.25 123.23) rotate(3970.79) translate(-16.70 -16.70)"/>
    <use href="#logo" width="33.43" height="33.43" transform="translate(894.87 130.48) rotate(3976.54) translate(-16.72 -16.72)"/>
    <use href="#logo" width="33.47" height="33.47" transform="translate(926.64 140.97) rotate(3982.28) translate(-16.73 -16.73)"/>
    <use href="#logo" width="33.50" height="33.50" transform="translate(957.24 154.60) rotate(3988.03) translate(-16.75 -16.75)"/>
    <use href="#logo" width="33.53" height="33.53" transform="translate(986.34 171.24) rotate(3993.76) translate(-16.77 -16.77)"/>
    <use href="#logo" width="33.57" height="33.57" transform="translate(1013.67 190.72) rotate(3999.49) translate(-16.78 -16.78)"/>
    <use href="#logo" width="33.60" height="33.60" transform="translate(1038.94 212.86) rotate(4005.22) translate(-16.80 -16.80)"/>
    <use href="#logo" width="33.64" height="33.64" transform="translate(1061.90 237.43) rotate(4010.94) translate(-16.82 -16.82)"/>
    <use href="#logo" width="33.67" height="33.67" transform="translate(1082.32 264.19) rotate(4016.65) translate(-16.84 -16.84)"/>
    <use href="#logo" width="33.71" height="33.71" transform="translate(1100.00 292.89) rotate(4022.36) translate(-16.85 -16.85)"/>
    <use href="#logo" width="33.74" height="33.74" transform="translate(1114.74 323.23) rotate(4028.06) translate(-16.87 -16.87)"/>
    <use href="#logo" width="33.78" height="33.78" transform="translate(1126.42 354.92) rotate(4033.76) translate(-16.89 -16.89)"/>
    <use href="#logo" width="33.81" height="33.81" transform="translate(1134.89 387.64) rotate(4039.45) translate(-16.91 -16.91)"/>
    <use href="#logo" width="33.85" height="33.85" transform="translate(1140.09 421.08) rotate(4045.14) translate(-16.92 -16.92)"/>
    <use href="#logo" width="33.88" height="33.88" transform="translate(1141.95 454.90) rotate(4050.82) translate(-16.94 -16.94)"/>
    <use href="#logo" width="33.92" height="33.92" transform="translate(1140.45 488.78) rotate(4056.50) translate(-16.96 -16.96)"/>
    <use href="#logo" width="33.95" height="33.95" transform="translate(1135.61 522.38) rotate(4062.17) translate(-16.98 -16.98)"/>
    <use href="#logo" width="33.99" height="33.99" transform="translate(1127.46 555.37) rotate(4067.84) translate(-16.99 -16.99)"/>
    <use href="#logo" width="34.02" height="34.02" transform="translate(1116.08 587.42) rotate(4073.50) translate(-17.01 -17.01)"/>
    <use href="#logo" width="34.06" height="34.06" transform="translate(1101.58 618.23) rotate(4079.15) translate(-17.03 -17.03)"/>
    <use href="#logo" width="34.09" height="34.09" transform="translate(1084.10 647.49) rotate(4084.80) translate(-17.05 -17.05)"/>
    <use href="#logo" width="34.13" height="34.13" transform="translate(1063.80 674.91) rotate(4090.45) translate(-17.06 -17.06)"/>
    <use href="#logo" width="34.16" height="34.16" transform="translate(1040.88 700.23) rotate(4096.09) translate(-17.08 -17.08)"/>
    <use href="#logo" width="34.20" height="34.20" transform="translate(1015.55 723.20) rotate(4101.73) translate(-17.10 -17.10)"/>
    <use href="#logo" width="34.23" height="34.23" transform="translate(988.07 743.60) rotate(4107.36) translate(-17.12 -17.12)"/>
    <use href="#logo" width="34.27" height="34.27" transform="translate(958.69 761.21) rotate(4112.98) translate(-17.13 -17.13)"/>
    <use href="#logo" width="34.30" height="34.30" transform="translate(927.69 775.88) rotate(4118.60) translate(-17.15 -17.15)"/>
    <use href="#logo" width="34.34" height="34.34" transform="translate(895.37 787.46) rotate(4124.22) translate(-17.17 -17.17)"/>
    <use href="#logo" width="34.37" height="34.37" transform="translate(862.04 795.82) rotate(4129.83) translate(-17.19 -17.19)"/>
    <use href="#logo" width="34.41" height="34.41" transform="translate(828.02 800.90) rotate(4135.43) translate(-17.20 -17.20)"/>
    <use href="#logo" width="34.44" height="34.44" transform="translate(793.63 802.62) rotate(4141.04) translate(-17.22 -17.22)"/>
    <use href="#logo" width="34.48" height="34.48" transform="translate(759.20 800.99) rotate(4146.63) translate(-17.24 -17.24)"/>
    <use href="#logo" width="34.51" height="34.51" transform="translate(725.06 796.00) rotate(4152.22) translate(-17.26 -17.26)"/>
    <use href="#logo" width="34.55" height="34.55" transform="translate(691.53 787.70) rotate(4157.81) translate(-17.27 -17.27)"/>
    <use href="#logo" width="34.58" height="34.58" transform="translate(658.94 776.16) rotate(4163.39) translate(-17.29 -17.29)"/>
    <use href="#logo" width="34.62" height="34.62" transform="translate(627.59 761.50) rotate(4168.96) translate(-17.31 -17.31)"/>
    <use href="#logo" width="34.65" height="34.65" transform="translate(597.78 743.84) rotate(4174.54) translate(-17.33 -17.33)"/>
    <use href="#logo" width="34.69" height="34.69" transform="translate(569.80 723.35) rotate(4180.10) translate(-17.34 -17.34)"/>
    <use href="#logo" width="34.72" height="34.72" transform="translate(543.92 700.22) rotate(4185.66) translate(-17.36 -17.36)"/>
    <use href="#logo" width="34.76" height="34.76" transform="translate(520.37 674.67) rotate(4191.22) translate(-17.38 -17.38)"/>
    <use href="#logo" width="34.79" height="34.79" transform="translate(499.38 646.93) rotate(4196.77) translate(-17.40 -17.40)"/>
    <use href="#logo" width="34.83" height="34.83" transform="translate(481.16 617.26) rotate(4202.32) translate(-17.41 -17.41)"/>
    <use href="#logo" width="34.86" height="34.86" transform="translate(465.88 585.94) rotate(4207.86) translate(-17.43 -17.43)"/>
    <use href="#logo" width="34.90" height="34.90" transform="translate(453.67 553.25) rotate(4213.40) translate(-17.45 -17.45)"/>
    <use href="#logo" width="34.93" height="34.93" transform="translate(444.68 519.51) rotate(4218.93) translate(-17.47 -17.47)"/>
    <use href="#logo" width="34.97" height="34.97" transform="translate(438.96 485.02) rotate(4224.46) translate(-17.48 -17.48)"/>
    <use href="#logo" width="35.00" height="35.00" transform="translate(436.60 450.10) rotate(4229.98) translate(-17.50 -17.50)"/>
    <use href="#logo" width="35.04" height="35.04" transform="translate(437.61 415.09) rotate(4235.50) translate(-17.52 -17.52)"/>
    <use href="#logo" width="35.07" height="35.07" transform="translate(441.98 380.30) rotate(4241.02) translate(-17.54 -17.54)"/>
    <use href="#logo" width="35.11" height="35.11" transform="translate(449.68 346.06) rotate(4246.53) translate(-17.55 -17.55)"/>
    <use href="#logo" width="35.14" height="35.14" transform="translate(460.65 312.68) rotate(4252.03) translate(-17.57 -17.57)"/>
    <use href="#logo" width="35.18" height="35.18" transform="translate(474.78 280.47) rotate(4257.53) translate(-17.59 -17.59)"/>
    <use href="#logo" width="35.21" height="35.21" transform="translate(491.95 249.74) rotate(4263.03) translate(-17.61 -17.61)"/>
    <use href="#logo" width="35.25" height="35.25" transform="translate(512.00 220.76) rotate(4268.52) translate(-17.62 -17.62)"/>
    <use href="#logo" width="35.28" height="35.28" transform="translate(534.75 193.80) rotate(4274.01) translate(-17.64 -17.64)"/>
    <use href="#logo" width="35.32" height="35.32" transform="translate(560.01 169.13) rotate(4279.49) translate(-17.66 -17.66)"/>
    <use href="#logo" width="35.35" height="35.35" transform="translate(587.53 146.95) rotate(4284.97) translate(-17.68 -17.68)"/>
    <use href="#logo" width="35.39" height="35.39" transform="translate(617.07 127.48) rotate(4290.44) translate(-17.70 -17.70)"/>
    <use href="#logo" width="35.43" height="35.43" transform="translate(648.37 110.90) rotate(4295.91) translate(-17.71 -17.71)"/>
    <use href="#logo" width="35.46" height="35.46" transform="translate(681.13 97.37) rotate(4301.37) translate(-17.73 -17.73)"/>
    <use href="#logo" width="35.50" height="35.50" transform="translate(715.07 87.00) rotate(4306.83) translate(-17.75 -17.75)"/>
    <use href="#logo" width="35.53" height="35.53" transform="translate(749.87 79.91) rotate(4312.29) translate(-17.77 -17.77)"/>
    <use href="#logo" width="35.57" height="35.57" transform="translate(785.23 76.15) rotate(4317.74) translate(-17.78 -17.78)"/>
    <use href="#logo" width="35.60" height="35.60" transform="translate(820.82 75.76) rotate(4323.18) translate(-17.80 -17.80)"/>
    <use href="#logo" width="35.64" height="35.64" transform="translate(856.32 78.76) rotate(4328.63) translate(-17.82 -17.82)"/>
    <use href="#logo" width="35.67" height="35.67" transform="translate(891.41 85.11) rotate(4334.06) translate(-17.84 -17.84)"/>
    <use href="#logo" width="35.71" height="35.71" transform="translate(925.77 94.77) rotate(4339.50) translate(-17.85 -17.85)"/>
    <use href="#logo" width="35.74" height="35.74" transform="translate(959.10 107.65) rotate(4344.93) translate(-17.87 -17.87)"/>
    <use href="#logo" width="35.78" height="35.78" transform="translate(991.09 123.65) rotate(4350.35) translate(-17.89 -17.89)"/>
    <use href="#logo" width="35.81" height="35.81" transform="translate(1021.46 142.61) rotate(4355.77) translate(-17.91 -17.91)"/>
    <use href="#logo" width="35.85" height="35.85" transform="translate(1049.93 164.38) rotate(4361.19) translate(-17.92 -17.92)"/>
    <use href="#logo" width="35.88" height="35.88" transform="translate(1076.24 188.76) rotate(4366.60) translate(-17.94 -17.94)"/>
    <use href="#logo" width="35.92" height="35.92" transform="translate(1100.16 215.54) rotate(4372.01) translate(-17.96 -17.96)"/>
    <use href="#logo" width="35.95" height="35.95" transform="translate(1121.47 244.48) rotate(4377.41) translate(-17.98 -17.98)"/>
    <use href="#logo" width="35.99" height="35.99" transform="translate(1139.98 275.33) rotate(4382.81) translate(-17.99 -17.99)"/>
    <use href="#logo" width="36.02" height="36.02" transform="translate(1155.52 307.82) rotate(4388.20) translate(-18.01 -18.01)"/>
    <use href="#logo" width="36.06" height="36.06" transform="translate(1167.95 341.66) rotate(4393.59) translate(-18.03 -18.03)"/>
    <use href="#logo" width="36.09" height="36.09" transform="translate(1177.16 376.55) rotate(4398.98) translate(-18.05 -18.05)"/>
    <use href="#logo" width="36.13" height="36.13" transform="translate(1183.06 412.18) rotate(4404.36) translate(-18.06 -18.06)"/>
    <use href="#logo" width="36.16" height="36.16" transform="translate(1185.59 448.24) rotate(4409.74) translate(-18.08 -18.08)"/>
    <use href="#logo" width="36.20" height="36.20" transform="translate(1184.74 484.42) rotate(4415.11) translate(-18.10 -18.10)"/>
    <use href="#logo" width="36.24" height="36.24" transform="translate(1180.49 520.40) rotate(4420.48) translate(-18.12 -18.12)"/>
    <use href="#logo" width="36.27" height="36.27" transform="translate(1172.89 555.85) rotate(4425.85) translate(-18.14 -18.14)"/>
    <use href="#logo" width="36.31" height="36.31" transform="translate(1162.00 590.47) rotate(4431.21) translate(-18.15 -18.15)"/>
    <use href="#logo" width="36.34" height="36.34" transform="translate(1147.90 623.96) rotate(4436.57) translate(-18.17 -18.17)"/>
    <use href="#logo" width="36.38" height="36.38" transform="translate(1130.73 656.02) rotate(4441.92) translate(-18.19 -18.19)"/>
    <use href="#logo" width="36.41" height="36.41" transform="translate(1110.62 686.36) rotate(4447.27) translate(-18.21 -18.21)"/>
    <use href="#logo" width="36.45" height="36.45" transform="translate(1087.75 714.72) rotate(4452.61) translate(-18.22 -18.22)"/>
    <use href="#logo" width="36.48" height="36.48" transform="translate(1062.32 740.86) rotate(4457.95) translate(-18.24 -18.24)"/>
    <use href="#logo" width="36.52" height="36.52" transform="translate(1034.53 764.54) rotate(4463.29) translate(-18.26 -18.26)"/>
    <use href="#logo" width="36.55" height="36.55" transform="translate(1004.63 785.55) rotate(4468.62) translate(-18.28 -18.28)"/>
    <use href="#logo" width="36.59" height="36.59" transform="translate(972.88 803.72) rotate(4473.95) translate(-18.29 -18.29)"/>
    <use href="#logo" width="36.62" height="36.62" transform="translate(939.55 818.87) rotate(4479.28) translate(-18.31 -18.31)"/>
    <use href="#logo" width="36.66" height="36.66" transform="translate(904.93 830.87) rotate(4484.60) translate(-18.33 -18.33)"/>
    <use href="#logo" width="36.69" height="36.69" transform="translate(869.30 839.62) rotate(4489.91) translate(-18.35 -18.35)"/>
    <use href="#logo" width="36.73" height="36.73" transform="translate(832.98 845.04) rotate(4495.23) translate(-18.37 -18.37)"/>
    <use href="#logo" width="36.77" height="36.77" transform="translate(796.28 847.07) rotate(4500.54) translate(-18.38 -18.38)"/>
    <use href="#logo" width="36.80" height="36.80" transform="translate(759.52 845.70) rotate(4505.84) translate(-18.40 -18.40)"/>
    <use href="#logo" width="36.84" height="36.84" transform="translate(723.00 840.93) rotate(4511.14) translate(-18.42 -18.42)"/>
    <use href="#logo" width="36.87" height="36.87" transform="translate(687.05 832.80) rotate(4516.44) translate(-18.44 -18.44)"/>
    <use href="#logo" width="36.91" height="36.91" transform="translate(651.97 821.38) rotate(4521.73) translate(-18.45 -18.45)"/>
    <use href="#logo" width="36.94" height="36.94" transform="translate(618.05 806.76) rotate(4527.02) translate(-18.47 -18.47)"/>
    <use href="#logo" width="36.98" height="36.98" transform="translate(585.60 789.05) rotate(4532.31) translate(-18.49 -18.49)"/>
    <use href="#logo" width="37.01" height="37.01" transform="translate(554.89 768.42) rotate(4537.59) translate(-18.51 -18.51)"/>
    <use href="#logo" width="37.05" height="37.05" transform="translate(526.18 745.02) rotate(4542.87) translate(-18.52 -18.52)"/>
    <use href="#logo" width="37.08" height="37.08" transform="translate(499.72 719.05) rotate(4548.14) translate(-18.54 -18.54)"/>
    <use href="#logo" width="37.12" height="37.12" transform="translate(475.73 690.74) rotate(4553.41) translate(-18.56 -18.56)"/>
    <use href="#logo" width="37.16" height="37.16" transform="translate(454.42 660.32) rotate(4558.68) translate(-18.58 -18.58)"/>
    <use href="#logo" width="37.19" height="37.19" transform="translate(435.98 628.03) rotate(4563.94) translate(-18.60 -18.60)"/>
    <use href="#logo" width="37.23" height="37.23" transform="translate(420.56 594.16) rotate(4569.20) translate(-18.61 -18.61)"/>
    <use href="#logo" width="37.26" height="37.26" transform="translate(408.30 558.99) rotate(4574.45) translate(-18.63 -18.63)"/>
    <use href="#logo" width="37.30" height="37.30" transform="translate(399.30 522.80) rotate(4579.70) translate(-18.65 -18.65)"/>
    <use href="#logo" width="37.33" height="37.33" transform="translate(393.64 485.91) rotate(4584.95) translate(-18.67 -18.67)"/>
    <use href="#logo" width="37.37" height="37.37" transform="translate(391.38 448.62) rotate(4590.19) translate(-18.68 -18.68)"/>
    <use href="#logo" width="37.40" height="37.40" transform="translate(392.54 411.25) rotate(4595.43) translate(-18.70 -18.70)"/>
    <use href="#logo" width="37.44" height="37.44" transform="translate(397.11 374.10) rotate(4600.67) translate(-18.72 -18.72)"/>
    <use href="#logo" width="37.48" height="37.48" transform="translate(405.05 337.49) rotate(4605.90) translate(-18.74 -18.74)"/>
    <use href="#logo" width="37.51" height="37.51" transform="translate(416.31 301.72) rotate(4611.13) translate(-18.76 -18.76)"/>
    <use href="#logo" width="37.55" height="37.55" transform="translate(430.80 267.09) rotate(4616.35) translate(-18.77 -18.77)"/>
    <use href="#logo" width="37.58" height="37.58" transform="translate(448.40 233.90) rotate(4621.58) translate(-18.79 -18.79)"/>
    <use href="#logo" width="37.62" height="37.62" transform="translate(468.96 202.41) rotate(4626.79) translate(-18.81 -18.81)"/>
    <use href="#logo" width="37.65" height="37.65" transform="translate(492.32 172.90) rotate(4632.01) translate(-18.83 -18.83)"/>
    <use href="#logo" width="37.69" height="37.69" transform="translate(518.30 145.60) rotate(4637.22) translate(-18.84 -18.84)"/>
    <use href="#logo" width="37.72" height="37.72" transform="translate(546.67 120.75) rotate(4642.42) translate(-18.86 -18.86)"/>
    <use href="#logo" width="37.76" height="37.76" transform="translate(577.20 98.56) rotate(4647.63) translate(-18.88 -18.88)"/>
    <use href="#logo" width="37.80" height="37.80" transform="translate(609.66 79.21) rotate(4652.83) translate(-18.90 -18.90)"/>
    <use href="#logo" width="37.83" height="37.83" transform="translate(643.76 62.87) rotate(4658.02) translate(-18.92 -18.92)"/>
    <use href="#logo" width="37.87" height="37.87" transform="translate(679.24 49.66) rotate(4663.21) translate(-18.93 -18.93)"/>
    <use href="#logo" width="37.90" height="37.90" transform="translate(715.80 39.71) rotate(4668.40) translate(-18.95 -18.95)"/>
    <use href="#logo" width="37.94" height="37.94" transform="translate(753.15 33.10) rotate(4673.59) translate(-18.97 -18.97)"/>
    <use href="#logo" width="37.97" height="37.97" transform="translate(790.98 29.89) rotate(4678.77) translate(-18.99 -18.99)"/>
    <use href="#logo" width="38.01" height="38.01" transform="translate(828.97 30.11) rotate(4683.95) translate(-19.00 -19.00)"/>
    <use href="#logo" width="38.05" height="38.05" transform="translate(866.83 33.76) rotate(4689.12) translate(-19.02 -19.02)"/>
    <use href="#logo" width="38.08" height="38.08" transform="translate(904.24 40.82) rotate(4694.29) translate(-19.04 -19.04)"/>
    <use href="#logo" width="38.12" height="38.12" transform="translate(940.90 51.23) rotate(4699.46) translate(-19.06 -19.06)"/>
    <use href="#logo" width="38.15" height="38.15" transform="translate(976.50 64.90) rotate(4704.62) translate(-19.08 -19.08)"/>
    <use href="#logo" width="38.19" height="38.19" transform="translate(1010.76 81.75) rotate(4709.78) translate(-19.09 -19.09)"/>
    <use href="#logo" width="38.22" height="38.22" transform="translate(1043.40 101.62) rotate(4714.94) translate(-19.11 -19.11)"/>
    <use href="#logo" width="38.26" height="38.26" transform="translate(1074.15 124.37) rotate(4720.09) translate(-19.13 -19.13)"/>
    <use href="#logo" width="38.30" height="38.30" transform="translate(1102.76 149.81) rotate(4725.24) translate(-19.15 -19.15)"/>
    <use href="#logo" width="38.33" height="38.33" transform="translate(1128.99 177.74) rotate(4730.39) translate(-19.17 -19.17)"/>
    <use href="#logo" width="38.37" height="38.37" transform="translate(1152.64 207.94) rotate(4735.53) translate(-19.18 -19.18)"/>
    <use href="#logo" width="38.40" height="38.40" transform="translate(1173.50 240.17) rotate(4740.67) translate(-19.20 -19.20)"/>
    <use href="#logo" width="38.44" height="38.44" transform="translate(1191.41 274.17) rotate(4745.81) translate(-19.22 -19.22)"/>
    <use href="#logo" width="38.47" height="38.47" transform="translate(1206.22 309.67) rotate(4750.94) translate(-19.24 -19.24)"/>
    <use href="#logo" width="38.51" height="38.51" transform="translate(1217.80 346.38) rotate(4756.07) translate(-19.26 -19.26)"/>
    <use href="#logo" width="38.55" height="38.55" transform="translate(1226.07 384.02) rotate(4761.20) translate(-19.27 -19.27)"/>
    <use href="#logo" width="38.58" height="38.58" transform="translate(1230.94 422.28) rotate(4766.32) translate(-19.29 -19.29)"/>
    <use href="#logo" width="38.62" height="38.62" transform="translate(1232.38 460.86) rotate(4771.44) translate(-19.31 -19.31)"/>
    <use href="#logo" width="38.65" height="38.65" transform="translate(1230.37 499.45) rotate(4776.55) translate(-19.33 -19.33)"/>
    <use href="#logo" width="38.69" height="38.69" transform="translate(1224.93 537.74) rotate(4781.67) translate(-19.35 -19.35)"/>
    <use href="#logo" width="38.73" height="38.73" transform="translate(1216.08 575.43) rotate(4786.78) translate(-19.36 -19.36)"/>
    <use href="#logo" width="38.76" height="38.76" transform="translate(1203.91 612.22) rotate(4791.88) translate(-19.38 -19.38)"/>
    <use href="#logo" width="38.80" height="38.80" transform="translate(1188.49 647.81) rotate(4796.98) translate(-19.40 -19.40)"/>
    <use href="#logo" width="38.83" height="38.83" transform="translate(1169.95 681.92) rotate(4802.08) translate(-19.42 -19.42)"/>
    <use href="#logo" width="38.87" height="38.87" transform="translate(1148.44 714.28) rotate(4807.18) translate(-19.43 -19.43)"/>
    <use href="#logo" width="38.91" height="38.91" transform="translate(1124.11 744.63) rotate(4812.27) translate(-19.45 -19.45)"/>
    <use href="#logo" width="38.94" height="38.94" transform="translate(1097.17 772.72) rotate(4817.36) translate(-19.47 -19.47)"/>
    <use href="#logo" width="38.98" height="38.98" transform="translate(1067.81 798.34) rotate(4822.45) translate(-19.49 -19.49)"/>
    <use href="#logo" width="39.01" height="39.01" transform="translate(1036.26 821.28) rotate(4827.53) translate(-19.51 -19.51)"/>
    <use href="#logo" width="39.05" height="39.05" transform="translate(1002.78 841.35) rotate(4832.61) translate(-19.52 -19.52)"/>
    <use href="#logo" width="39.09" height="39.09" transform="translate(967.62 858.39) rotate(4837.68) translate(-19.54 -19.54)"/>
    <use href="#logo" width="39.12" height="39.12" transform="translate(931.06 872.27) rotate(4842.76) translate(-19.56 -19.56)"/>
    <use href="#logo" width="39.16" height="39.16" transform="translate(893.37 882.87) rotate(4847.83) translate(-19.58 -19.58)"/>
    <use href="#logo" width="39.19" height="39.19" transform="translate(854.87 890.11) rotate(4852.89) translate(-19.60 -19.60)"/>
    <use href="#logo" width="39.23" height="39.23" transform="translate(815.84 893.92) rotate(4857.96) translate(-19.61 -19.61)"/>
    <use href="#logo" width="39.27" height="39.27" transform="translate(776.58 894.28) rotate(4863.02) translate(-19.63 -19.63)"/>
    <use href="#logo" width="39.30" height="39.30" transform="translate(737.42 891.17) rotate(4868.07) translate(-19.65 -19.65)"/>
    <use href="#logo" width="39.34" height="39.34" transform="translate(698.64 884.61) rotate(4873.13) translate(-19.67 -19.67)"/>
    <use href="#logo" width="39.37" height="39.37" transform="translate(660.56 874.66) rotate(4878.18) translate(-19.69 -19.69)"/>
    <use href="#logo" width="39.41" height="39.41" transform="translate(623.47 861.38) rotate(4883.23) translate(-19.70 -19.70)"/>
    <use href="#logo" width="39.45" height="39.45" transform="translate(587.66 844.87) rotate(4888.27) translate(-19.72 -19.72)"/>
    <use href="#logo" width="39.48" height="39.48" transform="translate(553.40 825.26) rotate(4893.31) translate(-19.74 -19.74)"/>
    <use href="#logo" width="39.52" height="39.52" transform="translate(520.97 802.70) rotate(4898.35) translate(-19.76 -19.76)"/>
    <use href="#logo" width="39.55" height="39.55" transform="translate(490.62 777.35) rotate(4903.38) translate(-19.78 -19.78)"/>
    <use href="#logo" width="39.59" height="39.59" transform="translate(462.59 749.42) rotate(4908.41) translate(-19.80 -19.80)"/>
    <use href="#logo" width="39.63" height="39.63" transform="translate(437.09 719.10) rotate(4913.44) translate(-19.81 -19.81)"/>
    <use href="#logo" width="39.66" height="39.66" transform="translate(414.32 686.64) rotate(4918.47) translate(-19.83 -19.83)"/>
    <use href="#logo" width="39.70" height="39.70" transform="translate(394.47 652.28) rotate(4923.49) translate(-19.85 -19.85)"/>
    <use href="#logo" width="39.74" height="39.74" transform="translate(377.68 616.28) rotate(4928.51) translate(-19.87 -19.87)"/>
    <use href="#logo" width="39.77" height="39.77" transform="translate(364.10 578.91) rotate(4933.53) translate(-19.89 -19.89)"/>
    <use href="#logo" width="39.81" height="39.81" transform="translate(353.82 540.47) rotate(4938.54) translate(-19.90 -19.90)"/>
    <use href="#logo" width="39.84" height="39.84" transform="translate(346.94 501.23) rotate(4943.55) translate(-19.92 -19.92)"/>
    <use href="#logo" width="39.88" height="39.88" transform="translate(343.50 461.51) rotate(4948.56) translate(-19.94 -19.94)"/>
    <use href="#logo" width="39.92" height="39.92" transform="translate(343.55 421.61) rotate(4953.56) translate(-19.96 -19.96)"/>
    <use href="#logo" width="39.95" height="39.95" transform="translate(347.07 381.83) rotate(4958.56) translate(-19.98 -19.98)"/>
    <use href="#logo" width="39.99" height="39.99" transform="translate(354.06 342.47) rotate(4963.56) translate(-19.99 -19.99)"/>
    <use href="#logo" width="40.02" height="40.02" transform="translate(364.46 303.83) rotate(4968.55) translate(-20.01 -20.01)"/>
    <use href="#logo" width="40.06" height="40.06" transform="translate(378.19 266.21) rotate(4973.54) translate(-20.03 -20.03)"/>
    <use href="#logo" width="40.10" height="40.10" transform="translate(395.16 229.89) rotate(4978.53) translate(-20.05 -20.05)"/>
    <use href="#logo" width="40.13" height="40.13" transform="translate(415.24 195.16) rotate(4983.52) translate(-20.07 -20.07)"/>
    <use href="#logo" width="40.17" height="40.17" transform="translate(438.29 162.27) rotate(4988.50) translate(-20.09 -20.09)"/>
    <use href="#logo" width="40.21" height="40.21" transform="translate(464.13 131.48) rotate(4993.48) translate(-20.10 -20.10)"/>
    <use href="#logo" width="40.24" height="40.24" transform="translate(492.56 103.03) rotate(4998.46) translate(-20.12 -20.12)"/>
    <use href="#logo" width="40.28" height="40.28" transform="translate(523.39 77.12) rotate(5003.43) translate(-20.14 -20.14)"/>
    <use href="#logo" width="40.32" height="40.32" transform="translate(556.37 53.96) rotate(5008.40) translate(-20.16 -20.16)"/>
    <use href="#logo" width="40.35" height="40.35" transform="translate(591.27 33.73) rotate(5013.37) translate(-20.18 -20.18)"/>
    <use href="#logo" width="40.39" height="40.39" transform="translate(627.83 16.58) rotate(5018.33) translate(-20.19 -20.19)"/>
    <use href="#logo" width="40.42" height="40.42" transform="translate(665.76 2.65) rotate(5023.30) translate(-20.21 -20.21)"/>
    <use href="#logo" width="40.46" height="40.46" transform="translate(704.79 -7.96) rotate(5028.26) translate(-20.23 -20.23)"/>
    <use href="#logo" width="40.50" height="40.50" transform="translate(744.63 -15.17) rotate(5033.21) translate(-20.25 -20.25)"/>
    <use href="#logo" width="40.53" height="40.53" transform="translate(784.98 -18.91) rotate(5038.16) translate(-20.27 -20.27)"/>
    <use href="#logo" width="40.57" height="40.57" transform="translate(825.53 -19.15) rotate(5043.12) translate(-20.29 -20.29)"/>
    <use href="#logo" width="40.61" height="40.61" transform="translate(866.00 -15.89) rotate(5048.06) translate(-20.30 -20.30)"/>
    <use href="#logo" width="40.64" height="40.64" transform="translate(906.06 -9.15) rotate(5053.01) translate(-20.32 -20.32)"/>
    <use href="#logo" width="40.68" height="40.68" transform="translate(945.43 1.03) rotate(5057.95) translate(-20.34 -20.34)"/>
    <use href="#logo" width="40.72" height="40.72" transform="translate(983.82 14.58) rotate(5062.89) translate(-20.36 -20.36)"/>
    <use href="#logo" width="40.75" height="40.75" transform="translate(1020.93 31.39) rotate(5067.82) translate(-20.38 -20.38)"/>
    <use href="#logo" width="40.79" height="40.79" transform="translate(1056.48 51.35) rotate(5072.76) translate(-20.39 -20.39)"/>
    <use href="#logo" width="40.83" height="40.83" transform="translate(1090.22 74.32) rotate(5077.69) translate(-20.41 -20.41)"/>
    <use href="#logo" width="40.86" height="40.86" transform="translate(1121.89 100.12) rotate(5082.61) translate(-20.43 -20.43)"/>
    <use href="#logo" width="40.90" height="40.90" transform="translate(1151.25 128.57) rotate(5087.54) translate(-20.45 -20.45)"/>
    <use href="#logo" width="40.94" height="40.94" transform="translate(1178.09 159.46) rotate(5092.46) translate(-20.47 -20.47)"/>
    <use href="#logo" width="40.97" height="40.97" transform="translate(1202.19 192.58) rotate(5097.38) translate(-20.49 -20.49)"/>
    <use href="#logo" width="41.01" height="41.01" transform="translate(1223.39 227.66) rotate(5102.29) translate(-20.50 -20.50)"/>
    <use href="#logo" width="41.04" height="41.04" transform="translate(1241.53 264.47) rotate(5107.21) translate(-20.52 -20.52)"/>
    <use href="#logo" width="41.08" height="41.08" transform="translate(1256.45 302.73) rotate(5112.12) translate(-20.54 -20.54)"/>
    <use href="#logo" width="41.12" height="41.12" transform="translate(1268.06 342.16) rotate(5117.03) translate(-20.56 -20.56)"/>
    <use href="#logo" width="41.15" height="41.15" transform="translate(1276.26 382.48) rotate(5121.93) translate(-20.58 -20.58)"/>
    <use href="#logo" width="41.19" height="41.19" transform="translate(1280.99 423.39) rotate(5126.83) translate(-20.60 -20.60)"/>
    <use href="#logo" width="41.23" height="41.23" transform="translate(1282.20 464.58) rotate(5131.73) translate(-20.61 -20.61)"/>
    <use href="#logo" width="41.26" height="41.26" transform="translate(1279.89 505.77) rotate(5136.63) translate(-20.63 -20.63)"/>
    <use href="#logo" width="41.30" height="41.30" transform="translate(1274.07 546.65) rotate(5141.52) translate(-20.65 -20.65)"/>
    <use href="#logo" width="41.34" height="41.34" transform="translate(1264.78 586.91) rotate(5146.41) translate(-20.67 -20.67)"/>
    <use href="#logo" width="41.37" height="41.37" transform="translate(1252.08 626.27) rotate(5151.30) translate(-20.69 -20.69)"/>
    <use href="#logo" width="41.41" height="41.41" transform="translate(1236.05 664.45) rotate(5156.19) translate(-20.71 -20.71)"/>
    <use href="#logo" width="41.45" height="41.45" transform="translate(1216.82 701.15) rotate(5161.07) translate(-20.72 -20.72)"/>
    <use href="#logo" width="41.48" height="41.48" transform="translate(1194.51 736.11) rotate(5165.95) translate(-20.74 -20.74)"/>
    <use href="#logo" width="41.52" height="41.52" transform="translate(1169.29 769.07) rotate(5170.83) translate(-20.76 -20.76)"/>
    <use href="#logo" width="41.56" height="41.56" transform="translate(1141.33 799.80) rotate(5175.70) translate(-20.78 -20.78)"/>
    <use href="#logo" width="41.60" height="41.60" transform="translate(1110.83 828.07) rotate(5180.57) translate(-20.80 -20.80)"/>
    <use href="#logo" width="41.63" height="41.63" transform="translate(1078.02 853.67) rotate(5185.44) translate(-20.82 -20.82)"/>
    <use href="#logo" width="41.67" height="41.67" transform="translate(1043.12 876.41) rotate(5190.31) translate(-20.83 -20.83)"/>
    <use href="#logo" width="41.71" height="41.71" transform="translate(1006.38 896.13) rotate(5195.17) translate(-20.85 -20.85)"/>
    <use href="#logo" width="41.74" height="41.74" transform="translate(968.08 912.67) rotate(5200.04) translate(-20.87 -20.87)"/>
    <use href="#logo" width="42.07" height="42.07" transform="translate(599.85 906.67) rotate(5243.67) translate(-21.04 -21.04)"/>
    <use href="#logo" width="42.11" height="42.11" transform="translate(561.73 888.79) rotate(5248.50) translate(-21.06 -21.06)"/>
    <use href="#logo" width="42.15" height="42.15" transform="translate(525.23 867.75) rotate(5253.33) translate(-21.07 -21.07)"/>
    <use href="#logo" width="42.19" height="42.19" transform="translate(490.60 843.69) rotate(5258.16) translate(-21.09 -21.09)"/>
    <use href="#logo" width="42.22" height="42.22" transform="translate(458.08 816.78) rotate(5262.99) translate(-21.11 -21.11)"/>
    <use href="#logo" width="42.26" height="42.26" transform="translate(427.92 787.20) rotate(5267.82) translate(-21.13 -21.13)"/>
    <use href="#logo" width="42.30" height="42.30" transform="translate(400.33 755.16) rotate(5272.64) translate(-21.15 -21.15)"/>
    <use href="#logo" width="42.33" height="42.33" transform="translate(375.51 720.88) rotate(5277.46) translate(-21.17 -21.17)"/>
    <use href="#logo" width="42.37" height="42.37" transform="translate(353.64 684.61) rotate(5282.27) translate(-21.19 -21.19)"/>
    <use href="#logo" width="42.41" height="42.41" transform="translate(334.87 646.60) rotate(5287.09) translate(-21.20 -21.20)"/>
    <use href="#logo" width="42.44" height="42.44" transform="translate(319.35 607.11) rotate(5291.90) translate(-21.22 -21.22)"/>
    <use href="#logo" width="42.48" height="42.48" transform="translate(307.18 566.42) rotate(5296.71) translate(-21.24 -21.24)"/>
    <use href="#logo" width="42.52" height="42.52" transform="translate(298.45 524.82) rotate(5301.52) translate(-21.26 -21.26)"/>
    <use href="#logo" width="42.56" height="42.56" transform="translate(293.24 482.60) rotate(5306.32) translate(-21.28 -21.28)"/>
    <use href="#logo" width="42.59" height="42.59" transform="translate(291.58 440.05) rotate(5311.12) translate(-21.30 -21.30)"/>
    <use href="#logo" width="42.63" height="42.63" transform="translate(293.49 397.48) rotate(5315.92) translate(-21.31 -21.31)"/>
    <use href="#logo" width="42.67" height="42.67" transform="translate(298.96 355.18) rotate(5320.72) translate(-21.33 -21.33)"/>
    <use href="#logo" width="42.70" height="42.70" transform="translate(307.95 313.45) rotate(5325.51) translate(-21.35 -21.35)"/>
    <use href="#logo" width="42.74" height="42.74" transform="translate(320.41 272.58) rotate(5330.30) translate(-21.37 -21.37)"/>
    <use href="#logo" width="42.78" height="42.78" transform="translate(336.26 232.86) rotate(5335.09) translate(-21.39 -21.39)"/>
    <use href="#logo" width="42.82" height="42.82" transform="translate(355.38 194.56) rotate(5339.88) translate(-21.41 -21.41)"/>
    <use href="#logo" width="42.85" height="42.85" transform="translate(377.64 157.97) rotate(5344.66) translate(-21.43 -21.43)"/>
    <use href="#logo" width="42.89" height="42.89" transform="translate(402.91 123.32) rotate(5349.44) translate(-21.44 -21.44)"/>
    <use href="#logo" width="42.93" height="42.93" transform="translate(430.99 90.88) rotate(5354.22) translate(-21.46 -21.46)"/>
    <use href="#logo" width="42.96" height="42.96" transform="translate(461.71 60.86) rotate(5359.00) translate(-21.48 -21.48)"/>
    <use href="#logo" width="43.00" height="43.00" transform="translate(494.85 33.48) rotate(5363.77) translate(-21.50 -21.50)"/>
    <use href="#logo" width="43.04" height="43.04" transform="translate(530.19 8.93) rotate(5368.54) translate(-21.52 -21.52)"/>
    <use href="#logo" width="43.08" height="43.08" transform="translate(567.47 -12.61) rotate(5373.31) translate(-21.54 -21.54)"/>
    <use href="#logo" width="43.52" height="43.52" transform="translate(1066.00 -4.17) rotate(5430.36) translate(-21.76 -21.76)"/>
    <use href="#logo" width="43.56" height="43.56" transform="translate(1103.01 18.77) rotate(5435.09) translate(-21.78 -21.78)"/>
    <use href="#logo" width="43.60" height="43.60" transform="translate(1138.04 44.70) rotate(5439.83) translate(-21.80 -21.80)"/>
    <use href="#logo" width="43.64" height="43.64" transform="translate(1170.83 73.47) rotate(5444.56) translate(-21.82 -21.82)"/>
    <use href="#logo" width="43.67" height="43.67" transform="translate(1201.17 104.87) rotate(5449.29) translate(-21.84 -21.84)"/>
    <use href="#logo" width="43.71" height="43.71" transform="translate(1228.83 138.69) rotate(5454.02) translate(-21.86 -21.86)"/>
    <use href="#logo" width="43.75" height="43.75" transform="translate(1253.64 174.71) rotate(5458.75) translate(-21.87 -21.87)"/>
    <use href="#logo" width="43.79" height="43.79" transform="translate(1275.41 212.69) rotate(5463.47) translate(-21.89 -21.89)"/>
    <use href="#logo" width="43.82" height="43.82" transform="translate(1294.00 252.36) rotate(5468.19) translate(-21.91 -21.91)"/>
    <use href="#logo" width="43.86" height="43.86" transform="translate(1309.27 293.46) rotate(5472.91) translate(-21.93 -21.93)"/>
    <use href="#logo" width="43.90" height="43.90" transform="translate(1321.12 335.71) rotate(5477.63) translate(-21.95 -21.95)"/>
    <use href="#logo" width="43.94" height="43.94" transform="translate(1329.46 378.84) rotate(5482.35) translate(-21.97 -21.97)"/>
    <use href="#logo" width="43.97" height="43.97" transform="translate(1334.24 422.54) rotate(5487.06) translate(-21.99 -21.99)"/>
    <use href="#logo" width="44.01" height="44.01" transform="translate(1335.41 466.52) rotate(5491.77) translate(-22.01 -22.01)"/>
    <use href="#logo" width="44.05" height="44.05" transform="translate(1332.96 510.49) rotate(5496.47) translate(-22.02 -22.02)"/>
    <use href="#logo" width="44.09" height="44.09" transform="translate(1326.91 554.14) rotate(5501.18) translate(-22.04 -22.04)"/>
    <use href="#logo" width="44.13" height="44.13" transform="translate(1317.29 597.19) rotate(5505.88) translate(-22.06 -22.06)"/>
    <use href="#logo" width="44.16" height="44.16" transform="translate(1304.16 639.34) rotate(5510.58) translate(-22.08 -22.08)"/>
    <use href="#logo" width="44.20" height="44.20" transform="translate(1287.61 680.31) rotate(5515.28) translate(-22.10 -22.10)"/>
    <use href="#logo" width="44.24" height="44.24" transform="translate(1267.74 719.82) rotate(5519.98) translate(-22.12 -22.12)"/>
    <use href="#logo" width="44.28" height="44.28" transform="translate(1244.68 757.60) rotate(5524.67) translate(-22.14 -22.14)"/>
    <use href="#logo" width="44.31" height="44.31" transform="translate(1218.59 793.40) rotate(5529.36) translate(-22.16 -22.16)"/>
    <use href="#logo" width="44.35" height="44.35" transform="translate(1189.63 826.97) rotate(5534.05) translate(-22.18 -22.18)"/>
    <use href="#logo" width="44.39" height="44.39" transform="translate(1158.00 858.09) rotate(5538.74) translate(-22.19 -22.19)"/>
    <use href="#logo" width="44.43" height="44.43" transform="translate(1123.90 886.55) rotate(5543.43) translate(-22.21 -22.21)"/>
    <use href="#logo" width="44.46" height="44.46" transform="translate(1087.56 912.15) rotate(5548.11) translate(-22.23 -22.23)"/>
    <use href="#logo" width="44.99" height="44.99" transform="translate(494.51 912.70) rotate(5613.43) translate(-22.50 -22.50)"/>
    <use href="#logo" width="45.03" height="45.03" transform="translate(457.56 886.99) rotate(5618.08) translate(-22.52 -22.52)"/>
    <use href="#logo" width="45.07" height="45.07" transform="translate(422.79 858.34) rotate(5622.73) translate(-22.54 -22.54)"/>
    <use href="#logo" width="45.11" height="45.11" transform="translate(390.42 826.94) rotate(5627.38) translate(-22.55 -22.55)"/>
    <use href="#logo" width="45.15" height="45.15" transform="translate(360.68 792.99) rotate(5632.02) translate(-22.57 -22.57)"/>
    <use href="#logo" width="45.18" height="45.18" transform="translate(333.76 756.72) rotate(5636.66) translate(-22.59 -22.59)"/>
    <use href="#logo" width="45.22" height="45.22" transform="translate(309.84 718.36) rotate(5641.30) translate(-22.61 -22.61)"/>
    <use href="#logo" width="45.26" height="45.26" transform="translate(289.08 678.16) rotate(5645.94) translate(-22.63 -22.63)"/>
    <use href="#logo" width="45.30" height="45.30" transform="translate(271.63 636.37) rotate(5650.57) translate(-22.65 -22.65)"/>
    <use href="#logo" width="45.34" height="45.34" transform="translate(257.60 593.27) rotate(5655.20) translate(-22.67 -22.67)"/>
    <use href="#logo" width="45.38" height="45.38" transform="translate(247.09 549.15) rotate(5659.83) translate(-22.69 -22.69)"/>
    <use href="#logo" width="45.41" height="45.41" transform="translate(240.17 504.28) rotate(5664.46) translate(-22.71 -22.71)"/>
    <use href="#logo" width="45.45" height="45.45" transform="translate(236.88 458.96) rotate(5669.09) translate(-22.73 -22.73)"/>
    <use href="#logo" width="45.49" height="45.49" transform="translate(237.27 413.49) rotate(5673.71) translate(-22.74 -22.74)"/>
    <use href="#logo" width="45.53" height="45.53" transform="translate(241.31 368.16) rotate(5678.33) translate(-22.76 -22.76)"/>
    <use href="#logo" width="45.57" height="45.57" transform="translate(249.01 323.26) rotate(5682.95) translate(-22.78 -22.78)"/>
    <use href="#logo" width="45.60" height="45.60" transform="translate(260.31 279.09) rotate(5687.57) translate(-22.80 -22.80)"/>
    <use href="#logo" width="45.64" height="45.64" transform="translate(275.13 235.94) rotate(5692.19) translate(-22.82 -22.82)"/>
    <use href="#logo" width="45.68" height="45.68" transform="translate(293.40 194.09) rotate(5696.80) translate(-22.84 -22.84)"/>
    <use href="#logo" width="45.72" height="45.72" transform="translate(314.99 153.81) rotate(5701.41) translate(-22.86 -22.86)"/>
    <use href="#logo" width="45.76" height="45.76" transform="translate(339.77 115.36) rotate(5706.02) translate(-22.88 -22.88)"/>
    <use href="#logo" width="45.80" height="45.80" transform="translate(367.58 78.99) rotate(5710.63) translate(-22.90 -22.90)"/>
    <use href="#logo" width="45.83" height="45.83" transform="translate(398.25 44.95) rotate(5715.23) translate(-22.92 -22.92)"/>
    <use href="#logo" width="45.87" height="45.87" transform="translate(431.58 13.46) rotate(5719.84) translate(-22.94 -22.94)"/>
    <use href="#logo" width="45.91" height="45.91" transform="translate(467.36 -15.29) rotate(5724.44) translate(-22.96 -22.96)"/>
    <use href="#logo" width="46.53" height="46.53" transform="translate(1157.60 -11.37) rotate(5797.78) translate(-23.26 -23.26)"/>
    <use href="#logo" width="46.56" height="46.56" transform="translate(1193.70 18.03) rotate(5802.35) translate(-23.28 -23.28)"/>
    <use href="#logo" width="46.60" height="46.60" transform="translate(1227.37 50.22) rotate(5806.91) translate(-23.30 -23.30)"/>
    <use href="#logo" width="46.64" height="46.64" transform="translate(1258.39 85.03) rotate(5811.47) translate(-23.32 -23.32)"/>
    <use href="#logo" width="46.68" height="46.68" transform="translate(1286.58 122.22) rotate(5816.03) translate(-23.34 -23.34)"/>
    <use href="#logo" width="46.72" height="46.72" transform="translate(1311.73 161.57) rotate(5820.59) translate(-23.36 -23.36)"/>
    <use href="#logo" width="46.76" height="46.76" transform="translate(1333.70 202.83) rotate(5825.15) translate(-23.38 -23.38)"/>
    <use href="#logo" width="46.80" height="46.80" transform="translate(1352.34 245.74) rotate(5829.70) translate(-23.40 -23.40)"/>
    <use href="#logo" width="46.83" height="46.83" transform="translate(1367.52 290.02) rotate(5834.26) translate(-23.42 -23.42)"/>
    <use href="#logo" width="46.87" height="46.87" transform="translate(1379.15 335.42) rotate(5838.81) translate(-23.44 -23.44)"/>
    <use href="#logo" width="46.91" height="46.91" transform="translate(1387.15 381.62) rotate(5843.36) translate(-23.46 -23.46)"/>
    <use href="#logo" width="46.95" height="46.95" transform="translate(1391.46 428.36) rotate(5847.90) translate(-23.48 -23.48)"/>
    <use href="#logo" width="46.99" height="46.99" transform="translate(1392.06 475.33) rotate(5852.45) translate(-23.49 -23.49)"/>
    <use href="#logo" width="47.03" height="47.03" transform="translate(1388.93 522.24) rotate(5856.99) translate(-23.51 -23.51)"/>
    <use href="#logo" width="47.07" height="47.07" transform="translate(1382.09 568.79) rotate(5861.53) translate(-23.53 -23.53)"/>
    <use href="#logo" width="47.11" height="47.11" transform="translate(1371.57 614.69) rotate(5866.07) translate(-23.55 -23.55)"/>
    <use href="#logo" width="47.14" height="47.14" transform="translate(1357.45 659.65) rotate(5870.61) translate(-23.57 -23.57)"/>
    <use href="#logo" width="47.18" height="47.18" transform="translate(1339.79 703.40) rotate(5875.15) translate(-23.59 -23.59)"/>
    <use href="#logo" width="47.22" height="47.22" transform="translate(1318.72 745.64) rotate(5879.68) translate(-23.61 -23.61)"/>
    <use href="#logo" width="47.26" height="47.26" transform="translate(1294.35 786.12) rotate(5884.21) translate(-23.63 -23.63)"/>
    <use href="#logo" width="47.30" height="47.30" transform="translate(1266.84 824.57) rotate(5888.74) translate(-23.65 -23.65)"/>
    <use href="#logo" width="47.34" height="47.34" transform="translate(1236.36 860.77) rotate(5893.27) translate(-23.67 -23.67)"/>
    <use href="#logo" width="47.38" height="47.38" transform="translate(1203.08 894.47) rotate(5897.80) translate(-23.69 -23.69)"/>
    <use href="#logo" width="48.12" height="48.12" transform="translate(377.72 896.03) rotate(5983.43) translate(-24.06 -24.06)"/>
    <use href="#logo" width="48.16" height="48.16" transform="translate(343.55 862.12) rotate(5987.92) translate(-24.08 -24.08)"/>
    <use href="#logo" width="48.20" height="48.20" transform="translate(312.11 825.60) rotate(5992.41) translate(-24.10 -24.10)"/>
    <use href="#logo" width="48.24" height="48.24" transform="translate(283.61 786.71) rotate(5996.89) translate(-24.12 -24.12)"/>
    <use href="#logo" width="48.28" height="48.28" transform="translate(258.21 745.67) rotate(6001.38) translate(-24.14 -24.14)"/>
  </g>
</svg>