<svg preserveAspectRatio="none" overflow="visible" style="display: block;" width="20" height="20" viewBox="0 0 20 20" fill="none" xmlns="http://www.w3.org/2000/svg">
<g id="Frame">
<path id="Vector" opacity="0.2" d="M17.5 6.25L10 10.625L2.5 6.25L10 1.875L17.5 6.25Z" fill="#414651"/>
<path id="Vector_2" d="M18.75 15.625C18.75 15.7908 18.6842 15.9497 18.5669 16.0669C18.4497 16.1842 18.2908 16.25 18.125 16.25H16.875V17.5C16.875 17.6658 16.8092 17.8247 16.6919 17.9419C16.5747 18.0592 16.4158 18.125 16.25 18.125C16.0842 18.125 15.9253 18.0592 15.8081 17.9419C15.6908 17.8247 15.625 17.6658 15.625 17.5V16.25H14.375C14.2092 16.25 14.0503 16.1842 13.9331 16.0669C13.8158 15.9497 13.75 15.7908 13.75 15.625C13.75 15.4592 13.8158 15.3003 13.9331 15.1831C14.0503 15.0658 14.2092 15 14.375 15H15.625V13.75C15.625 13.5842 15.6908 13.4253 15.8081 13.3081C15.9253 13.1908 16.0842 13.125 16.25 13.125C16.4158 13.125 16.5747 13.1908 16.6919 13.3081C16.8092 13.4253 16.875 13.5842 16.875 13.75V15H18.125C18.2908 15 18.4497 15.0658 18.5669 15.1831C18.6842 15.3003 18.75 15.4592 18.75 15.625ZM17.1875 9.46016L10 13.6516L2.8125 9.46016C2.67019 9.3893 2.50623 9.37534 2.35399 9.42111C2.20175 9.46688 2.07267 9.56894 1.99303 9.70653C1.91338 9.84411 1.88916 10.0069 1.92529 10.1617C1.96142 10.3165 2.05518 10.4517 2.1875 10.5398L9.6875 14.9148C9.78307 14.9706 9.89171 14.9999 10.0023 14.9999C10.113 14.9999 10.2216 14.9706 10.3172 14.9148L17.8172 10.5398C17.8892 10.4991 17.9524 10.4444 18.0032 10.379C18.0539 10.3137 18.0912 10.2388 18.1128 10.1589C18.1344 10.079 18.1399 9.99565 18.129 9.91361C18.1181 9.83156 18.091 9.7525 18.0493 9.681C18.0076 9.60951 17.9521 9.54701 17.8861 9.49713C17.82 9.44725 17.7447 9.41098 17.6646 9.39043C17.5844 9.36989 17.5009 9.36547 17.419 9.37744C17.3371 9.38941 17.2584 9.41753 17.1875 9.46016ZM1.875 6.25C1.87525 6.14053 1.90425 6.03305 1.95909 5.93831C2.01393 5.84357 2.0927 5.76489 2.1875 5.71016L9.6875 1.33516C9.78307 1.27943 9.89171 1.25006 10.0023 1.25006C10.113 1.25006 10.2216 1.27943 10.3172 1.33516L17.8172 5.71016C17.9115 5.7652 17.9898 5.84401 18.0442 5.93873C18.0986 6.03345 18.1272 6.14077 18.1272 6.25C18.1272 6.35923 18.0986 6.46655 18.0442 6.56127C17.9898 6.65599 17.9115 6.7348 17.8172 6.78984L10.3172 11.1648C10.2216 11.2206 10.113 11.2499 10.0023 11.2499C9.89171 11.2499 9.78307 11.2206 9.6875 11.1648L2.1875 6.78984C2.0927 6.73511 2.01393 6.65643 1.95909 6.56169C1.90425 6.46695 1.87525 6.35947 1.875 6.25ZM3.74063 6.25L10 9.90156L16.2594 6.25L10 2.59844L3.74063 6.25ZM10.9375 16.8562L10 17.4031L2.8125 13.2102C2.67019 13.1393 2.50623 13.1253 2.35399 13.1711C2.20175 13.2169 2.07267 13.3189 1.99303 13.4565C1.91338 13.5941 1.88916 13.7569 1.92529 13.9117C1.96142 14.0665 2.05518 14.2017 2.1875 14.2898L9.6875 18.6648C9.78307 18.7206 9.89171 18.7499 10.0023 18.7499C10.113 18.7499 10.2216 18.7206 10.3172 18.6648L11.5672 17.9359C11.6392 17.8952 11.7024 17.8405 11.7532 17.7751C11.8039 17.7098 11.8412 17.6349 11.8628 17.555C11.8844 17.4751 11.8899 17.3917 11.879 17.3097C11.8681 17.2277 11.841 17.1486 11.7993 17.0771C11.7576 17.0056 11.7021 16.9431 11.6361 16.8932C11.57 16.8433 11.4947 16.8071 11.4146 16.7865C11.3344 16.766 11.2509 16.7616 11.169 16.7735C11.0871 16.7855 11.0084 16.8136 10.9375 16.8562Z" fill="#414651"/>
</g>
</svg>
