<svg preserveAspectRatio="none" overflow="visible" style="display: block;" width="20" height="20" viewBox="0 0 20 20" fill="none" xmlns="http://www.w3.org/2000/svg">
<g id="Frame">
<path id="Vector" opacity="0.2" d="M8.75 6.25C8.75 6.74445 8.60338 7.2278 8.32867 7.63893C8.05397 8.05005 7.66352 8.37048 7.20671 8.5597C6.74989 8.74892 6.24723 8.79843 5.76227 8.70196C5.27732 8.6055 4.83186 8.3674 4.48223 8.01777C4.1326 7.66814 3.8945 7.22268 3.79804 6.73773C3.70157 6.25277 3.75108 5.75011 3.9403 5.29329C4.12952 4.83648 4.44995 4.44603 4.86107 4.17133C5.2722 3.89662 5.75555 3.75 6.25 3.75C6.91304 3.75 7.54893 4.01339 8.01777 4.48223C8.48661 4.95107 8.75 5.58696 8.75 6.25ZM13.75 3.75C13.2555 3.75 12.7722 3.89662 12.3611 4.17133C11.95 4.44603 11.6295 4.83648 11.4403 5.29329C11.2511 5.75011 11.2016 6.25277 11.298 6.73773C11.3945 7.22268 11.6326 7.66814 11.9822 8.01777C12.3319 8.3674 12.7773 8.6055 13.2623 8.70196C13.7472 8.79843 14.2499 8.74892 14.7067 8.5597C15.1635 8.37048 15.554 8.05005 15.8287 7.63893C16.1034 7.2278 16.25 6.74445 16.25 6.25C16.25 5.58696 15.9866 4.95107 15.5178 4.48223C15.0489 4.01339 14.413 3.75 13.75 3.75ZM6.25 11.25C5.75555 11.25 5.2722 11.3966 4.86107 11.6713C4.44995 11.946 4.12952 12.3365 3.9403 12.7933C3.75108 13.2501 3.70157 13.7528 3.79804 14.2377C3.8945 14.7227 4.1326 15.1681 4.48223 15.5178C4.83186 15.8674 5.27732 16.1055 5.76227 16.202C6.24723 16.2984 6.74989 16.2489 7.20671 16.0597C7.66352 15.8705 8.05397 15.55 8.32867 15.1389C8.60338 14.7278 8.75 14.2445 8.75 13.75C8.75 13.087 8.48661 12.4511 8.01777 11.9822C7.54893 11.5134 6.91304 11.25 6.25 11.25Z" fill="#414651"/>
<path id="Vector_2" d="M6.25 3.125C5.63193 3.125 5.02775 3.30828 4.51384 3.65166C3.99994 3.99504 3.5994 4.4831 3.36288 5.05411C3.12635 5.62513 3.06447 6.25347 3.18505 6.85966C3.30562 7.46585 3.60325 8.02267 4.04029 8.45971C4.47733 8.89675 5.03415 9.19438 5.64034 9.31495C6.24653 9.43553 6.87487 9.37365 7.44589 9.13712C8.0169 8.9006 8.50496 8.50006 8.84834 7.98616C9.19172 7.47225 9.375 6.86807 9.375 6.25C9.375 5.4212 9.04576 4.62634 8.45971 4.04029C7.87366 3.45424 7.0788 3.125 6.25 3.125ZM6.25 8.125C5.87916 8.125 5.51665 8.01503 5.20831 7.80901C4.89996 7.60298 4.65964 7.31014 4.51773 6.96753C4.37581 6.62492 4.33868 6.24792 4.41103 5.88421C4.48337 5.52049 4.66195 5.1864 4.92417 4.92417C5.1864 4.66195 5.52049 4.48337 5.88421 4.41103C6.24792 4.33868 6.62492 4.37581 6.96753 4.51773C7.31014 4.65964 7.60298 4.89996 7.80901 5.20831C8.01503 5.51665 8.125 5.87916 8.125 6.25C8.125 6.74728 7.92746 7.22419 7.57583 7.57583C7.22419 7.92746 6.74728 8.125 6.25 8.125ZM13.75 9.375C14.3681 9.375 14.9723 9.19172 15.4862 8.84834C16.0001 8.50496 16.4006 8.0169 16.6371 7.44589C16.8736 6.87487 16.9355 6.24653 16.815 5.64034C16.6944 5.03415 16.3967 4.47733 15.9597 4.04029C15.5227 3.60325 14.9658 3.30562 14.3597 3.18505C13.7535 3.06447 13.1251 3.12635 12.5541 3.36288C11.9831 3.5994 11.495 3.99994 11.1517 4.51384C10.8083 5.02775 10.625 5.63193 10.625 6.25C10.625 7.0788 10.9542 7.87366 11.5403 8.45971C12.1263 9.04576 12.9212 9.375 13.75 9.375ZM13.75 4.375C14.1208 4.375 14.4834 4.48497 14.7917 4.69099C15.1 4.89702 15.3404 5.18986 15.4823 5.53247C15.6242 5.87508 15.6613 6.25208 15.589 6.61579C15.5166 6.97951 15.338 7.3136 15.0758 7.57583C14.8136 7.83805 14.4795 8.01663 14.1158 8.08897C13.7521 8.16132 13.3751 8.12419 13.0325 7.98227C12.6899 7.84036 12.397 7.60004 12.191 7.29169C11.985 6.98335 11.875 6.62084 11.875 6.25C11.875 5.75272 12.0725 5.27581 12.4242 4.92417C12.7758 4.57254 13.2527 4.375 13.75 4.375ZM6.25 10.625C5.63193 10.625 5.02775 10.8083 4.51384 11.1517C3.99994 11.495 3.5994 11.9831 3.36288 12.5541C3.12635 13.1251 3.06447 13.7535 3.18505 14.3597C3.30562 14.9658 3.60325 15.5227 4.04029 15.9597C4.47733 16.3967 5.03415 16.6944 5.64034 16.815C6.24653 16.9355 6.87487 16.8736 7.44589 16.6371C8.0169 16.4006 8.50496 16.0001 8.84834 15.4862C9.19172 14.9723 9.375 14.3681 9.375 13.75C9.375 12.9212 9.04576 12.1263 8.45971 11.5403C7.87366 10.9542 7.0788 10.625 6.25 10.625ZM6.25 15.625C5.87916 15.625 5.51665 15.515 5.20831 15.309C4.89996 15.103 4.65964 14.8101 4.51773 14.4675C4.37581 14.1249 4.33868 13.7479 4.41103 13.3842C4.48337 13.0205 4.66195 12.6864 4.92417 12.4242C5.1864 12.162 5.52049 11.9834 5.88421 11.911C6.24792 11.8387 6.62492 11.8758 6.96753 12.0177C7.31014 12.1596 7.60298 12.4 7.80901 12.7083C8.01503 13.0166 8.125 13.3792 8.125 13.75C8.125 14.2473 7.92746 14.7242 7.57583 15.0758C7.22419 15.4275 6.74728 15.625 6.25 15.625ZM16.875 13.75C16.875 13.9158 16.8092 14.0747 16.6919 14.1919C16.5747 14.3092 16.4158 14.375 16.25 14.375H14.375V16.25C14.375 16.4158 14.3092 16.5747 14.1919 16.6919C14.0747 16.8092 13.9158 16.875 13.75 16.875C13.5842 16.875 13.4253 16.8092 13.3081 16.6919C13.1908 16.5747 13.125 16.4158 13.125 16.25V14.375H11.25C11.0842 14.375 10.9253 14.3092 10.8081 14.1919C10.6908 14.0747 10.625 13.9158 10.625 13.75C10.625 13.5842 10.6908 13.4253 10.8081 13.3081C10.9253 13.1908 11.0842 13.125 11.25 13.125H13.125V11.25C13.125 11.0842 13.1908 10.9253 13.3081 10.8081C13.4253 10.6908 13.5842 10.625 13.75 10.625C13.9158 10.625 14.0747 10.6908 14.1919 10.8081C14.3092 10.9253 14.375 11.0842 14.375 11.25V13.125H16.25C16.4158 13.125 16.5747 13.1908 16.6919 13.3081C16.8092 13.4253 16.875 13.5842 16.875 13.75Z" fill="#414651"/>
</g>
</svg>
