<svg xmlns="http://www.w3.org/2000/svg" viewBox="0 0 1080 540" width="1080" height="540">
  <defs>
    <symbol id="logo" viewBox="0 0 51 47" preserveAspectRatio="none"><path d="M45.0607 19.9922C45.0607 23.1979 43.7819 26.2116 41.455 28.4802C39.0561 30.8185 35.9041 31.9899 32.7521 31.9899C30.2161 31.9899 27.6756 31.231 25.5327 29.7179C26.055 29.351 26.551 28.9385 27.0207 28.4802L29.343 26.2162C30.4036 26.7705 31.5761 27.0459 32.7521 27.0459C34.6036 27.0459 36.455 26.3579 37.8664 24.9819C39.231 23.6482 39.9841 21.8813 39.9841 19.9968H45.0607V19.9922Z" fill="currentColor"/><path d="M45.0595 19.99H39.9829C39.9829 18.1054 39.2309 16.3385 37.8663 15.0037C36.4549 13.6288 34.6035 12.9408 32.7509 12.9408C31.4378 12.9408 30.1258 13.2871 28.9703 13.9785C28.496 14.262 28.0469 14.6037 27.6366 15.0037L25.0789 17.4974L20.5886 21.8745C20.0926 22.358 19.4423 22.6003 18.792 22.6003C18.1418 22.6003 17.4915 22.358 16.9955 21.8745C16.0035 20.9077 16.0035 19.3397 16.9955 18.3763L21.7178 13.774L24.04 11.5111C24.5098 11.0517 25.0058 10.6391 25.528 10.2723C30.3395 6.87455 37.1177 7.28712 41.4503 11.5111C43.776 13.7785 45.0549 16.7923 45.0549 19.9945L45.0595 19.99Z" fill="currentColor"/><path d="M34.0594 21.6101L29.3383 26.2124L27.016 28.4752C26.5451 28.9347 26.0491 29.3472 25.5269 29.7141C23.3851 31.2272 20.8446 31.9861 18.3086 31.9861C15.1566 31.9861 12.0046 30.8147 9.60571 28.4752C7.27886 26.2078 6 23.1941 6 19.9884H11.0766C11.0766 21.8718 11.8286 23.6444 13.1931 24.9735C15.6011 27.321 19.3006 27.6627 22.0891 25.9998C22.5634 25.7164 23.0126 25.3747 23.4274 24.9735L25.9806 22.4855L30.4674 18.1118H30.4709C31.4629 17.1404 33.072 17.1404 34.0594 18.1084C35.0514 19.0752 35.0514 20.6421 34.0594 21.6055V21.6101Z" fill="currentColor"/><path d="M25.5269 10.2724C25.0057 10.6392 24.5097 11.0518 24.0389 11.5101L21.7166 13.7741C20.656 13.2198 19.48 12.9444 18.3086 12.9444C16.456 12.9444 14.6046 13.6324 13.1931 15.0084C11.8286 16.3421 11.0766 18.1101 11.0766 19.9946H6C6 16.7878 7.27886 13.7741 9.60571 11.5101C13.9371 7.28722 20.72 6.87465 25.5314 10.2724H25.5269Z" fill="currentColor"/></symbol>
    <clipPath id="frame">
      <rect width="1080" height="540"/>
    </clipPath>
  </defs>
  <g clip-path="url(#frame)" color="rgb(60, 56, 50)" opacity="0.1">
    <use href="#logo" width="16.80" height="16.80" transform="translate(550.00 270.00) rotate(90.00) translate(-8.40 -8.40)"/>
    <use href="#logo" width="17.24" height="17.24" transform="translate(538.31 285.52) rotate(186.23) translate(-8.62 -8.62)"/>
    <use href="#logo" width="17.54" height="17.54" transform="translate(521.83 276.79) rotate(249.50) translate(-8.77 -8.77)"/>
    <use href="#logo" width="17.79" height="17.79" transform="translate(520.73 258.28) rotate(301.31) translate(-8.90 -8.90)"/>
    <use href="#logo" width="18.02" height="18.02" transform="translate(534.09 245.35) rotate(346.51) translate(-9.01 -9.01)"/>
    <use href="#logo" width="18.22" height="18.22" transform="translate(552.77 245.20) rotate(387.23) translate(-9.11 -9.11)"/>
    <use href="#logo" width="18.41" height="18.41" transform="translate(567.35 257.04) rotate(424.65) translate(-9.20 -9.20)"/>
    <use href="#logo" width="18.58" height="18.58" transform="translate(572.04 275.36) rotate(459.50) translate(-9.29 -9.29)"/>
    <use href="#logo" width="18.75" height="18.75" transform="translate(565.60 293.28) rotate(492.27) translate(-9.38 -9.38)"/>
    <use href="#logo" width="18.91" height="18.91" transform="translate(550.51 305.08) rotate(523.32) translate(-9.46 -9.46)"/>
    <use href="#logo" width="19.07" height="19.07" transform="translate(531.39 307.59) rotate(552.91) translate(-9.53 -9.53)"/>
    <use href="#logo" width="19.22" height="19.22" transform="translate(513.34 300.42) rotate(581.23) translate(-9.61 -9.61)"/>
    <use href="#logo" width="19.36" height="19.36" transform="translate(500.69 285.52) rotate(608.45) translate(-9.68 -9.68)"/>
    <use href="#logo" width="19.50" height="19.50" transform="translate(496.12 266.39) rotate(634.70) translate(-9.75 -9.75)"/>
    <use href="#logo" width="19.64" height="19.64" transform="translate(500.42 247.07) rotate(660.08) translate(-9.82 -9.82)"/>
    <use href="#logo" width="19.77" height="19.77" transform="translate(512.58 231.31) rotate(684.68) translate(-9.89 -9.89)"/>
    <use href="#logo" width="19.90" height="19.90" transform="translate(530.27 221.91) rotate(708.56) translate(-9.95 -9.95)"/>
    <use href="#logo" width="20.03" height="20.03" transform="translate(550.37 220.41) rotate(731.81) translate(-10.01 -10.01)"/>
    <use href="#logo" width="20.15" height="20.15" transform="translate(569.56 226.92) rotate(754.45) translate(-10.08 -10.08)"/>
    <use href="#logo" width="20.28" height="20.28" transform="translate(584.88 240.36) rotate(776.56) translate(-10.14 -10.14)"/>
    <use href="#logo" width="20.40" height="20.40" transform="translate(594.13 258.65) rotate(798.16) translate(-10.20 -10.20)"/>
    <use href="#logo" width="20.52" height="20.52" transform="translate(596.06 279.17) rotate(819.29) translate(-10.26 -10.26)"/>
    <use href="#logo" width="20.63" height="20.63" transform="translate(590.48 299.12) rotate(839.98) translate(-10.32 -10.32)"/>
    <use href="#logo" width="20.75" height="20.75" transform="translate(578.18 315.94) rotate(860.27) translate(-10.37 -10.37)"/>
    <use href="#logo" width="20.86" height="20.86" transform="translate(560.75 327.54) rotate(880.17) translate(-10.43 -10.43)"/>
    <use href="#logo" width="20.98" height="20.98" transform="translate(540.31 332.58) rotate(899.71) translate(-10.49 -10.49)"/>
    <use href="#logo" width="21.09" height="21.09" transform="translate(519.26 330.52) rotate(918.92) translate(-10.54 -10.54)"/>
    <use href="#logo" width="21.20" height="21.20" transform="translate(499.94 321.65) rotate(937.80) translate(-10.60 -10.60)"/>
    <use href="#logo" width="21.31" height="21.31" transform="translate(484.43 306.95) rotate(956.38) translate(-10.65 -10.65)"/>
    <use href="#logo" width="21.41" height="21.41" transform="translate(474.34 287.99) rotate(974.67) translate(-10.71 -10.71)"/>
    <use href="#logo" width="21.52" height="21.52" transform="translate(470.65 266.74) rotate(992.69) translate(-10.76 -10.76)"/>
    <use href="#logo" width="21.62" height="21.62" transform="translate(473.71 245.27) rotate(1010.45) translate(-10.81 -10.81)"/>
    <use href="#logo" width="21.73" height="21.73" transform="translate(483.19 225.66) rotate(1027.97) translate(-10.86 -10.86)"/>
    <use href="#logo" width="21.83" height="21.83" transform="translate(498.17 209.72) rotate(1045.24) translate(-10.92 -10.92)"/>
    <use href="#logo" width="21.94" height="21.94" transform="translate(517.29 198.88) rotate(1062.29) translate(-10.97 -10.97)"/>
    <use href="#logo" width="22.04" height="22.04" transform="translate(538.84 194.07) rotate(1079.13) translate(-11.02 -11.02)"/>
    <use href="#logo" width="22.14" height="22.14" transform="translate(560.96 195.68) rotate(1095.75) translate(-11.07 -11.07)"/>
    <use href="#logo" width="22.24" height="22.24" transform="translate(581.80 203.58) rotate(1112.18) translate(-11.12 -11.12)"/>
    <use href="#logo" width="22.34" height="22.34" transform="translate(599.64 217.08) rotate(1128.42) translate(-11.17 -11.17)"/>
    <use href="#logo" width="22.44" height="22.44" transform="translate(613.07 235.10) rotate(1144.47) translate(-11.22 -11.22)"/>
    <use href="#logo" width="22.54" height="22.54" transform="translate(621.05 256.21) rotate(1160.35) translate(-11.27 -11.27)"/>
    <use href="#logo" width="22.63" height="22.63" transform="translate(622.98 278.80) rotate(1176.05) translate(-11.32 -11.32)"/>
    <use href="#logo" width="22.73" height="22.73" transform="translate(618.72 301.16) rotate(1191.59) translate(-11.37 -11.37)"/>
    <use href="#logo" width="22.83" height="22.83" transform="translate(608.61 321.66) rotate(1206.98) translate(-11.41 -11.41)"/>
    <use href="#logo" width="22.92" height="22.92" transform="translate(593.37 338.82) rotate(1222.21) translate(-11.46 -11.46)"/>
    <use href="#logo" width="23.02" height="23.02" transform="translate(574.08 351.44) rotate(1237.29) translate(-11.51 -11.51)"/>
    <use href="#logo" width="23.11" height="23.11" transform="translate(552.10 358.66) rotate(1252.23) translate(-11.56 -11.56)"/>
    <use href="#logo" width="23.21" height="23.21" transform="translate(528.90 359.99) rotate(1267.03) translate(-11.60 -11.60)"/>
    <use href="#logo" width="23.30" height="23.30" transform="translate(506.05 355.34) rotate(1281.70) translate(-11.65 -11.65)"/>
    <use href="#logo" width="23.40" height="23.40" transform="translate(485.02 345.04) rotate(1296.23) translate(-11.70 -11.70)"/>
    <use href="#logo" width="23.49" height="23.49" transform="translate(467.17 329.74) rotate(1310.64) translate(-11.74 -11.74)"/>
    <use href="#logo" width="23.58" height="23.58" transform="translate(453.62 310.41) rotate(1324.93) translate(-11.79 -11.79)"/>
    <use href="#logo" width="23.67" height="23.67" transform="translate(445.22 288.26) rotate(1339.10) translate(-11.84 -11.84)"/>
    <use href="#logo" width="23.77" height="23.77" transform="translate(442.47 264.63) rotate(1353.15) translate(-11.88 -11.88)"/>
    <use href="#logo" width="23.86" height="23.86" transform="translate(445.54 240.96) rotate(1367.09) translate(-11.93 -11.93)"/>
    <use href="#logo" width="23.95" height="23.95" transform="translate(454.24 218.63) rotate(1380.92) translate(-11.97 -11.97)"/>
    <use href="#logo" width="24.04" height="24.04" transform="translate(468.06 198.94) rotate(1394.65) translate(-12.02 -12.02)"/>
    <use href="#logo" width="24.13" height="24.13" transform="translate(486.22 183.03) rotate(1408.27) translate(-12.06 -12.06)"/>
    <use href="#logo" width="24.22" height="24.22" transform="translate(507.69 171.79) rotate(1421.79) translate(-12.11 -12.11)"/>
    <use href="#logo" width="24.31" height="24.31" transform="translate(531.27 165.85) rotate(1435.21) translate(-12.15 -12.15)"/>
    <use href="#logo" width="24.40" height="24.40" transform="translate(555.68 165.53) rotate(1448.54) translate(-12.20 -12.20)"/>
    <use href="#logo" width="24.49" height="24.49" transform="translate(579.60 170.86) rotate(1461.77) translate(-12.24 -12.24)"/>
    <use href="#logo" width="24.58" height="24.58" transform="translate(601.74 181.54) rotate(1474.91) translate(-12.29 -12.29)"/>
    <use href="#logo" width="24.67" height="24.67" transform="translate(620.95 197.02) rotate(1487.97) translate(-12.33 -12.33)"/>
    <use href="#logo" width="24.75" height="24.75" transform="translate(636.23 216.51) rotate(1500.93) translate(-12.38 -12.38)"/>
    <use href="#logo" width="24.84" height="24.84" transform="translate(646.80 239.00) rotate(1513.81) translate(-12.42 -12.42)"/>
    <use href="#logo" width="24.93" height="24.93" transform="translate(652.12 263.36) rotate(1526.61) translate(-12.46 -12.46)"/>
    <use href="#logo" width="25.02" height="25.02" transform="translate(651.91 288.39) rotate(1539.33) translate(-12.51 -12.51)"/>
    <use href="#logo" width="25.10" height="25.10" transform="translate(646.20 312.84) rotate(1551.97) translate(-12.55 -12.55)"/>
    <use href="#logo" width="25.19" height="25.19" transform="translate(635.24 335.53) rotate(1564.53) translate(-12.60 -12.60)"/>
    <use href="#logo" width="25.28" height="25.28" transform="translate(619.57 355.37) rotate(1577.02) translate(-12.64 -12.64)"/>
    <use href="#logo" width="25.36" height="25.36" transform="translate(599.91 371.41) rotate(1589.43) translate(-12.68 -12.68)"/>
    <use href="#logo" width="25.45" height="25.45" transform="translate(577.20 382.90) rotate(1601.76) translate(-12.73 -12.73)"/>
    <use href="#logo" width="25.54" height="25.54" transform="translate(552.47 389.31) rotate(1614.03) translate(-12.77 -12.77)"/>
    <use href="#logo" width="25.62" height="25.62" transform="translate(526.87 390.33) rotate(1626.23) translate(-12.81 -12.81)"/>
    <use href="#logo" width="25.71" height="25.71" transform="translate(501.54 385.90) rotate(1638.36) translate(-12.85 -12.85)"/>
    <use href="#logo" width="25.79" height="25.79" transform="translate(477.62 376.24) rotate(1650.42) translate(-12.90 -12.90)"/>
    <use href="#logo" width="25.88" height="25.88" transform="translate(456.18 361.74) rotate(1662.42) translate(-12.94 -12.94)"/>
    <use href="#logo" width="25.97" height="25.97" transform="translate(438.15 343.06) rotate(1674.35) translate(-12.98 -12.98)"/>
    <use href="#logo" width="26.05" height="26.05" transform="translate(424.32 320.98) rotate(1686.22) translate(-13.03 -13.03)"/>
    <use href="#logo" width="26.14" height="26.14" transform="translate(415.29 296.45) rotate(1698.03) translate(-13.07 -13.07)"/>
    <use href="#logo" width="26.22" height="26.22" transform="translate(411.45 270.51) rotate(1709.77) translate(-13.11 -13.11)"/>
    <use href="#logo" width="26.30" height="26.30" transform="translate(412.97 244.25) rotate(1721.46) translate(-13.15 -13.15)"/>
    <use href="#logo" width="26.39" height="26.39" transform="translate(419.79 218.76) rotate(1733.09) translate(-13.19 -13.19)"/>
    <use href="#logo" width="26.47" height="26.47" transform="translate(431.64 195.09) rotate(1744.66) translate(-13.24 -13.24)"/>
    <use href="#logo" width="26.56" height="26.56" transform="translate(448.04 174.20) rotate(1756.17) translate(-13.28 -13.28)"/>
    <use href="#logo" width="26.64" height="26.64" transform="translate(468.34 156.95) rotate(1767.63) translate(-13.32 -13.32)"/>
    <use href="#logo" width="26.73" height="26.73" transform="translate(491.73 144.03) rotate(1779.03) translate(-13.36 -13.36)"/>
    <use href="#logo" width="26.81" height="26.81" transform="translate(517.29 135.95) rotate(1790.39) translate(-13.40 -13.40)"/>
    <use href="#logo" width="26.89" height="26.89" transform="translate(544.03 133.05) rotate(1801.68) translate(-13.45 -13.45)"/>
    <use href="#logo" width="26.98" height="26.98" transform="translate(570.89 135.44) rotate(1812.93) translate(-13.49 -13.49)"/>
    <use href="#logo" width="27.06" height="27.06" transform="translate(596.86 143.04) rotate(1824.13) translate(-13.53 -13.53)"/>
    <use href="#logo" width="27.14" height="27.14" transform="translate(620.93 155.57) rotate(1835.27) translate(-13.57 -13.57)"/>
    <use href="#logo" width="27.23" height="27.23" transform="translate(642.20 172.57) rotate(1846.37) translate(-13.61 -13.61)"/>
    <use href="#logo" width="27.31" height="27.31" transform="translate(659.85 193.39) rotate(1857.42) translate(-13.65 -13.65)"/>
    <use href="#logo" width="27.39" height="27.39" transform="translate(673.24 217.29) rotate(1868.42) translate(-13.70 -13.70)"/>
    <use href="#logo" width="27.47" height="27.47" transform="translate(681.85 243.37) rotate(1879.37) translate(-13.74 -13.74)"/>
    <use href="#logo" width="27.56" height="27.56" transform="translate(685.37 270.70) rotate(1890.28) translate(-13.78 -13.78)"/>
    <use href="#logo" width="27.64" height="27.64" transform="translate(683.65 298.28) rotate(1901.14) translate(-13.82 -13.82)"/>
    <use href="#logo" width="27.72" height="27.72" transform="translate(676.75 325.12) rotate(1911.95) translate(-13.86 -13.86)"/>
    <use href="#logo" width="27.81" height="27.81" transform="translate(664.91 350.27) rotate(1922.73) translate(-13.90 -13.90)"/>
    <use href="#logo" width="27.89" height="27.89" transform="translate(648.54 372.84) rotate(1933.46) translate(-13.94 -13.94)"/>
    <use href="#logo" width="27.97" height="27.97" transform="translate(628.19 392.02) rotate(1944.14) translate(-13.98 -13.98)"/>
    <use href="#logo" width="28.05" height="28.05" transform="translate(604.58 407.15) rotate(1954.79) translate(-14.03 -14.03)"/>
    <use href="#logo" width="28.13" height="28.13" transform="translate(578.50 417.69) rotate(1965.39) translate(-14.07 -14.07)"/>
    <use href="#logo" width="28.22" height="28.22" transform="translate(550.85 423.27) rotate(1975.95) translate(-14.11 -14.11)"/>
    <use href="#logo" width="28.30" height="28.30" transform="translate(522.56 423.70) rotate(1986.47) translate(-14.15 -14.15)"/>
    <use href="#logo" width="28.38" height="28.38" transform="translate(494.59 418.95) rotate(1996.95) translate(-14.19 -14.19)"/>
    <use href="#logo" width="28.46" height="28.46" transform="translate(467.87 409.16) rotate(2007.40) translate(-14.23 -14.23)"/>
    <use href="#logo" width="28.54" height="28.54" transform="translate(443.30 394.66) rotate(2017.80) translate(-14.27 -14.27)"/>
    <use href="#logo" width="28.63" height="28.63" transform="translate(421.68 375.91) rotate(2028.17) translate(-14.31 -14.31)"/>
    <use href="#logo" width="28.71" height="28.71" transform="translate(403.73 353.52) rotate(2038.49) translate(-14.35 -14.35)"/>
    <use href="#logo" width="28.79" height="28.79" transform="translate(390.05 328.20) rotate(2048.79) translate(-14.39 -14.39)"/>
    <use href="#logo" width="28.87" height="28.87" transform="translate(381.08 300.77) rotate(2059.04) translate(-14.43 -14.43)"/>
    <use href="#logo" width="28.95" height="28.95" transform="translate(377.11 272.11) rotate(2069.26) translate(-14.48 -14.48)"/>
    <use href="#logo" width="29.03" height="29.03" transform="translate(378.30 243.11) rotate(2079.44) translate(-14.52 -14.52)"/>
    <use href="#logo" width="29.11" height="29.11" transform="translate(384.60 214.70) rotate(2089.59) translate(-14.56 -14.56)"/>
    <use href="#logo" width="29.20" height="29.20" transform="translate(395.84 187.76) rotate(2099.70) translate(-14.60 -14.60)"/>
    <use href="#logo" width="29.28" height="29.28" transform="translate(411.67 163.15) rotate(2109.78) translate(-14.64 -14.64)"/>
    <use href="#logo" width="29.36" height="29.36" transform="translate(431.62 141.62) rotate(2119.83) translate(-14.68 -14.68)"/>
    <use href="#logo" width="29.44" height="29.44" transform="translate(455.07 123.85) rotate(2129.84) translate(-14.72 -14.72)"/>
    <use href="#logo" width="29.52" height="29.52" transform="translate(481.33 110.39) rotate(2139.82) translate(-14.76 -14.76)"/>
    <use href="#logo" width="29.60" height="29.60" transform="translate(509.60 101.65) rotate(2149.76) translate(-14.80 -14.80)"/>
    <use href="#logo" width="29.68" height="29.68" transform="translate(539.03 97.91) rotate(2159.68) translate(-14.84 -14.84)"/>
    <use href="#logo" width="29.76" height="29.76" transform="translate(568.75 99.30) rotate(2169.56) translate(-14.88 -14.88)"/>
    <use href="#logo" width="29.84" height="29.84" transform="translate(597.87 105.77) rotate(2179.41) translate(-14.92 -14.92)"/>
    <use href="#logo" width="29.92" height="29.92" transform="translate(625.53 117.16) rotate(2189.23) translate(-14.96 -14.96)"/>
    <use href="#logo" width="30.01" height="30.01" transform="translate(650.91 133.14) rotate(2199.02) translate(-15.00 -15.00)"/>
    <use href="#logo" width="30.09" height="30.09" transform="translate(673.27 153.25) rotate(2208.78) translate(-15.04 -15.04)"/>
    <use href="#logo" width="30.17" height="30.17" transform="translate(691.95 176.92) rotate(2218.51) translate(-15.08 -15.08)"/>
    <use href="#logo" width="30.25" height="30.25" transform="translate(706.40 203.47) rotate(2228.21) translate(-15.12 -15.12)"/>
    <use href="#logo" width="30.33" height="30.33" transform="translate(716.21 232.16) rotate(2237.88) translate(-15.16 -15.16)"/>
    <use href="#logo" width="30.41" height="30.41" transform="translate(721.07 262.16) rotate(2247.52) translate(-15.20 -15.20)"/>
    <use href="#logo" width="30.49" height="30.49" transform="translate(720.85 292.64) rotate(2257.13) translate(-15.25 -15.25)"/>
    <use href="#logo" width="30.57" height="30.57" transform="translate(715.52 322.72) rotate(2266.72) translate(-15.29 -15.29)"/>
    <use href="#logo" width="30.65" height="30.65" transform="translate(705.24 351.58) rotate(2276.28) translate(-15.33 -15.33)"/>
    <use href="#logo" width="30.73" height="30.73" transform="translate(690.28 378.41) rotate(2285.81) translate(-15.37 -15.37)"/>
    <use href="#logo" width="30.81" height="30.81" transform="translate(671.03 402.45) rotate(2295.31) translate(-15.41 -15.41)"/>
    <use href="#logo" width="30.89" height="30.89" transform="translate(648.02 423.05) rotate(2304.78) translate(-15.45 -15.45)"/>
    <use href="#logo" width="30.97" height="30.97" transform="translate(621.87 439.62) rotate(2314.23) translate(-15.49 -15.49)"/>
    <use href="#logo" width="31.05" height="31.05" transform="translate(593.28 451.70) rotate(2323.66) translate(-15.53 -15.53)"/>
    <use href="#logo" width="31.14" height="31.14" transform="translate(563.03 458.97) rotate(2333.05) translate(-15.57 -15.57)"/>
    <use href="#logo" width="31.22" height="31.22" transform="translate(531.91 461.21) rotate(2342.42) translate(-15.61 -15.61)"/>
    <use href="#logo" width="31.30" height="31.30" transform="translate(500.76 458.35) rotate(2351.77) translate(-15.65 -15.65)"/>
    <use href="#logo" width="31.38" height="31.38" transform="translate(470.41 450.45) rotate(2361.09) translate(-15.69 -15.69)"/>
    <use href="#logo" width="31.46" height="31.46" transform="translate(441.66 437.72) rotate(2370.38) translate(-15.73 -15.73)"/>
    <use href="#logo" width="31.54" height="31.54" transform="translate(415.28 420.46) rotate(2379.65) translate(-15.77 -15.77)"/>
    <use href="#logo" width="31.62" height="31.62" transform="translate(391.96 399.14) rotate(2388.90) translate(-15.81 -15.81)"/>
    <use href="#logo" width="31.70" height="31.70" transform="translate(372.32 374.28) rotate(2398.12) translate(-15.85 -15.85)"/>
    <use href="#logo" width="31.78" height="31.78" transform="translate(356.88 346.52) rotate(2407.32) translate(-15.89 -15.89)"/>
    <use href="#logo" width="31.86" height="31.86" transform="translate(346.03 316.58) rotate(2416.50) translate(-15.93 -15.93)"/>
    <use href="#logo" width="31.94" height="31.94" transform="translate(340.08 285.22) rotate(2425.65) translate(-15.97 -15.97)"/>
    <use href="#logo" width="32.02" height="32.02" transform="translate(339.19 253.23) rotate(2434.77) translate(-16.01 -16.01)"/>
    <use href="#logo" width="32.10" height="32.10" transform="translate(343.39 221.42) rotate(2443.88) translate(-16.05 -16.05)"/>
    <use href="#logo" width="32.18" height="32.18" transform="translate(352.59 190.60) rotate(2452.96) translate(-16.09 -16.09)"/>
    <use href="#logo" width="32.26" height="32.26" transform="translate(366.57 161.55) rotate(2462.02) translate(-16.13 -16.13)"/>
    <use href="#logo" width="32.34" height="32.34" transform="translate(385.00 134.99) rotate(2471.06) translate(-16.17 -16.17)"/>
    <use href="#logo" width="32.42" height="32.42" transform="translate(407.42 111.59) rotate(2480.07) translate(-16.21 -16.21)"/>
    <use href="#logo" width="32.50" height="32.50" transform="translate(433.29 91.95) rotate(2489.07) translate(-16.25 -16.25)"/>
    <use href="#logo" width="32.58" height="32.58" transform="translate(461.98 76.55) rotate(2498.04) translate(-16.29 -16.29)"/>
    <use href="#logo" width="32.66" height="32.66" transform="translate(492.80 65.78) rotate(2506.99) translate(-16.33 -16.33)"/>
    <use href="#logo" width="32.75" height="32.75" transform="translate(525.00 59.92) rotate(2515.92) translate(-16.37 -16.37)"/>
    <use href="#logo" width="32.83" height="32.83" transform="translate(557.80 59.12) rotate(2524.82) translate(-16.41 -16.41)"/>
    <use href="#logo" width="32.91" height="32.91" transform="translate(590.40 63.41) rotate(2533.71) translate(-16.45 -16.45)"/>
    <use href="#logo" width="32.99" height="32.99" transform="translate(622.03 72.72) rotate(2542.58) translate(-16.49 -16.49)"/>
    <use href="#logo" width="33.07" height="33.07" transform="translate(651.92 86.81) rotate(2551.42) translate(-16.53 -16.53)"/>
    <use href="#logo" width="33.15" height="33.15" transform="translate(679.35 105.38) rotate(2560.25) translate(-16.57 -16.57)"/>
    <use href="#logo" width="33.23" height="33.23" transform="translate(703.68 127.99) rotate(2569.05) translate(-16.61 -16.61)"/>
    <use href="#logo" width="33.31" height="33.31" transform="translate(724.31 154.12) rotate(2577.84) translate(-16.65 -16.65)"/>
    <use href="#logo" width="33.39" height="33.39" transform="translate(740.74 183.15) rotate(2586.61) translate(-16.69 -16.69)"/>
    <use href="#logo" width="33.47" height="33.47" transform="translate(752.60 214.43) rotate(2595.35) translate(-16.74 -16.74)"/>
    <use href="#logo" width="33.55" height="33.55" transform="translate(759.58 247.23) rotate(2604.08) translate(-16.78 -16.78)"/>
    <use href="#logo" width="33.63" height="33.63" transform="translate(761.51 280.79) rotate(2612.79) translate(-16.82 -16.82)"/>
    <use href="#logo" width="33.71" height="33.71" transform="translate(758.33 314.33) rotate(2621.48) translate(-16.86 -16.86)"/>
    <use href="#logo" width="33.79" height="33.79" transform="translate(750.10 347.08) rotate(2630.15) translate(-16.90 -16.90)"/>
    <use href="#logo" width="33.87" height="33.87" transform="translate(737.01 378.30) rotate(2638.80) translate(-16.94 -16.94)"/>
    <use href="#logo" width="33.95" height="33.95" transform="translate(719.33 407.26) rotate(2647.43) translate(-16.98 -16.98)"/>
    <use href="#logo" width="34.04" height="34.04" transform="translate(697.45 433.30) rotate(2656.05) translate(-17.02 -17.02)"/>
    <use href="#logo" width="34.12" height="34.12" transform="translate(671.86 455.83) rotate(2664.64) translate(-17.06 -17.06)"/>
    <use href="#logo" width="34.20" height="34.20" transform="translate(643.12 474.33) rotate(2673.22) translate(-17.10 -17.10)"/>
    <use href="#logo" width="34.28" height="34.28" transform="translate(611.87 488.37) rotate(2681.78) translate(-17.14 -17.14)"/>
    <use href="#logo" width="34.36" height="34.36" transform="translate(578.81 497.62) rotate(2690.32) translate(-17.18 -17.18)"/>
    <use href="#logo" width="34.44" height="34.44" transform="translate(544.65 501.88) rotate(2698.85) translate(-17.22 -17.22)"/>
    <use href="#logo" width="34.52" height="34.52" transform="translate(510.17 501.02) rotate(2707.36) translate(-17.26 -17.26)"/>
    <use href="#logo" width="34.60" height="34.60" transform="translate(476.10 495.07) rotate(2715.85) translate(-17.30 -17.30)"/>
    <use href="#logo" width="34.68" height="34.68" transform="translate(443.22 484.12) rotate(2724.32) translate(-17.34 -17.34)"/>
    <use href="#logo" width="34.76" height="34.76" transform="translate(412.23 468.42) rotate(2732.78) translate(-17.38 -17.38)"/>
    <use href="#logo" width="34.84" height="34.84" transform="translate(383.82 448.28) rotate(2741.22) translate(-17.42 -17.42)"/>
    <use href="#logo" width="34.92" height="34.92" transform="translate(358.61 424.14) rotate(2749.64) translate(-17.46 -17.46)"/>
    <use href="#logo" width="35.01" height="35.01" transform="translate(337.16 396.51) rotate(2758.05) translate(-17.50 -17.50)"/>
    <use href="#logo" width="35.09" height="35.09" transform="translate(319.94 365.97) rotate(2766.44) translate(-17.54 -17.54)"/>
    <use href="#logo" width="35.17" height="35.17" transform="translate(307.33 333.16) rotate(2774.81) translate(-17.58 -17.58)"/>
    <use href="#logo" width="35.25" height="35.25" transform="translate(299.60 298.79) rotate(2783.17) translate(-17.62 -17.62)"/>
    <use href="#logo" width="35.33" height="35.33" transform="translate(296.95 263.59) rotate(2791.51) translate(-17.67 -17.67)"/>
    <use href="#logo" width="35.41" height="35.41" transform="translate(299.43 228.28) rotate(2799.84) translate(-17.71 -17.71)"/>
    <use href="#logo" width="35.49" height="35.49" transform="translate(307.02 193.64) rotate(2808.15) translate(-17.75 -17.75)"/>
    <use href="#logo" width="35.57" height="35.57" transform="translate(319.55 160.37) rotate(2816.44) translate(-17.79 -17.79)"/>
    <use href="#logo" width="35.66" height="35.66" transform="translate(336.80 129.19) rotate(2824.72) translate(-17.83 -17.83)"/>
    <use href="#logo" width="35.74" height="35.74" transform="translate(358.40 100.75) rotate(2832.98) translate(-17.87 -17.87)"/>
    <use href="#logo" width="35.82" height="35.82" transform="translate(383.91 75.65) rotate(2841.23) translate(-17.91 -17.91)"/>
    <use href="#logo" width="35.90" height="35.90" transform="translate(412.83 54.42) rotate(2849.46) translate(-17.95 -17.95)"/>
    <use href="#logo" width="35.98" height="35.98" transform="translate(444.57 37.51) rotate(2857.68) translate(-17.99 -17.99)"/>
    <use href="#logo" width="36.06" height="36.06" transform="translate(478.46 25.27) rotate(2865.89) translate(-18.03 -18.03)"/>
    <use href="#logo" width="36.14" height="36.14" transform="translate(513.84 17.98) rotate(2874.07) translate(-18.07 -18.07)"/>
    <use href="#logo" width="36.23" height="36.23" transform="translate(549.98 15.80) rotate(2882.25) translate(-18.11 -18.11)"/>
    <use href="#logo" width="36.31" height="36.31" transform="translate(586.14 18.78) rotate(2890.41) translate(-18.15 -18.15)"/>
    <use href="#logo" width="36.39" height="36.39" transform="translate(621.59 26.88) rotate(2898.55) translate(-18.19 -18.19)"/>
    <use href="#logo" width="36.47" height="36.47" transform="translate(655.61 39.94) rotate(2906.68) translate(-18.24 -18.24)"/>
    <use href="#logo" width="36.55" height="36.55" transform="translate(687.52 57.72) rotate(2914.80) translate(-18.28 -18.28)"/>
    <use href="#logo" width="36.63" height="36.63" transform="translate(716.66 79.88) rotate(2922.90) translate(-18.32 -18.32)"/>
    <use href="#logo" width="36.72" height="36.72" transform="translate(742.45 105.97) rotate(2930.99) translate(-18.36 -18.36)"/>
    <use href="#logo" width="36.80" height="36.80" transform="translate(764.36 135.50) rotate(2939.06) translate(-18.40 -18.40)"/>
    <use href="#logo" width="36.88" height="36.88" transform="translate(781.95 167.89) rotate(2947.12) translate(-18.44 -18.44)"/>
    <use href="#logo" width="36.96" height="36.96" transform="translate(794.86 202.50) rotate(2955.16) translate(-18.48 -18.48)"/>
    <use href="#logo" width="37.04" height="37.04" transform="translate(802.82 238.65) rotate(2963.20) translate(-18.52 -18.52)"/>
    <use href="#logo" width="37.13" height="37.13" transform="translate(805.65 275.64) rotate(2971.22) translate(-18.56 -18.56)"/>
    <use href="#logo" width="37.21" height="37.21" transform="translate(803.30 312.75) rotate(2979.22) translate(-18.60 -18.60)"/>
    <use href="#logo" width="37.29" height="37.29" transform="translate(795.78 349.24) rotate(2987.21) translate(-18.64 -18.64)"/>
    <use href="#logo" width="37.37" height="37.37" transform="translate(783.24 384.42) rotate(2995.19) translate(-18.69 -18.69)"/>
    <use href="#logo" width="37.45" height="37.45" transform="translate(765.90 417.59) rotate(3003.16) translate(-18.73 -18.73)"/>
    <use href="#logo" width="37.54" height="37.54" transform="translate(744.09 448.11) rotate(3011.11) translate(-18.77 -18.77)"/>
    <use href="#logo" width="37.62" height="37.62" transform="translate(718.21 475.37) rotate(3019.05) translate(-18.81 -18.81)"/>
    <use href="#logo" width="37.70" height="37.70" transform="translate(688.75 498.85) rotate(3026.98) translate(-18.85 -18.85)"/>
    <use href="#logo" width="37.78" height="37.78" transform="translate(656.26 518.09) rotate(3034.89) translate(-18.89 -18.89)"/>
    <use href="#logo" width="37.87" height="37.87" transform="translate(621.36 532.71) rotate(3042.79) translate(-18.93 -18.93)"/>
    <use href="#logo" width="37.95" height="37.95" transform="translate(584.70 542.41) rotate(3050.68) translate(-18.97 -18.97)"/>
    <use href="#logo" width="38.03" height="38.03" transform="translate(546.98 547.01) rotate(3058.56) translate(-19.02 -19.02)"/>
    <use href="#logo" width="38.11" height="38.11" transform="translate(508.90 546.39) rotate(3066.42) translate(-19.06 -19.06)"/>
    <use href="#logo" width="38.20" height="38.20" transform="translate(471.18 540.56) rotate(3074.27) translate(-19.10 -19.10)"/>
    <use href="#logo" width="38.28" height="38.28" transform="translate(434.53 529.60) rotate(3082.11) translate(-19.14 -19.14)"/>
    <use href="#logo" width="38.36" height="38.36" transform="translate(399.64 513.72) rotate(3089.94) translate(-19.18 -19.18)"/>
    <use href="#logo" width="38.44" height="38.44" transform="translate(367.17 493.20) rotate(3097.75) translate(-19.22 -19.22)"/>
    <use href="#logo" width="38.53" height="38.53" transform="translate(337.72 468.40) rotate(3105.56) translate(-19.26 -19.26)"/>
    <use href="#logo" width="38.61" height="38.61" transform="translate(311.86 439.77) rotate(3113.35) translate(-19.30 -19.30)"/>
    <use href="#logo" width="38.69" height="38.69" transform="translate(290.07 407.83) rotate(3121.12) translate(-19.35 -19.35)"/>
    <use href="#logo" width="38.78" height="38.78" transform="translate(272.76 373.16) rotate(3128.89) translate(-19.39 -19.39)"/>
    <use href="#logo" width="38.86" height="38.86" transform="translate(260.27 336.40) rotate(3136.65) translate(-19.43 -19.43)"/>
    <use href="#logo" width="38.94" height="38.94" transform="translate(252.83 298.20) rotate(3144.39) translate(-19.47 -19.47)"/>
    <use href="#logo" width="39.02" height="39.02" transform="translate(250.60 259.27) rotate(3152.12) translate(-19.51 -19.51)"/>
    <use href="#logo" width="39.11" height="39.11" transform="translate(253.64 220.31) rotate(3159.84) translate(-19.55 -19.55)"/>
    <use href="#logo" width="39.19" height="39.19" transform="translate(261.89 182.03) rotate(3167.55) translate(-19.60 -19.60)"/>
    <use href="#logo" width="39.27" height="39.27" transform="translate(275.24 145.12) rotate(3175.25) translate(-19.64 -19.64)"/>
    <use href="#logo" width="39.36" height="39.36" transform="translate(293.44 110.26) rotate(3182.94) translate(-19.68 -19.68)"/>
    <use href="#logo" width="39.44" height="39.44" transform="translate(316.19 78.07) rotate(3190.61) translate(-19.72 -19.72)"/>
    <use href="#logo" width="39.52" height="39.52" transform="translate(343.09 49.15) rotate(3198.28) translate(-19.76 -19.76)"/>
    <use href="#logo" width="39.61" height="39.61" transform="translate(373.67 24.03) rotate(3205.93) translate(-19.80 -19.80)"/>
    <use href="#logo" width="39.69" height="39.69" transform="translate(407.39 3.15) rotate(3213.58) translate(-19.85 -19.85)"/>
    <use href="#logo" width="39.77" height="39.77" transform="translate(443.66 -13.10) rotate(3221.21) translate(-19.89 -19.89)"/>
    <use href="#logo" width="40.19" height="40.19" transform="translate(640.10 -17.37) rotate(3259.20) translate(-20.10 -20.10)"/>
    <use href="#logo" width="40.28" height="40.28" transform="translate(677.55 -2.63) rotate(3266.77) translate(-20.14 -20.14)"/>
    <use href="#logo" width="40.36" height="40.36" transform="translate(712.81 16.96) rotate(3274.33) translate(-20.18 -20.18)"/>
    <use href="#logo" width="40.45" height="40.45" transform="translate(745.25 41.06) rotate(3281.88) translate(-20.22 -20.22)"/>
    <use href="#logo" width="40.53" height="40.53" transform="translate(774.31 69.27) rotate(3289.41) translate(-20.27 -20.27)"/>
    <use href="#logo" width="40.61" height="40.61" transform="translate(799.47 101.11) rotate(3296.94) translate(-20.31 -20.31)"/>
    <use href="#logo" width="40.70" height="40.70" transform="translate(820.29 136.05) rotate(3304.46) translate(-20.35 -20.35)"/>
    <use href="#logo" width="40.78" height="40.78" transform="translate(836.40 173.48) rotate(3311.96) translate(-20.39 -20.39)"/>
    <use href="#logo" width="40.87" height="40.87" transform="translate(847.50 212.78) rotate(3319.46) translate(-20.43 -20.43)"/>
    <use href="#logo" width="40.95" height="40.95" transform="translate(853.39 253.27) rotate(3326.95) translate(-20.48 -20.48)"/>
    <use href="#logo" width="41.04" height="41.04" transform="translate(853.97 294.28) rotate(3334.42) translate(-20.52 -20.52)"/>
    <use href="#logo" width="41.12" height="41.12" transform="translate(849.19 335.09) rotate(3341.89) translate(-20.56 -20.56)"/>
    <use href="#logo" width="41.21" height="41.21" transform="translate(839.13 375.02) rotate(3349.34) translate(-20.60 -20.60)"/>
    <use href="#logo" width="41.29" height="41.29" transform="translate(823.95 413.38) rotate(3356.79) translate(-20.65 -20.65)"/>
    <use href="#logo" width="41.38" height="41.38" transform="translate(803.89 449.53) rotate(3364.23) translate(-20.69 -20.69)"/>
    <use href="#logo" width="41.46" height="41.46" transform="translate(779.26 482.84) rotate(3371.66) translate(-20.73 -20.73)"/>
    <use href="#logo" width="41.54" height="41.54" transform="translate(750.48 512.76) rotate(3379.07) translate(-20.77 -20.77)"/>
    <use href="#logo" width="41.63" height="41.63" transform="translate(718.01 538.76) rotate(3386.48) translate(-20.81 -20.81)"/>
    <use href="#logo" width="41.71" height="41.71" transform="translate(682.39 560.41) rotate(3393.88) translate(-20.86 -20.86)"/>
    <use href="#logo" width="42.40" height="42.40" transform="translate(360.43 549.28) rotate(3452.74) translate(-21.20 -21.20)"/>
    <use href="#logo" width="42.48" height="42.48" transform="translate(325.64 524.96) rotate(3460.06) translate(-21.24 -21.24)"/>
    <use href="#logo" width="42.57" height="42.57" transform="translate(294.16 496.35) rotate(3467.36) translate(-21.28 -21.28)"/>
    <use href="#logo" width="42.65" height="42.65" transform="translate(266.51 463.91) rotate(3474.66) translate(-21.33 -21.33)"/>
    <use href="#logo" width="42.74" height="42.74" transform="translate(243.17 428.15) rotate(3481.95) translate(-21.37 -21.37)"/>
    <use href="#logo" width="42.83" height="42.83" transform="translate(224.51 389.64) rotate(3489.23) translate(-21.41 -21.41)"/>
    <use href="#logo" width="42.91" height="42.91" transform="translate(210.85 348.99) rotate(3496.50) translate(-21.46 -21.46)"/>
    <use href="#logo" width="43.00" height="43.00" transform="translate(202.43 306.86) rotate(3503.77) translate(-21.50 -21.50)"/>
    <use href="#logo" width="43.08" height="43.08" transform="translate(199.39 263.92) rotate(3511.02) translate(-21.54 -21.54)"/>
    <use href="#logo" width="43.17" height="43.17" transform="translate(201.81 220.85) rotate(3518.27) translate(-21.59 -21.59)"/>
    <use href="#logo" width="43.26" height="43.26" transform="translate(209.65 178.34) rotate(3525.51) translate(-21.63 -21.63)"/>
    <use href="#logo" width="43.34" height="43.34" transform="translate(222.81 137.08) rotate(3532.74) translate(-21.67 -21.67)"/>
    <use href="#logo" width="43.43" height="43.43" transform="translate(241.09 97.72) rotate(3539.96) translate(-21.71 -21.71)"/>
    <use href="#logo" width="43.52" height="43.52" transform="translate(264.22 60.90) rotate(3547.17) translate(-21.76 -21.76)"/>
    <use href="#logo" width="43.60" height="43.60" transform="translate(291.84 27.20) rotate(3554.37) translate(-21.80 -21.80)"/>
    <use href="#logo" width="43.69" height="43.69" transform="translate(323.53 -2.82) rotate(3561.57) translate(-21.84 -21.84)"/>
    <use href="#logo" width="44.65" height="44.65" transform="translate(772.51 -5.26) rotate(3640.19) translate(-22.32 -22.32)"/>
    <use href="#logo" width="44.73" height="44.73" transform="translate(805.56 24.84) rotate(3647.29) translate(-22.37 -22.37)"/>
    <use href="#logo" width="44.82" height="44.82" transform="translate(834.69 58.86) rotate(3654.38) translate(-22.41 -22.41)"/>
    <use href="#logo" width="44.91" height="44.91" transform="translate(859.44 96.29) rotate(3661.46) translate(-22.45 -22.45)"/>
    <use href="#logo" width="45.00" height="45.00" transform="translate(879.44 136.56) rotate(3668.54) translate(-22.50 -22.50)"/>
    <use href="#logo" width="45.09" height="45.09" transform="translate(894.35 179.07) rotate(3675.61) translate(-22.54 -22.54)"/>
    <use href="#logo" width="45.17" height="45.17" transform="translate(903.93 223.18) rotate(3682.67) translate(-22.59 -22.59)"/>
    <use href="#logo" width="45.26" height="45.26" transform="translate(908.04 268.22) rotate(3689.72) translate(-22.63 -22.63)"/>
    <use href="#logo" width="45.35" height="45.35" transform="translate(906.57 313.51) rotate(3696.77) translate(-22.67 -22.67)"/>
    <use href="#logo" width="45.44" height="45.44" transform="translate(899.56 358.37) rotate(3703.81) translate(-22.72 -22.72)"/>
    <use href="#logo" width="45.53" height="45.53" transform="translate(887.07 402.11) rotate(3710.84) translate(-22.76 -22.76)"/>
    <use href="#logo" width="45.61" height="45.61" transform="translate(869.29 444.08) rotate(3717.86) translate(-22.81 -22.81)"/>
    <use href="#logo" width="45.70" height="45.70" transform="translate(846.47 483.64) rotate(3724.88) translate(-22.85 -22.85)"/>
    <use href="#logo" width="45.79" height="45.79" transform="translate(818.94 520.18) rotate(3731.89) translate(-22.90 -22.90)"/>
    <use href="#logo" width="45.88" height="45.88" transform="translate(787.10 553.16) rotate(3738.89) translate(-22.94 -22.94)"/>
    <use href="#logo" width="46.95" height="46.95" transform="translate(277.74 557.64) rotate(3822.36) translate(-23.47 -23.47)"/>
    <use href="#logo" width="47.04" height="47.04" transform="translate(244.18 524.73) rotate(3829.27) translate(-23.52 -23.52)"/>
    <use href="#logo" width="47.13" height="47.13" transform="translate(214.77 487.95) rotate(3836.17) translate(-23.56 -23.56)"/>
    <use href="#logo" width="47.22" height="47.22" transform="translate(189.95 447.83) rotate(3843.07) translate(-23.61 -23.61)"/>
    <use href="#logo" width="47.31" height="47.31" transform="translate(170.08 404.94) rotate(3849.96) translate(-23.65 -23.65)"/>
    <use href="#logo" width="47.40" height="47.40" transform="translate(155.47 359.89) rotate(3856.84) translate(-23.70 -23.70)"/>
    <use href="#logo" width="47.49" height="47.49" transform="translate(146.35 313.33) rotate(3863.72) translate(-23.74 -23.74)"/>
    <use href="#logo" width="47.58" height="47.58" transform="translate(142.86 265.92) rotate(3870.59) translate(-23.79 -23.79)"/>
    <use href="#logo" width="47.67" height="47.67" transform="translate(145.07 218.34) rotate(3877.45) translate(-23.83 -23.83)"/>
    <use href="#logo" width="47.76" height="47.76" transform="translate(152.97 171.28) rotate(3884.31) translate(-23.88 -23.88)"/>
    <use href="#logo" width="47.85" height="47.85" transform="translate(166.45 125.41) rotate(3891.16) translate(-23.92 -23.92)"/>
    <use href="#logo" width="47.94" height="47.94" transform="translate(185.33 81.39) rotate(3898.00) translate(-23.97 -23.97)"/>
    <use href="#logo" width="48.03" height="48.03" transform="translate(209.38 39.86) rotate(3904.84) translate(-24.01 -24.01)"/>
    <use href="#logo" width="48.12" height="48.12" transform="translate(238.25 1.41) rotate(3911.67) translate(-24.06 -24.06)"/>
    <use href="#logo" width="49.39" height="49.39" transform="translate(845.42 -18.36) rotate(4006.65) translate(-24.70 -24.70)"/>
    <use href="#logo" width="49.49" height="49.49" transform="translate(878.07 18.78) rotate(4013.38) translate(-24.74 -24.74)"/>
    <use href="#logo" width="49.58" height="49.58" transform="translate(906.19 59.56) rotate(4020.12) translate(-24.79 -24.79)"/>
    <use href="#logo" width="49.67" height="49.67" transform="translate(929.38 103.44) rotate(4026.84) translate(-24.84 -24.84)"/>
    <use href="#logo" width="49.76" height="49.76" transform="translate(947.31 149.82) rotate(4033.56) translate(-24.88 -24.88)"/>
    <use href="#logo" width="49.86" height="49.86" transform="translate(959.71 198.07) rotate(4040.27) translate(-24.93 -24.93)"/>
    <use href="#logo" width="49.95" height="49.95" transform="translate(966.40 247.53) rotate(4046.98) translate(-24.97 -24.97)"/>
    <use href="#logo" width="50.04" height="50.04" transform="translate(967.27 297.52) rotate(4053.69) translate(-25.02 -25.02)"/>
    <use href="#logo" width="50.13" height="50.13" transform="translate(962.29 347.36) rotate(4060.38) translate(-25.07 -25.07)"/>
    <use href="#logo" width="50.23" height="50.23" transform="translate(951.51 396.38) rotate(4067.07) translate(-25.11 -25.11)"/>
    <use href="#logo" width="50.32" height="50.32" transform="translate(935.07 443.89) rotate(4073.76) translate(-25.16 -25.16)"/>
    <use href="#logo" width="50.41" height="50.41" transform="translate(913.17 489.25) rotate(4080.44) translate(-25.21 -25.21)"/>
    <use href="#logo" width="50.50" height="50.50" transform="translate(886.09 531.84) rotate(4087.11) translate(-25.25 -25.25)"/>
    <use href="#logo" width="52.00" height="52.00" transform="translate(177.76 541.73) rotate(4193.12) translate(-26.00 -26.00)"/>
    <use href="#logo" width="52.10" height="52.10" transform="translate(147.99 499.03) rotate(4199.70) translate(-26.05 -26.05)"/>
    <use href="#logo" width="52.19" height="52.19" transform="translate(123.25 453.12) rotate(4206.28) translate(-26.10 -26.10)"/>
    <use href="#logo" width="52.29" height="52.29" transform="translate(103.90 404.59) rotate(4212.85) translate(-26.14 -26.14)"/>
    <use href="#logo" width="52.38" height="52.38" transform="translate(90.20 354.08) rotate(4219.41) translate(-26.19 -26.19)"/>
    <use href="#logo" width="52.48" height="52.48" transform="translate(82.35 302.24) rotate(4225.97) translate(-26.24 -26.24)"/>
    <use href="#logo" width="52.57" height="52.57" transform="translate(80.47 249.74) rotate(4232.52) translate(-26.29 -26.29)"/>
    <use href="#logo" width="52.67" height="52.67" transform="translate(84.60 197.28) rotate(4239.07) translate(-26.33 -26.33)"/>
    <use href="#logo" width="52.76" height="52.76" transform="translate(94.70 145.54) rotate(4245.62) translate(-26.38 -26.38)"/>
    <use href="#logo" width="52.86" height="52.86" transform="translate(110.66 95.19) rotate(4252.15) translate(-26.43 -26.43)"/>
    <use href="#logo" width="52.95" height="52.95" transform="translate(132.28 46.91) rotate(4258.69) translate(-26.48 -26.48)"/>
    <use href="#logo" width="53.05" height="53.05" transform="translate(159.31 1.31) rotate(4265.21) translate(-26.52 -26.52)"/>
    <use href="#logo" width="54.68" height="54.68" transform="translate(940.62 -6.11) rotate(4375.43) translate(-27.34 -27.34)"/>
    <use href="#logo" width="54.78" height="54.78" transform="translate(970.14 39.99) rotate(4381.86) translate(-27.39 -27.39)"/>
    <use href="#logo" width="54.88" height="54.88" transform="translate(994.35 89.19) rotate(4388.30) translate(-27.44 -27.44)"/>
    <use href="#logo" width="54.98" height="54.98" transform="translate(1012.92 140.89) rotate(4394.73) translate(-27.49 -27.49)"/>
    <use href="#logo" width="55.07" height="55.07" transform="translate(1025.61 194.43) rotate(4401.15) translate(-27.54 -27.54)"/>
    <use href="#logo" width="55.17" height="55.17" transform="translate(1032.24 249.16) rotate(4407.58) translate(-27.59 -27.59)"/>
    <use href="#logo" width="55.27" height="55.27" transform="translate(1032.71 304.38) rotate(4413.99) translate(-27.63 -27.63)"/>
    <use href="#logo" width="55.37" height="55.37" transform="translate(1027.00 359.41) rotate(4420.40) translate(-27.68 -27.68)"/>
    <use href="#logo" width="55.46" height="55.46" transform="translate(1015.16 413.55) rotate(4426.81) translate(-27.73 -27.73)"/>
    <use href="#logo" width="55.56" height="55.56" transform="translate(997.33 466.12) rotate(4433.21) translate(-27.78 -27.78)"/>
    <use href="#logo" width="55.66" height="55.66" transform="translate(973.70 516.47) rotate(4439.61) translate(-27.83 -27.83)"/>
    <use href="#logo" width="55.76" height="55.76" transform="translate(944.56 563.95) rotate(4446.00) translate(-27.88 -27.88)"/>
    <use href="#logo" width="57.54" height="57.54" transform="translate(86.03 528.77) rotate(4560.32) translate(-28.77 -28.77)"/>
    <use href="#logo" width="57.64" height="57.64" transform="translate(59.18 477.81) rotate(4566.63) translate(-28.82 -28.82)"/>
    <use href="#logo" width="57.74" height="57.74" transform="translate(38.06 424.11) rotate(4572.93) translate(-28.87 -28.87)"/>
    <use href="#logo" width="57.85" height="57.85" transform="translate(22.94 368.33) rotate(4579.23) translate(-28.92 -28.92)"/>
    <use href="#logo" width="57.95" height="57.95" transform="translate(14.01 311.12) rotate(4585.53) translate(-28.97 -28.97)"/>
    <use href="#logo" width="58.05" height="58.05" transform="translate(11.41 253.18) rotate(4591.82) translate(-29.02 -29.02)"/>
    <use href="#logo" width="58.15" height="58.15" transform="translate(15.18 195.20) rotate(4598.11) translate(-29.07 -29.07)"/>
    <use href="#logo" width="58.25" height="58.25" transform="translate(25.29 137.88) rotate(4604.40) translate(-29.12 -29.12)"/>
    <use href="#logo" width="58.35" height="58.35" transform="translate(41.65 81.92) rotate(4610.68) translate(-29.17 -29.17)"/>
    <use href="#logo" width="58.45" height="58.45" transform="translate(64.06 27.99) rotate(4616.95) translate(-29.23 -29.23)"/>
    <use href="#logo" width="58.55" height="58.55" transform="translate(92.28 -23.26) rotate(4623.23) translate(-29.28 -29.28)"/>
    <use href="#logo" width="60.50" height="60.50" transform="translate(1032.48 4.14) rotate(4741.64) translate(-30.25 -30.25)"/>
    <use href="#logo" width="60.60" height="60.60" transform="translate(1059.49 58.33) rotate(4747.83) translate(-30.30 -30.30)"/>
    <use href="#logo" width="60.70" height="60.70" transform="translate(1080.54 115.22) rotate(4754.02) translate(-30.35 -30.35)"/>
    <use href="#logo" width="60.81" height="60.81" transform="translate(1095.35 174.14) rotate(4760.21) translate(-30.40 -30.40)"/>
    <use href="#logo" width="60.91" height="60.91" transform="translate(1103.75 234.42) rotate(4766.39) translate(-30.45 -30.45)"/>
    <use href="#logo" width="61.01" height="61.01" transform="translate(1105.61 295.35) rotate(4772.57) translate(-30.51 -30.51)"/>
    <use href="#logo" width="61.12" height="61.12" transform="translate(1100.89 356.24) rotate(4778.74) translate(-30.56 -30.56)"/>
    <use href="#logo" width="61.22" height="61.22" transform="translate(1089.64 416.37) rotate(4784.91) translate(-30.61 -30.61)"/>
    <use href="#logo" width="61.33" height="61.33" transform="translate(1071.96 475.04) rotate(4791.08) translate(-30.66 -30.66)"/>
    <use href="#logo" width="61.43" height="61.43" transform="translate(1048.04 531.57) rotate(4797.24) translate(-30.72 -30.72)"/>
    <use href="#logo" width="63.54" height="63.54" transform="translate(23.46 571.25) rotate(4919.75) translate(-31.77 -31.77)"/>
    <use href="#logo" width="63.65" height="63.65" transform="translate(-6.81 515.32) rotate(4925.84) translate(-31.82 -31.82)"/>
    <use href="#logo" width="63.76" height="63.76" transform="translate(-31.01 456.39) rotate(4931.92) translate(-31.88 -31.88)"/>
    <use href="#logo" width="64.51" height="64.51" transform="translate(-15.53 17.75) rotate(4974.42) translate(-32.25 -32.25)"/>
  </g>
</svg>