<svg xmlns="http://www.w3.org/2000/svg" viewBox="242 0 56 56" aria-label="Chase">
  <g transform="translate(620.78989, -56.0321671)" fill="#117aca">
    <path d="M -358.86107,56.307005 C -359.93357,56.307005 -360.80231,57.175763 -360.80231,58.247007 L -360.80231,71.85327 L -324.86107,71.85327 L -341.22857,56.308263 L -358.86107,56.307005"/>
    <path d="M -323.54607,75.969518 C -323.54607,74.895757 -324.40857,74.030756 -325.48731,74.030756 L -339.08982,74.030756 L -339.08982,109.97325 L -323.55233,93.598265 L -323.54607,75.969518"/>
    <path d="M -343.21106,111.2745 C -342.14106,111.2745 -341.27232,110.4045 -341.27232,109.33076 L -341.27232,95.729517 L -377.21482,95.729517 L -360.84483,111.272 L -343.21106,111.2745"/>
    <path d="M -378.52856,91.614507 C -378.52856,92.68701 -377.65982,93.560766 -376.58482,93.560766 L -362.98482,93.560766 L -362.98482,57.61577 L -378.52606,73.985761 L -378.52856,91.614507"/>
  </g>
</svg>
