<svg width="160" height="119" viewBox="0 0 160 119" fill="none" xmlns="http://www.w3.org/2000/svg">
<g filter="url(#filter0_d_116_18888)">
<mask id="path-1-inside-1_116_18888" fill="white">
<path d="M64.4875 26.199C66.5951 15.3562 77.0935 8.27497 87.9363 10.3826L131.043 18.7616C141.886 20.8693 148.967 31.3676 146.859 42.2104L138.48 85.3169C136.372 96.1596 125.874 103.241 115.031 101.133L71.9248 92.7542C61.0821 90.6466 54.0009 80.1482 56.1085 69.3055L64.4875 26.199Z"/>
</mask>
<path d="M64.4875 26.199C66.5951 15.3562 77.0935 8.27497 87.9363 10.3826L131.043 18.7616C141.886 20.8693 148.967 31.3676 146.859 42.2104L138.48 85.3169C136.372 96.1596 125.874 103.241 115.031 101.133L71.9248 92.7542C61.0821 90.6466 54.0009 80.1482 56.1085 69.3055L64.4875 26.199Z" fill="#FAFAFA"/>
<path d="M87.9363 10.3826L87.7454 11.3642L130.852 19.7433L131.043 18.7616L131.234 17.78L88.1271 9.40096L87.9363 10.3826ZM146.859 42.2104L145.877 42.0196L137.498 85.1261L138.48 85.3169L139.462 85.5077L147.841 42.4012L146.859 42.2104ZM115.031 101.133L115.222 100.152L72.1157 91.7725L71.9248 92.7542L71.734 93.7358L114.841 102.115L115.031 101.133ZM56.1085 69.3055L57.0901 69.4963L65.4692 26.3898L64.4875 26.199L63.5059 26.0081L55.1268 69.1146L56.1085 69.3055ZM71.9248 92.7542L72.1157 91.7725C61.815 89.7703 55.0879 79.7969 57.0901 69.4963L56.1085 69.3055L55.1268 69.1146C52.9138 80.4995 60.3491 91.5228 71.734 93.7358L71.9248 92.7542ZM138.48 85.3169L137.498 85.1261C135.496 95.4267 125.523 102.154 115.222 100.152L115.031 101.133L114.841 102.115C126.225 104.328 137.249 96.8926 139.462 85.5077L138.48 85.3169ZM131.043 18.7616L130.852 19.7433C141.153 21.7455 147.88 31.7189 145.877 42.0196L146.859 42.2104L147.841 42.4012C150.054 31.0163 142.618 19.993 131.234 17.78L131.043 18.7616ZM87.9363 10.3826L88.1271 9.40096C76.7422 7.18796 65.7189 14.6233 63.5059 26.0081L64.4875 26.199L65.4692 26.3898C67.4714 16.0891 77.4448 9.36198 87.7454 11.3642L87.9363 10.3826Z" fill="black" fill-opacity="0.04" mask="url(#path-1-inside-1_116_18888)"/>
</g>
<g filter="url(#filter1_d_116_18888)">
<mask id="path-3-inside-2_116_18888" fill="white">
<path d="M12.3714 42.199C10.2637 31.3562 17.345 20.8578 28.1877 18.7502L71.2942 10.3712C82.137 8.26355 92.6353 15.3448 94.7429 26.1875L103.122 69.294C105.23 80.1368 98.1484 90.6351 87.3056 92.7428L44.1991 101.122C33.3564 103.229 22.858 96.1482 20.7504 85.3055L12.3714 42.199Z"/>
</mask>
<path d="M12.3714 42.199C10.2637 31.3562 17.345 20.8578 28.1877 18.7502L71.2942 10.3712C82.137 8.26355 92.6353 15.3448 94.7429 26.1875L103.122 69.294C105.23 80.1368 98.1484 90.6351 87.3056 92.7428L44.1991 101.122C33.3564 103.229 22.858 96.1482 20.7504 85.3055L12.3714 42.199Z" fill="#FAFAFA"/>
<path d="M28.1877 18.7502L28.3785 19.7319L71.485 11.3528L71.2942 10.3712L71.1034 9.38954L27.9969 17.7686L28.1877 18.7502ZM94.7429 26.1875L93.7613 26.3783L102.14 69.4848L103.122 69.294L104.104 69.1032L95.7246 25.9967L94.7429 26.1875ZM87.3056 92.7428L87.1148 91.7611L44.0083 100.14L44.1991 101.122L44.3899 102.103L87.4964 93.7244L87.3056 92.7428ZM20.7504 85.3055L21.732 85.1146L13.353 42.0081L12.3714 42.199L11.3897 42.3898L19.7688 85.4963L20.7504 85.3055ZM44.1991 101.122L44.0083 100.14C33.7077 102.142 23.7343 95.4153 21.732 85.1146L20.7504 85.3055L19.7688 85.4963C21.9818 96.8812 33.0051 104.316 44.3899 102.103L44.1991 101.122ZM103.122 69.294L102.14 69.4848C104.143 79.7855 97.4154 89.7589 87.1148 91.7611L87.3056 92.7428L87.4964 93.7244C98.8813 91.5114 106.317 80.4881 104.104 69.1032L103.122 69.294ZM71.2942 10.3712L71.485 11.3528C81.7856 9.35056 91.7591 16.0777 93.7613 26.3783L94.7429 26.1875L95.7246 25.9967C93.5116 14.6118 82.4883 7.17655 71.1034 9.38954L71.2942 10.3712ZM28.1877 18.7502L27.9969 17.7686C16.612 19.9816 9.17673 31.0049 11.3897 42.3898L12.3714 42.199L13.353 42.0081C11.3507 31.7075 18.0779 21.7341 28.3785 19.7319L28.1877 18.7502Z" fill="black" fill-opacity="0.04" mask="url(#path-3-inside-2_116_18888)"/>
</g>
<g filter="url(#filter2_di_116_18888)">
<mask id="path-5-inside-3_116_18888" fill="white">
<path d="M32.2568 30.5664C32.2568 19.5207 41.2111 10.5664 52.2568 10.5664H106.257C117.303 10.5664 126.257 19.5207 126.257 30.5664V84.5664C126.257 95.6121 117.303 104.566 106.257 104.566H52.2568C41.2111 104.566 32.2568 95.6121 32.2568 84.5664V30.5664Z"/>
</mask>
<path d="M32.2568 30.5664C32.2568 19.5207 41.2111 10.5664 52.2568 10.5664H106.257C117.303 10.5664 126.257 19.5207 126.257 30.5664V84.5664C126.257 95.6121 117.303 104.566 106.257 104.566H52.2568C41.2111 104.566 32.2568 95.6121 32.2568 84.5664V30.5664Z" fill="white" shape-rendering="crispEdges"/>
<path d="M52.2568 10.5664V11.5664H106.257V10.5664V9.56641H52.2568V10.5664ZM126.257 30.5664H125.257V84.5664H126.257H127.257V30.5664H126.257ZM106.257 104.566V103.566H52.2568V104.566V105.566H106.257V104.566ZM32.2568 84.5664H33.2568V30.5664H32.2568H31.2568V84.5664H32.2568ZM52.2568 104.566V103.566C41.7634 103.566 33.2568 95.0598 33.2568 84.5664H32.2568H31.2568C31.2568 96.1644 40.6589 105.566 52.2568 105.566V104.566ZM126.257 84.5664H125.257C125.257 95.0598 116.75 103.566 106.257 103.566V104.566V105.566C117.855 105.566 127.257 96.1644 127.257 84.5664H126.257ZM106.257 10.5664V11.5664C116.75 11.5664 125.257 20.073 125.257 30.5664H126.257H127.257C127.257 18.9684 117.855 9.56641 106.257 9.56641V10.5664ZM52.2568 10.5664V9.56641C40.6589 9.56641 31.2568 18.9684 31.2568 30.5664H32.2568H33.2568C33.2568 20.073 41.7634 11.5664 52.2568 11.5664V10.5664Z" fill="black" fill-opacity="0.065" mask="url(#path-5-inside-3_116_18888)"/>
<g filter="url(#filter3_d_116_18888)">
<path d="M80.0568 41.5664C74.6705 41.5664 69.9057 44.2281 67.0062 48.3079C66.0593 48.0846 65.0719 47.9664 64.0568 47.9664C56.9876 47.9664 51.2568 53.6972 51.2568 60.7664C51.2568 67.8357 56.9876 73.5664 64.0568 73.5664L96.0568 73.5664C102.242 73.5664 107.257 68.552 107.257 62.3664C107.257 56.1808 102.242 51.1664 96.0568 51.1664C95.6175 51.1664 95.184 51.1917 94.7578 51.2409C92.306 45.5503 86.6467 41.5664 80.0568 41.5664Z" fill="#FAFAFA"/>
<path d="M80.0566 41.0664C86.7223 41.0664 92.462 45.0198 95.0654 50.707C95.3923 50.6796 95.7229 50.666 96.0566 50.666C102.518 50.666 107.757 55.9046 107.757 62.3662C107.757 68.7271 102.681 73.9025 96.3584 74.0625L96.0566 74.0664H64.0566C56.7114 74.0663 50.7569 68.1118 50.7568 60.7666C50.7568 53.4213 56.7113 47.4669 64.0566 47.4668C64.9948 47.4668 65.9109 47.564 66.7949 47.749C69.8004 43.6956 74.6212 41.0665 80.0566 41.0664Z" stroke="black" stroke-opacity="0.04"/>
<ellipse cx="64.0568" cy="60.7663" rx="12.8" ry="12.8" fill="url(#paint0_linear_116_18888)"/>
<circle cx="80.0566" cy="57.5664" r="16" fill="url(#paint1_linear_116_18888)"/>
<ellipse cx="96.0569" cy="62.3665" rx="11.2" ry="11.2" fill="url(#paint2_linear_116_18888)"/>
</g>
</g>
<defs>
<filter id="filter0_d_116_18888" x="40.2925" y="-3.43359" width="122.383" height="122.383" filterUnits="userSpaceOnUse" color-interpolation-filters="sRGB">
<feFlood flood-opacity="0" result="BackgroundImageFix"/>
<feColorMatrix in="SourceAlpha" type="matrix" values="0 0 0 0 0 0 0 0 0 0 0 0 0 0 0 0 0 0 127 0" result="hardAlpha"/>
<feOffset dy="2"/>
<feGaussianBlur stdDeviation="6"/>
<feComposite in2="hardAlpha" operator="out"/>
<feColorMatrix type="matrix" values="0 0 0 0 0.0392157 0 0 0 0 0.0509804 0 0 0 0 0.0705882 0 0 0 0.02 0"/>
<feBlend mode="normal" in2="BackgroundImageFix" result="effect1_dropShadow_116_18888"/>
<feBlend mode="normal" in="SourceGraphic" in2="effect1_dropShadow_116_18888" result="shape"/>
</filter>
<filter id="filter1_d_116_18888" x="-3.44482" y="-3.44482" width="122.383" height="122.383" filterUnits="userSpaceOnUse" color-interpolation-filters="sRGB">
<feFlood flood-opacity="0" result="BackgroundImageFix"/>
<feColorMatrix in="SourceAlpha" type="matrix" values="0 0 0 0 0 0 0 0 0 0 0 0 0 0 0 0 0 0 127 0" result="hardAlpha"/>
<feOffset dy="2"/>
<feGaussianBlur stdDeviation="6"/>
<feComposite in2="hardAlpha" operator="out"/>
<feColorMatrix type="matrix" values="0 0 0 0 0.0392157 0 0 0 0 0.0509804 0 0 0 0 0.0705882 0 0 0 0.02 0"/>
<feBlend mode="normal" in2="BackgroundImageFix" result="effect1_dropShadow_116_18888"/>
<feBlend mode="normal" in="SourceGraphic" in2="effect1_dropShadow_116_18888" result="shape"/>
</filter>
<filter id="filter2_di_116_18888" x="20.2568" y="0.566406" width="118" height="118" filterUnits="userSpaceOnUse" color-interpolation-filters="sRGB">
<feFlood flood-opacity="0" result="BackgroundImageFix"/>
<feColorMatrix in="SourceAlpha" type="matrix" values="0 0 0 0 0 0 0 0 0 0 0 0 0 0 0 0 0 0 127 0" result="hardAlpha"/>
<feOffset dy="2"/>
<feGaussianBlur stdDeviation="6"/>
<feComposite in2="hardAlpha" operator="out"/>
<feColorMatrix type="matrix" values="0 0 0 0 0.0392157 0 0 0 0 0.0509804 0 0 0 0 0.0705882 0 0 0 0.02 0"/>
<feBlend mode="normal" in2="BackgroundImageFix" result="effect1_dropShadow_116_18888"/>
<feBlend mode="normal" in="SourceGraphic" in2="effect1_dropShadow_116_18888" result="shape"/>
<feColorMatrix in="SourceAlpha" type="matrix" values="0 0 0 0 0 0 0 0 0 0 0 0 0 0 0 0 0 0 127 0" result="hardAlpha"/>
<feOffset dy="-3"/>
<feComposite in2="hardAlpha" operator="arithmetic" k2="-1" k3="1"/>
<feColorMatrix type="matrix" values="0 0 0 0 0 0 0 0 0 0 0 0 0 0 0 0 0 0 0.02 0"/>
<feBlend mode="normal" in2="shape" result="effect2_innerShadow_116_18888"/>
</filter>
<filter id="filter3_d_116_18888" x="38.2568" y="30.5664" width="82" height="58" filterUnits="userSpaceOnUse" color-interpolation-filters="sRGB">
<feFlood flood-opacity="0" result="BackgroundImageFix"/>
<feColorMatrix in="SourceAlpha" type="matrix" values="0 0 0 0 0 0 0 0 0 0 0 0 0 0 0 0 0 0 127 0" result="hardAlpha"/>
<feOffset dy="2"/>
<feGaussianBlur stdDeviation="6"/>
<feColorMatrix type="matrix" values="0 0 0 0 0.0392157 0 0 0 0 0.0496732 0 0 0 0 0.0705882 0 0 0 0.03 0"/>
<feBlend mode="normal" in2="BackgroundImageFix" result="effect1_dropShadow_116_18888"/>
<feBlend mode="normal" in="SourceGraphic" in2="effect1_dropShadow_116_18888" result="shape"/>
</filter>
<linearGradient id="paint0_linear_116_18888" x1="54.2283" y1="52.3092" x2="76.8568" y2="73.5663" gradientUnits="userSpaceOnUse">
<stop stop-color="#E9EAEB"/>
<stop offset="0.350715" stop-color="#FAFAFA"/>
</linearGradient>
<linearGradient id="paint1_linear_116_18888" x1="67.7709" y1="46.995" x2="96.0566" y2="73.5664" gradientUnits="userSpaceOnUse">
<stop stop-color="#E9EAEB"/>
<stop offset="0.350715" stop-color="#FAFAFA"/>
</linearGradient>
<linearGradient id="paint2_linear_116_18888" x1="87.4569" y1="54.9665" x2="107.257" y2="73.5665" gradientUnits="userSpaceOnUse">
<stop stop-color="#E9EAEB"/>
<stop offset="0.350715" stop-color="#FAFAFA"/>
</linearGradient>
</defs>
</svg>
