<svg width="16" height="16" viewBox="0 0 16 16" fill="none" xmlns="http://www.w3.org/2000/svg">
<path d="M8.65487 1.84268C8.42065 1.66051 8.30354 1.56943 8.17423 1.53442C8.06013 1.50352 7.93987 1.50352 7.82577 1.53442C7.69646 1.56943 7.57935 1.66051 7.34513 1.84268L2.82359 5.35943C2.52135 5.59451 2.37022 5.71205 2.26135 5.85925C2.16491 5.98964 2.09307 6.13654 2.04935 6.29272C2 6.46903 2 6.66048 2 7.04338V11.8667C2 12.6134 2 12.9868 2.14532 13.272C2.27316 13.5229 2.47713 13.7268 2.72801 13.8547C3.01323 14 3.3866 14 4.13333 14H5.46667C5.65335 14 5.74669 14 5.818 13.9637C5.88072 13.9317 5.93171 13.8807 5.96367 13.818C6 13.7467 6 13.6534 6 13.4667V9.06667C6 8.6933 6 8.50662 6.07266 8.36401C6.13658 8.23857 6.23857 8.13658 6.36401 8.07267C6.50661 8 6.6933 8 7.06667 8H8.93333C9.3067 8 9.49339 8 9.63599 8.07267C9.76144 8.13658 9.86342 8.23857 9.92734 8.36401C10 8.50662 10 8.6933 10 9.06667V13.4667C10 13.6534 10 13.7467 10.0363 13.818C10.0683 13.8807 10.1193 13.9317 10.182 13.9637C10.2533 14 10.3466 14 10.5333 14H11.8667C12.6134 14 12.9868 14 13.272 13.8547C13.5229 13.7268 13.7268 13.5229 13.8547 13.272C14 12.9868 14 12.6134 14 11.8667V7.04338C14 6.66048 14 6.46903 13.9506 6.29272C13.9069 6.13654 13.8351 5.98964 13.7386 5.85925C13.6298 5.71205 13.4787 5.59451 13.1764 5.35943L8.65487 1.84268Z" stroke="#717680" stroke-width="1.25" stroke-linecap="round" stroke-linejoin="round"/>
</svg>
