<svg width="40" height="24" viewBox="0 0 40 24" fill="none" xmlns="http://www.w3.org/2000/svg">
<path d="M5.496 14.3745H0.24C0.0811429 13.5985 0 12.8019 0 11.9939C0 11.1848 0.0765714 10.4099 0.235429 9.64648H5.48686C5.21714 10.3882 5.07657 11.1802 5.07657 11.9939C5.07657 12.8065 5.22171 13.6191 5.496 14.3745Z" fill="#2E90FA"/>
<path d="M39.0585 11.9939C39.0585 12.8019 38.9762 13.5985 38.8185 14.3745H33.5625C33.8402 13.6191 33.9819 12.8191 33.9819 11.9939C33.9819 11.1688 33.8402 10.3882 33.5705 9.64648H38.8231C38.9774 10.4099 39.0585 11.1973 39.0585 11.9939Z" fill="#2E90FA"/>
<path d="M19.5269 2.27236C19.0057 2.63922 18.5097 3.05179 18.0389 3.51008L15.7166 5.77408C14.656 5.21979 13.48 4.94436 12.3086 4.94436C10.456 4.94436 8.60457 5.63236 7.19314 7.00836C5.82857 8.34208 5.07657 10.1101 5.07657 11.9946H0C0 8.78779 1.27886 5.77408 3.60571 3.51008C7.93714 -0.712781 14.72 -1.12535 19.5314 2.27236H19.5269Z" fill="url(#paint0_linear_450_9743)"/>
<path d="M28.0594 13.6121L23.3383 18.2143L21.016 20.4772C20.5451 20.9366 20.0491 21.3492 19.5269 21.7161C17.3851 23.2292 14.8446 23.9881 12.3086 23.9881C9.15657 23.9881 6.00457 22.8166 3.60571 20.4772C1.27886 18.2098 0 15.1961 0 11.9903H5.07657C5.07657 13.8738 5.82857 15.6463 7.19314 16.9755C9.60114 19.3229 13.3006 19.6646 16.0891 18.0018C16.5634 17.7183 17.0126 17.3766 17.4274 16.9755L19.9806 14.4875L24.4674 10.1138H24.4709C25.4629 9.14234 27.072 9.14234 28.0594 10.1103C29.0514 11.0772 29.0514 12.6441 28.0594 13.6075V13.6121Z" fill="url(#paint1_linear_450_9743)"/>
<path d="M39.06 11.9939H33.9834C33.9834 10.1093 33.2314 8.34245 31.8668 7.0076C30.4554 5.63274 28.604 4.94474 26.7514 4.94474C25.4382 4.94474 24.1262 5.29102 22.9708 5.98245C22.4965 6.26588 22.0474 6.6076 21.6371 7.0076L19.0794 9.50131L14.5891 13.8785C14.0931 14.3619 13.4428 14.6042 12.7925 14.6042C12.1422 14.6042 11.492 14.3619 10.996 13.8785C10.004 12.9116 10.004 11.3436 10.996 10.3802L15.7182 5.77788L18.0405 3.51502C18.5102 3.05559 19.0062 2.64302 19.5285 2.27617C24.34 -1.12155 31.1182 -0.708976 35.4508 3.51502C37.7765 5.78245 39.0554 8.79617 39.0554 11.9985L39.06 11.9939Z" fill="url(#paint2_linear_450_9743)"/>
<path d="M39.0612 11.9941C39.0612 15.1999 37.7823 18.2136 35.4555 20.4821C33.0566 22.8204 29.9046 23.9919 26.7526 23.9919C24.2166 23.9919 21.6761 23.233 19.5332 21.7199C20.0555 21.353 20.5515 20.9404 21.0212 20.4821L23.3435 18.2181C24.4041 18.7724 25.5766 19.0479 26.7526 19.0479C28.6041 19.0479 30.4555 18.3599 31.8669 16.9839C33.2315 15.6501 33.9846 13.8833 33.9846 11.9987H39.0612V11.9941Z" fill="url(#paint3_linear_450_9743)"/>
<defs>
<linearGradient id="paint0_linear_450_9743" x1="3.17418e-10" y1="5.96749" x2="19.5306" y2="6.12571" gradientUnits="userSpaceOnUse">
<stop stop-color="#34A6ED"/>
<stop offset="1" stop-color="#1047D2"/>
</linearGradient>
<linearGradient id="paint1_linear_450_9743" x1="4.68103e-10" y1="16.6501" x2="28.8014" y2="16.9327" gradientUnits="userSpaceOnUse">
<stop stop-color="#34A6ED"/>
<stop offset="1" stop-color="#54E3DF"/>
</linearGradient>
<linearGradient id="paint2_linear_450_9743" x1="10.252" y1="7.26772" x2="39.0579" y2="7.55049" gradientUnits="userSpaceOnUse">
<stop stop-color="#54E3DF"/>
<stop offset="1" stop-color="#34A6ED"/>
</linearGradient>
<linearGradient id="paint3_linear_450_9743" x1="19.5332" y1="17.9632" x2="39.0604" y2="18.1213" gradientUnits="userSpaceOnUse">
<stop stop-color="#1047D2"/>
<stop offset="1" stop-color="#34A6ED"/>
</linearGradient>
</defs>
</svg>
