<svg width="141" height="106" viewBox="0 0 141 106" fill="none" xmlns="http://www.w3.org/2000/svg">
<g filter="url(#filter0_d_151_24764)">
<path d="M57.1987 23.9495C59.0136 14.6124 68.0541 8.51453 77.3912 10.3295L114.512 17.5449C123.849 19.3599 129.947 28.4004 128.132 37.7375L120.916 74.8579C119.101 84.195 110.061 90.293 100.723 88.4777L63.6032 81.2624C54.2662 79.4475 48.1683 70.407 49.9832 61.07L57.1987 23.9495Z" fill="#FAFAFA"/>
<mask id="mask0_151_24764" style="mask-type:luminance" maskUnits="userSpaceOnUse" x="49" y="10" width="80" height="79">
<path d="M57.1987 23.9495C59.0136 14.6124 68.0541 8.51453 77.3912 10.3295L114.512 17.5449C123.849 19.3599 129.947 28.4004 128.132 37.7375L120.916 74.8579C119.101 84.195 110.061 90.293 100.723 88.4777L63.6032 81.2625C54.2662 79.4475 48.1683 70.407 49.9832 61.07L57.1987 23.9495Z" fill="white"/>
</mask>
<g mask="url(#mask0_151_24764)">
<path d="M77.3912 10.3295L77.2269 11.1748L114.347 18.3903L114.512 17.545L114.676 16.6997L77.5555 9.48419L77.3912 10.3295ZM128.132 37.7375L127.286 37.5732L120.07 74.6937L120.916 74.858L121.762 75.0223L128.977 37.9018L128.132 37.7375ZM100.723 88.4777L100.888 87.633L63.7676 80.4171L63.6032 81.2625L63.4389 82.1078L100.56 89.3234L100.723 88.4777ZM49.9833 61.07L50.8285 61.2343L58.0441 24.1139L57.1987 23.9495L56.3534 23.7852L49.1379 60.9056L49.9833 61.07ZM63.6032 81.2625L63.7676 80.4171C54.8973 78.6929 49.1044 70.1045 50.8285 61.2343L49.9833 61.07L49.1379 60.9056C47.2322 70.7095 53.635 80.2021 63.4389 82.1078L63.6032 81.2625ZM120.916 74.858L120.07 74.6937C118.347 83.5639 109.758 89.357 100.888 87.633L100.723 88.4777L100.56 89.3234C110.363 91.2291 119.856 84.8262 121.762 75.0223L120.916 74.858ZM114.512 17.545L114.347 18.3903C123.218 20.1145 129.011 28.7029 127.286 37.5732L128.132 37.7375L128.977 37.9018C130.883 28.0979 124.479 18.6054 114.676 16.6997L114.512 17.545ZM77.3912 10.3295L77.5555 9.48419C67.7516 7.5785 58.2591 13.9813 56.3534 23.7852L57.1987 23.9495L58.0441 24.1139C59.7682 15.2436 68.3567 9.45062 77.2269 11.1748L77.3912 10.3295Z" fill="black" fill-opacity="0.04"/>
</g>
</g>
<g filter="url(#filter1_d_151_24764)">
<path d="M12.3197 37.7277C10.5047 28.3906 16.6026 19.35 25.9396 17.5351L63.0601 10.3197C72.3972 8.50469 81.4376 14.6026 83.2525 23.9396L90.4681 61.0601C92.2833 70.3972 86.1851 79.4376 76.848 81.2526L39.7276 88.4682C30.3906 90.2826 21.35 84.1851 19.5351 74.8481L12.3197 37.7277Z" fill="#FAFAFA"/>
<mask id="mask1_151_24764" style="mask-type:luminance" maskUnits="userSpaceOnUse" x="12" y="10" width="79" height="79">
<path d="M12.3197 37.7277C10.5047 28.3906 16.6026 19.35 25.9396 17.5351L63.0601 10.3197C72.3972 8.50469 81.4376 14.6026 83.2525 23.9396L90.4681 61.0601C92.2833 70.3972 86.1851 79.4376 76.848 81.2526L39.7276 88.4682C30.3906 90.2826 21.35 84.1851 19.5351 74.8481L12.3197 37.7277Z" fill="white"/>
</mask>
<g mask="url(#mask1_151_24764)">
<path d="M25.9396 17.5351L26.1039 18.3805L63.2244 11.165L63.0601 10.3197L62.8958 9.47436L25.7753 16.6899L25.9396 17.5351ZM83.2526 23.9397L82.4073 24.104L89.6224 61.2244L90.4681 61.0601L91.3137 60.8958L84.0979 23.7754L83.2526 23.9397ZM76.848 81.2527L76.6837 80.4073L39.5633 87.6227L39.7276 88.4683L39.8919 89.3131L77.0123 82.098L76.848 81.2527ZM19.5351 74.8482L20.3804 74.6838L13.165 37.5633L12.3197 37.7277L11.4743 37.892L18.6898 75.0125L19.5351 74.8482ZM39.7276 88.4683L39.5633 87.6227C30.6931 89.3466 22.1046 83.5541 20.3804 74.6838L19.5351 74.8482L18.6898 75.0125C20.5955 84.8164 30.0881 91.2187 39.8919 89.3131L39.7276 88.4683ZM90.4681 61.0601L89.6224 61.2244C91.3473 70.0947 85.5539 78.6831 76.6837 80.4073L76.848 81.2527L77.0123 82.098C86.8163 80.1923 93.2194 70.6997 91.3137 60.8958L90.4681 61.0601ZM63.0601 10.3197L63.2244 11.165C72.0946 9.4408 80.6831 15.2338 82.4073 24.104L83.2526 23.9397L84.0979 23.7754C82.1922 13.9714 72.6997 7.56868 62.8958 9.47436L63.0601 10.3197ZM25.9396 17.5351L25.7753 16.6899C15.9714 18.5955 9.56863 28.0881 11.4743 37.892L12.3197 37.7277L13.165 37.5633C11.4407 28.6931 17.2337 20.1047 26.1039 18.3805L25.9396 17.5351Z" fill="black" fill-opacity="0.04"/>
</g>
</g>
<g filter="url(#filter2_d_151_24764)">
<path d="M29.4436 27.7105C29.4436 18.1986 37.1545 10.4878 46.6663 10.4878H93.1677C102.68 10.4878 110.39 18.1986 110.39 27.7105V74.2117C110.39 83.7235 102.68 91.434 93.1677 91.434H46.6663C37.1545 91.434 29.4436 83.7235 29.4436 74.2117V27.7105Z" fill="white"/>
<mask id="mask2_151_24764" style="mask-type:luminance" maskUnits="userSpaceOnUse" x="29" y="10" width="82" height="82">
<path d="M29.4436 27.7105C29.4436 18.1986 37.1545 10.4878 46.6663 10.4878H93.1677C102.68 10.4878 110.39 18.1986 110.39 27.7105V74.2117C110.39 83.7235 102.68 91.434 93.1677 91.434H46.6663C37.1545 91.434 29.4436 83.7235 29.4436 74.2117V27.7105Z" fill="white"/>
</mask>
<g mask="url(#mask2_151_24764)">
<path d="M46.6663 10.4878V11.3489H93.1677V10.4878V9.62665H46.6663V10.4878ZM110.39 27.7104H109.529V74.2117H110.39H111.252V27.7104H110.39ZM93.1677 91.434V90.5729H46.6663V91.434V92.2951H93.1677V91.434ZM29.4437 74.2117H30.3048V27.7104H29.4437H28.5825V74.2117H29.4437ZM46.6663 91.434V90.5729C37.6301 90.5729 30.3048 83.2479 30.3048 74.2117H29.4437H28.5825C28.5825 84.1991 36.679 92.2951 46.6663 92.2951V91.434ZM110.39 74.2117H109.529C109.529 83.2479 102.204 90.5729 93.1677 90.5729V91.434V92.2951C103.155 92.2951 111.252 84.1991 111.252 74.2117H110.39ZM93.1677 10.4878V11.3489C102.204 11.3489 109.529 18.6742 109.529 27.7104H110.39H111.252C111.252 17.723 103.155 9.62665 93.1677 9.62665V10.4878ZM46.6663 10.4878V9.62665C36.679 9.62665 28.5825 17.723 28.5825 27.7104H29.4437H30.3048C30.3048 18.6742 37.6301 11.3489 46.6663 11.3489V10.4878Z" fill="black" fill-opacity="0.065"/>
</g>
</g>
<g filter="url(#filter3_d_151_24764)">
<path d="M56.116 75.3256H84.4479C86.2893 75.3256 87.782 73.8329 87.782 71.9915V35.3563L79.7051 27.3256H56.116C54.2747 27.3256 52.782 28.8183 52.782 30.6596V71.9915C52.782 73.8329 54.2747 75.3256 56.116 75.3256Z" fill="url(#paint0_linear_151_24764)"/>
<path d="M88.032 71.9916C88.0319 73.9709 86.4274 75.5755 84.448 75.5756H56.116C54.1366 75.5755 52.532 73.9709 52.532 71.9916V30.6595C52.532 28.6802 54.1366 27.0756 56.116 27.0756H79.8083L79.8816 27.1478L87.9578 35.1791L88.032 35.2523V71.9916Z" stroke="black" stroke-opacity="0.07" stroke-width="0.5"/>
<path d="M79.782 27.3256L87.782 35.3256H82.982C81.8619 35.3256 81.3018 35.3256 80.874 35.1076C80.4977 34.9158 80.1917 34.6099 80 34.2335C79.782 33.8057 79.782 33.2457 79.782 32.1256V27.3256Z" fill="#E9EAEB"/>
</g>
<defs>
<filter id="filter0_d_151_24764" x="37.6636" y="0.00982666" width="102.788" height="102.788" filterUnits="userSpaceOnUse" color-interpolation-filters="sRGB">
<feFlood flood-opacity="0" result="BackgroundImageFix"/>
<feColorMatrix in="SourceAlpha" type="matrix" values="0 0 0 0 0 0 0 0 0 0 0 0 0 0 0 0 0 0 127 0" result="hardAlpha"/>
<feOffset dy="2"/>
<feGaussianBlur stdDeviation="6"/>
<feComposite in2="hardAlpha" operator="out"/>
<feColorMatrix type="matrix" values="0 0 0 0 0.0392157 0 0 0 0 0.0509804 0 0 0 0 0.0705882 0 0 0 0.02 0"/>
<feBlend mode="normal" in2="BackgroundImageFix" result="effect1_dropShadow_151_24764"/>
<feBlend mode="normal" in="SourceGraphic" in2="effect1_dropShadow_151_24764" result="shape"/>
</filter>
<filter id="filter1_d_151_24764" x="0" y="0" width="102.788" height="102.788" filterUnits="userSpaceOnUse" color-interpolation-filters="sRGB">
<feFlood flood-opacity="0" result="BackgroundImageFix"/>
<feColorMatrix in="SourceAlpha" type="matrix" values="0 0 0 0 0 0 0 0 0 0 0 0 0 0 0 0 0 0 127 0" result="hardAlpha"/>
<feOffset dy="2"/>
<feGaussianBlur stdDeviation="6"/>
<feComposite in2="hardAlpha" operator="out"/>
<feColorMatrix type="matrix" values="0 0 0 0 0.0392157 0 0 0 0 0.0509804 0 0 0 0 0.0705882 0 0 0 0.02 0"/>
<feBlend mode="normal" in2="BackgroundImageFix" result="effect1_dropShadow_151_24764"/>
<feBlend mode="normal" in="SourceGraphic" in2="effect1_dropShadow_151_24764" result="shape"/>
</filter>
<filter id="filter2_d_151_24764" x="17.4436" y="0.487793" width="104.947" height="104.946" filterUnits="userSpaceOnUse" color-interpolation-filters="sRGB">
<feFlood flood-opacity="0" result="BackgroundImageFix"/>
<feColorMatrix in="SourceAlpha" type="matrix" values="0 0 0 0 0 0 0 0 0 0 0 0 0 0 0 0 0 0 127 0" result="hardAlpha"/>
<feOffset dy="2"/>
<feGaussianBlur stdDeviation="6"/>
<feComposite in2="hardAlpha" operator="out"/>
<feColorMatrix type="matrix" values="0 0 0 0 0.0392157 0 0 0 0 0.0509804 0 0 0 0 0.0705882 0 0 0 0.02 0"/>
<feBlend mode="normal" in2="BackgroundImageFix" result="effect1_dropShadow_151_24764"/>
<feBlend mode="normal" in="SourceGraphic" in2="effect1_dropShadow_151_24764" result="shape"/>
</filter>
<filter id="filter3_d_151_24764" x="36.6106" y="11.434" width="67.3428" height="83.7831" filterUnits="userSpaceOnUse" color-interpolation-filters="sRGB">
<feFlood flood-opacity="0" result="BackgroundImageFix"/>
<feColorMatrix in="SourceAlpha" type="matrix" values="0 0 0 0 0 0 0 0 0 0 0 0 0 0 0 0 0 0 127 0" result="hardAlpha"/>
<feOffset dy="2"/>
<feGaussianBlur stdDeviation="6"/>
<feColorMatrix type="matrix" values="0 0 0 0 0.0392157 0 0 0 0 0.0496732 0 0 0 0 0.0705882 0 0 0 0.03 0"/>
<feBlend mode="normal" in2="BackgroundImageFix" result="effect1_dropShadow_151_24764"/>
<feBlend mode="normal" in="SourceGraphic" in2="effect1_dropShadow_151_24764" result="shape"/>
</filter>
<linearGradient id="paint0_linear_151_24764" x1="54.0009" y1="74.7574" x2="50.9584" y2="30.9932" gradientUnits="userSpaceOnUse">
<stop stop-color="#F5F5F5"/>
<stop offset="1" stop-color="#FAFAFA"/>
</linearGradient>
</defs>
</svg>
