<svg width="20" height="20" viewBox="0 0 20 20" fill="none" xmlns="http://www.w3.org/2000/svg">
<path d="M3.08675 11.8369L9.33675 5.58695C9.42385 5.49955 9.52734 5.4302 9.6413 5.38288C9.75525 5.33557 9.87743 5.31121 10.0008 5.31121C10.1242 5.31121 10.2464 5.33557 10.3603 5.38288C10.4743 5.4302 10.5778 5.49955 10.6649 5.58695L16.9149 11.8369C17.091 12.0131 17.1899 12.2519 17.1899 12.501C17.1899 12.7501 17.091 12.989 16.9149 13.1651C16.7388 13.3412 16.4999 13.4401 16.2508 13.4401C16.0017 13.4401 15.7629 13.3412 15.5868 13.1651L10 7.57835L4.41332 13.1659C4.2372 13.342 3.99833 13.4409 3.74925 13.4409C3.50018 13.4409 3.26131 13.342 3.08519 13.1659C2.90907 12.9897 2.81013 12.7509 2.81013 12.5018C2.81013 12.2527 2.90907 12.0138 3.08519 11.8377L3.08675 11.8369Z" fill="#414651"/>
</svg>
