<svg width="24" height="24" viewBox="0 0 24 24" fill="none" xmlns="http://www.w3.org/2000/svg">
<g clip-path="url(#clip0_152_32383)">
<mask id="mask0_152_32383" style="mask-type:luminance" maskUnits="userSpaceOnUse" x="0" y="0" width="24" height="24">
<path d="M24 0H0V24H24V0Z" fill="white"/>
<path d="M8.24265 10.4551C7.78683 9.08709 9.08856 7.78536 10.4565 8.24118L21.7468 12.0046C23.3192 12.5291 23.3489 14.743 21.7909 15.3095L17.0387 17.0372L15.311 21.7895C14.7444 23.3475 12.5306 23.3178 12.0061 21.7453L8.24265 10.4551Z" fill="black"/>
</mask>
<g mask="url(#mask0_152_32383)">
<path d="M6 13H18C18.9293 13 19.394 13 19.7804 12.9231C21.3671 12.6075 22.6075 11.3671 22.9231 9.78036C23 9.39397 23 8.92931 23 8C23 7.07069 23 6.60603 22.9231 6.21964C22.6075 4.63288 21.3671 3.39249 19.7804 3.07686C19.394 3 18.9293 3 18 3H6C5.07069 3 4.60603 3 4.21964 3.07686C2.63288 3.39249 1.39249 4.63288 1.07686 6.21964C1 6.60603 1 7.07069 1 8C1 8.92931 1 9.39397 1.07686 9.78036C1.39249 11.3671 2.63288 12.6075 4.21964 12.9231C4.60603 13 5.07069 13 6 13Z" fill="url(#paint0_linear_152_32383)"/>
</g>
<mask id="mask1_152_32383" style="mask-type:luminance" maskUnits="userSpaceOnUse" x="8" y="8" width="15" height="15">
<path d="M8.24265 10.4551C7.78683 9.08709 9.08856 7.78536 10.4565 8.24118L21.7468 12.0046C23.3192 12.5291 23.3489 14.743 21.7909 15.3095L17.0387 17.0372L15.311 21.7895C14.7444 23.3475 12.5306 23.3178 12.0061 21.7453L8.24265 10.4551Z" fill="white"/>
</mask>
<g mask="url(#mask1_152_32383)">
<g filter="url(#filter0_f_152_32383)">
<path d="M6.00024 13H18.0002C18.9295 13 19.3942 13 19.7806 12.9231C21.3673 12.6075 22.6077 11.3671 22.9233 9.78036C23.0002 9.39397 23.0002 8.92931 23.0002 8C23.0002 7.07069 23.0002 6.60603 22.9233 6.21964C22.6077 4.63288 21.3673 3.39249 19.7806 3.07686C19.3942 3 18.9295 3 18.0002 3H6.00024C5.07093 3 4.60627 3 4.21988 3.07686C2.63312 3.39249 1.39273 4.63288 1.0771 6.21964C1.00024 6.60603 1.00024 7.07069 1.00024 8C1.00024 8.92931 1.00024 9.39397 1.0771 9.78036C1.39273 11.3671 2.63312 12.6075 4.21988 12.9231C4.60627 13 5.07093 13 6.00024 13Z" fill="url(#paint1_linear_152_32383)"/>
</g>
</g>
<path d="M8.24265 10.4551C7.78683 9.08709 9.08856 7.78536 10.4565 8.24118L21.7468 12.0046C23.3192 12.5291 23.3489 14.743 21.7909 15.3095L17.0387 17.0372L15.311 21.7895C14.7444 23.3475 12.5306 23.3178 12.0061 21.7453L8.24265 10.4551Z" fill="url(#paint2_linear_152_32383)"/>
<path d="M8.24214 10.455C7.78638 9.08713 9.08813 7.78547 10.456 8.24113L21.747 12.0048C23.1084 12.4594 23.3119 14.1792 22.33 14.9999H20.4462L21.5341 14.6044C22.4243 14.2805 22.407 13.0164 21.5087 12.7167L10.2196 8.95207C9.43803 8.69162 8.69367 9.43605 8.95405 10.2177L10.5478 14.9999H9.75679L8.24214 10.455Z" fill="url(#paint3_linear_152_32383)"/>
</g>
<defs>
<filter id="filter0_f_152_32383" x="-2.99976" y="-1" width="29.9998" height="18" filterUnits="userSpaceOnUse" color-interpolation-filters="sRGB">
<feFlood flood-opacity="0" result="BackgroundImageFix"/>
<feBlend mode="normal" in="SourceGraphic" in2="BackgroundImageFix" result="shape"/>
<feGaussianBlur stdDeviation="2" result="effect1_foregroundBlur_152_32383"/>
</filter>
<linearGradient id="paint0_linear_152_32383" x1="12" y1="3" x2="12" y2="13" gradientUnits="userSpaceOnUse">
<stop stop-color="#575757"/>
<stop offset="1" stop-color="#151515"/>
</linearGradient>
<linearGradient id="paint1_linear_152_32383" x1="12.0002" y1="3" x2="12.0002" y2="13" gradientUnits="userSpaceOnUse">
<stop stop-color="#575757"/>
<stop offset="1" stop-color="#151515"/>
</linearGradient>
<linearGradient id="paint2_linear_152_32383" x1="8.66518" y1="8.66415" x2="18.6722" y2="18.6702" gradientUnits="userSpaceOnUse">
<stop stop-color="#E3E3E5" stop-opacity="0.6"/>
<stop offset="1" stop-color="#BBBBC0" stop-opacity="0.6"/>
</linearGradient>
<linearGradient id="paint3_linear_152_32383" x1="15.5459" y1="8.14883" x2="15.5459" y2="14.9998" gradientUnits="userSpaceOnUse">
<stop stop-color="white"/>
<stop offset="1" stop-color="white" stop-opacity="0"/>
</linearGradient>
<clipPath id="clip0_152_32383">
<rect width="24" height="24" fill="white"/>
</clipPath>
</defs>
</svg>
